aileron_semibold-italic.sfdir

StartChar: exclam
Encoding: 33 33 250
Width: 273
Flags: MW
HStem: -14 21G<69.5 112.5> -14 141<86 112.5> 670 20G<163 280 280 280>
VStem: 27 144<46.5 66> 27 253
LayerCount: 2
Fore
SplineSet
168 188 m 1xa8
 75 188 l 1
 163 690 l 1
 280 690 l 1
 168 188 l 1xa8
110 127 m 0x70
 148 127 171 104 171 69 c 0
 171 24 137 -14 88 -14 c 0
 51 -14 27 9 27 43 c 0
 27 89 62 127 110 127 c 0x70
EndSplineSet
EndChar

StartChar: quotedbl
Encoding: 34 34 257
Width: 313
Flags: MW
HStem: 474 261<82 124 42 184 82 195 234 277>
VStem: 42 295<474 735>
LayerCount: 2
Fore
SplineSet
124 474 m 1
 42 474 l 1
 82 735 l 1
 184 735 l 1
 124 474 l 1
277 474 m 1
 195 474 l 1
 234 735 l 1
 337 735 l 1
 277 474 l 1
EndSplineSet
EndChar

StartChar: numbersign
Encoding: 35 35 252
Width: 601
Flags: MW
HStem: 0 21G<67 136 67 67 226 295 226 226> 215 66<75 151 63 177 246 310 75 220 405 493> 410 66<139 227 127 253 139 296 322 386 481 557> 670 20G<336 405 405 405 495 564 564 564>
VStem: 63 506<215 476>
LayerCount: 2
Fore
SplineSet
455 410 m 1
 405 281 l 1
 505 281 l 1
 493 215 l 1
 379 215 l 1
 295 0 l 1
 226 0 l 1
 310 215 l 1
 220 215 l 1
 136 0 l 1
 67 0 l 1
 151 215 l 1
 63 215 l 1
 75 281 l 1
 177 281 l 1
 227 410 l 1
 127 410 l 1
 139 476 l 1
 253 476 l 1
 336 690 l 1
 405 690 l 1
 322 476 l 1
 412 476 l 1
 495 690 l 1
 564 690 l 1
 481 476 l 1
 569 476 l 1
 557 410 l 1
 455 410 l 1
386 410 m 1
 296 410 l 1
 246 281 l 1
 336 281 l 1
 386 410 l 1
EndSplineSet
EndChar

StartChar: dollar
Encoding: 36 36 285
Width: 601
Flags: MW
HStem: -90 159<189 286 189 286> -11 21G<203 203>
VStem: 18 112<190 190> 90 112<479 532.5 479 544> 411 114<146.5 209> 454 111<504 504>
LayerCount: 2
Fore
SplineSet
383 615 m 1x54
 344 394 l 1
 466 350 525 291 525 190 c 0
 525 67 423 -9 271 -14 c 1
 258 -90 l 1
 189 -90 l 1x98
 203 -11 l 1
 75 7 25 87 18 190 c 1
 130 190 l 1
 134 128 163 87 218 73 c 1x68
 259 305 l 1
 155 339 90 386 90 493 c 0
 90 595 168 696 329 704 c 1
 343 780 l 1
 412 780 l 1
 398 700 l 1
 508 683 562 603 565 504 c 1
 454 504 l 1
 453 559 426 599 383 615 c 1x54
202 503 m 0
 202 455 231 431 278 412 c 1
 315 622 l 1
 239 613 202 562 202 503 c 0
325 287 m 1
 286 69 l 1
 365 74 411 110 411 183 c 0
 411 235 384 265 325 287 c 1
EndSplineSet
EndChar

StartChar: percent
Encoding: 37 37 305
Width: 756
Flags: MW
HStem: -14 66<517.5 558 517.5 586.5> 0 21G<56 161 56 56> 243 66<539 579> 381 66<205 245 205 273.5> 638 66<226 266> 670 20G<623 728 728 728>
VStem: 81 91<491.5 548.5 491.5 561.5> 299 91<537 593.5> 394 90<96.5 153.5 96.5 166.5> 612 91<142 198.5>
LayerCount: 2
Fore
SplineSet
214 381 m 0xbac0
 133 381 81 434 81 514 c 0
 81 609 138 704 257 704 c 0
 338 704 390 652 390 571 c 0xbb40
 390 476 333 381 214 381 c 0xbac0
728 690 m 1x76c0
 161 0 l 1
 56 0 l 1
 623 690 l 1
 728 690 l 1x76c0
249 638 m 0xbb40
 203 638 172 586 172 511 c 0
 172 472 188 447 222 447 c 0
 268 447 299 500 299 574 c 0
 299 613 283 638 249 638 c 0xbb40
569 309 m 0
 651 309 703 257 703 176 c 0
 703 81 646 -14 527 -14 c 0
 446 -14 394 39 394 119 c 0xbac0
 394 214 451 309 569 309 c 0
535 52 m 0xbac0
 581 52 612 105 612 179 c 0
 612 218 596 243 562 243 c 0
 516 243 484 191 484 116 c 0
 484 77 500 52 535 52 c 0xbac0
EndSplineSet
EndChar

StartChar: ampersand
Encoding: 38 38 313
Width: 666
Flags: MW
HStem: -14 84<241.5 307.5 241.5 309.5> 306 88<364 444 395 428 554 633> 620 84<341.5 411> 674 20G<518 518>
VStem: 25 123<129.5 201> 116 120<455 529 452 556>
LayerCount: 2
Fore
SplineSet
649 394 m 1xe8
 633 306 l 1
 538 306 l 1
 486 9 l 1
 422 -5 348 -14 271 -14 c 0
 134 -14 25 22 25 148 c 0xe8
 25 254 105 333 220 353 c 1
 157 371 116 419 116 491 c 0
 116 621 237 704 405 704 c 0xe4
 451 704 483 701 518 694 c 1xd8
 503 610 l 1
 463 618 433 620 389 620 c 0
 294 620 236 574 236 484 c 0
 236 420 278 398 334 395 c 0xe4
 352 394 374 394 395 394 c 2
 444 394 l 1
 462 497 l 1
 571 497 l 1
 554 394 l 1
 649 394 l 1xe8
428 306 m 1
 375 306 l 2
 353 306 336 306 316 305 c 0
 198 295 148 240 148 164 c 0
 148 95 194 70 289 70 c 0
 326 70 352 72 388 79 c 1
 428 306 l 1
EndSplineSet
EndChar

StartChar: quotesingle
Encoding: 39 39 258
Width: 160
Flags: MW
HStem: 474 261<82 124 42 184>
VStem: 42 142
LayerCount: 2
Fore
SplineSet
124 474 m 1
 42 474 l 1
 82 735 l 1
 184 735 l 1
 124 474 l 1
EndSplineSet
EndChar

StartChar: parenleft
Encoding: 40 40 266
Width: 337
Flags: MW
HStem: -80 860<174 392 174 392>
VStem: 107 75<157 298>
LayerCount: 2
Fore
SplineSet
240 -80 m 1
 174 -80 l 1
 131 -4 107 95 107 209 c 0
 107 387 174 613 326 780 c 1
 392 780 l 1
 243 593 182 386 182 211 c 0
 182 103 202 5 240 -80 c 1
EndSplineSet
EndChar

StartChar: parenright
Encoding: 41 41 267
Width: 337
Flags: MW
HStem: -80 860<-25 193 -25 193>
VStem: 185 75<402.5 543>
LayerCount: 2
Fore
SplineSet
127 780 m 1
 193 780 l 1
 236 704 260 605 260 491 c 0
 260 314 193 88 41 -80 c 1
 -25 -80 l 1
 124 107 185 315 185 489 c 0
 185 597 166 695 127 780 c 1
EndSplineSet
EndChar

StartChar: asterisk
Encoding: 42 42 244
Width: 538
Flags: MW
HStem: 78 397<141 342 326 326>
VStem: 75 393<292 292>
LayerCount: 2
Fore
SplineSet
302 306 m 1
 458 364 l 1
 468 292 l 1
 310 254 l 1
 396 123 l 1
 326 78 l 1
 260 221 l 1
 141 78 l 1
 88 123 l 1
 219 254 l 1
 75 292 l 1
 111 364 l 1
 246 306 l 1
 266 475 l 1
 342 475 l 1
 302 306 l 1
EndSplineSet
EndChar

StartChar: plus
Encoding: 43 43 307
Width: 601
Flags: MW
HStem: 284 64<88 256 76 267 335 504 88 324>
VStem: 76 439<284 348>
LayerCount: 2
Fore
SplineSet
504 284 m 1
 324 284 l 1
 289 83 l 1
 220 83 l 1
 256 284 l 1
 76 284 l 1
 88 348 l 1
 267 348 l 1
 303 551 l 1
 371 551 l 1
 335 348 l 1
 515 348 l 1
 504 284 l 1
EndSplineSet
EndChar

StartChar: hyphen
Encoding: 45 45 271
Width: 284
Flags: MW
HStem: 250 66<38 246 26 258>
VStem: 26 232<250 316>
LayerCount: 2
Fore
SplineSet
246 250 m 1
 26 250 l 1
 38 316 l 1
 258 316 l 1
 246 250 l 1
EndSplineSet
EndChar

StartChar: period
Encoding: 46 46 253
Width: 246
Flags: MW
HStem: -14 146<59.5 82.5>
VStem: -3 147<47 71>
LayerCount: 2
Fore
SplineSet
84 132 m 0
 120 132 144 108 144 73 c 0
 144 21 107 -14 58 -14 c 0
 22 -14 -3 10 -3 45 c 0
 -3 97 35 132 84 132 c 0
EndSplineSet
EndChar

StartChar: slash
Encoding: 47 47 260
Width: 314
Flags: MW
HStem: -30 750<-61 395 -61 395>
VStem: -61 456
LayerCount: 2
Fore
SplineSet
12 -30 m 1
 -61 -30 l 1
 323 720 l 1
 395 720 l 1
 12 -30 l 1
EndSplineSet
EndChar

StartChar: zero
Encoding: 48 48 233
Width: 601
Flags: MW
HStem: -14 84<227.5 342.5 227.5 385> 620 84<264.5 379.5>
VStem: 32 119<192 301 192 341> 456 119<391 499>
LayerCount: 2
Fore
SplineSet
340 704 m 0
 503 704 575 593 575 443 c 0
 575 258 503 -14 267 -14 c 0
 103 -14 32 98 32 248 c 0
 32 434 104 704 340 704 c 0
268 70 m 0
 417 70 456 335 456 447 c 0
 456 551 420 620 339 620 c 0
 190 620 151 358 151 244 c 0
 151 140 187 70 268 70 c 0
EndSplineSet
EndChar

StartChar: one
Encoding: 49 49 234
Width: 601
Flags: MW
HStem: 0 21G<260 369 260 260> 670 20G<430 491 491 491>
VStem: 146 345<463 690>
LayerCount: 2
Fore
SplineSet
491 690 m 1
 369 0 l 1
 260 0 l 1
 361 575 l 1
 146 463 l 1
 165 571 l 1
 334 664 l 2
 369 683 399 690 430 690 c 2
 491 690 l 1
EndSplineSet
EndChar

StartChar: two
Encoding: 50 50 235
Width: 601
Flags: MW
HStem: 0 88<192 493> 621 84<335 407>
VStem: 469 122<498.5 557>
LayerCount: 2
Fore
SplineSet
192 88 m 1
 508 88 l 1
 493 0 l 1
 12 0 l 1
 22 56 l 1
 307 299 l 2
 423 398 469 452 469 528 c 0
 469 586 439 621 375 621 c 0
 295 621 247 578 222 480 c 1
 220 470 l 1
 111 470 l 1
 113 480 l 1
 152 635 251 705 401 705 c 0
 529 705 591 635 591 543 c 0
 591 454 538 378 370 238 c 1
 192 88 l 1
EndSplineSet
EndChar

StartChar: three
Encoding: 51 51 236
Width: 601
Flags: MW
HStem: -14 84<229 312.5 229 331> 309 81.5 620 84<334.5 401.5>
VStem: 34 110<198 198> 425 121<168 242> 467 121<506.5 558>
LayerCount: 2
Fore
SplineSet
432 366 m 1xf8
 505 345 546 297 546 225 c 0
 546 79 414 -14 248 -14 c 0
 106 -14 23 52 34 198 c 1
 35 208 l 1
 145 208 l 1
 144 198 l 1
 139 113 189 70 269 70 c 0
 356 70 425 125 425 211 c 0xf8
 425 273 382 308 292 309 c 1
 273 309 l 1
 287 390 l 1
 307 391 l 1
 395 392 467 447 467 532 c 0
 467 584 431 620 372 620 c 0
 297 620 241 578 224 497 c 2
 222 487 l 1
 112 487 l 1
 114 497 l 1
 141 621 237 704 400 704 c 0
 522 704 588 641 588 553 c 0xf4
 588 460 526 390 432 366 c 1xf8
EndSplineSet
EndChar

StartChar: four
Encoding: 52 52 237
Width: 601
Flags: MW
HStem: 0 21G<326 436 326 326> 169 88<164 356 482 552> 670 20G<451 564 564 564>
VStem: 19 548<169 257>
LayerCount: 2
Fore
SplineSet
552 169 m 1
 466 169 l 1
 436 0 l 1
 326 0 l 1
 356 169 l 1
 19 169 l 1
 28 226 l 1
 451 690 l 1
 564 690 l 1
 482 257 l 1
 567 257 l 1
 552 169 l 1
372 257 m 1
 430 554 l 1
 411 528 390 502 365 475 c 2
 164 257 l 1
 372 257 l 1
EndSplineSet
EndChar

StartChar: five
Encoding: 53 53 238
Width: 601
Flags: MW
HStem: -14 84<220.5 309 220.5 326.5> 375 84<334.5 352> 603 87<262 262 262 581>
VStem: 40 110<186 196 147.5 196> 427 121<198.5 290>
LayerCount: 2
Fore
SplineSet
262 603 m 1
 195 385 l 1
 241 431 l 1
 278 450 314 459 355 459 c 0
 484 459 548 381 548 270 c 0
 548 88 405 -14 248 -14 c 0
 117 -14 29 52 40 186 c 1
 40 196 l 1
 150 196 l 1
 150 186 l 2
 150 109 182 70 259 70 c 0
 359 70 427 144 427 253 c 0
 427 327 388 375 316 375 c 0
 257 375 211 350 171 286 c 1
 68 286 l 1
 189 690 l 1
 597 690 l 1
 581 603 l 1
 262 603 l 1
EndSplineSet
EndChar

StartChar: six
Encoding: 54 54 239
Width: 601
Flags: MW
HStem: -14 84<233 313 233 334> 381 84<335.5 359> 620 84<330 408.5>
VStem: 45 114<159 254 159 376.5> 431 122<203.5 292.5> 474 115<505 515 515 515>
LayerCount: 2
Fore
SplineSet
400 704 m 0xf4
 527 704 597 630 589 515 c 1
 588 505 l 1
 474 505 l 1
 474 515 l 1
 471 585 440 620 377 620 c 0xf4
 283 620 201 533 172 354 c 1
 228 423 l 1
 271 454 311 465 360 465 c 0
 488 465 553 386 553 277 c 0xf8
 553 102 410 -14 258 -14 c 0
 127 -14 45 63 45 222 c 0
 45 531 215 704 400 704 c 0xf4
320 381 m 0xf8
 238 381 159 313 159 195 c 0
 159 123 198 70 268 70 c 0
 358 70 431 149 431 258 c 0
 431 327 398 381 320 381 c 0xf8
EndSplineSet
EndChar

StartChar: seven
Encoding: 55 55 240
Width: 601
Flags: MW
HStem: 0 21G<47 172 47 47> 603 87<125 478 109 632>
VStem: 47 585
LayerCount: 2
Fore
SplineSet
632 690 m 1
 622 635 l 1
 172 0 l 1
 47 0 l 1
 478 603 l 1
 109 603 l 1
 125 690 l 1
 632 690 l 1
EndSplineSet
EndChar

StartChar: eight
Encoding: 56 56 241
Width: 601
Flags: MW
HStem: -15 84<227.5 320.5 227.5 323> 317 84<297 351> 620 84<326 402>
VStem: 29 119<141 209 141 212> 117 116<464.5 526 464.5 553> 426 118<174.5 243> 467 117<497.5 556>
LayerCount: 2
Fore
SplineSet
440 365 m 1xf4
 499 344 544 291 544 219 c 0
 544 54 396 -15 250 -15 c 0
 124 -15 29 34 29 157 c 0xf4
 29 267 112 339 199 365 c 1
 150 385 117 428 117 490 c 0
 117 616 224 704 384 704 c 0
 511 704 584 641 584 545 c 0xea
 584 450 516 389 440 365 c 1xf4
369 620 m 0xea
 283 620 233 561 233 491 c 0
 233 438 265 401 329 401 c 0
 415 401 467 458 467 531 c 0
 467 581 435 620 369 620 c 0xea
267 69 m 0xf4
 374 69 426 134 426 215 c 0
 426 271 392 317 310 317 c 0
 203 317 148 247 148 171 c 0
 148 111 188 69 267 69 c 0xf4
EndSplineSet
EndChar

StartChar: nine
Encoding: 57 57 242
Width: 601
Flags: MW
HStem: -14 84<211.5 290 211.5 313> 225 84<261 284.5> 620 84<307.5 387>
VStem: 31 115<176 186> 68 121<397.5 487 397.5 500.5> 461 114<436.5 532>
LayerCount: 2
Fore
SplineSet
362 704 m 0xec
 493 704 575 628 575 469 c 0
 575 159 405 -14 221 -14 c 0
 94 -14 23 60 31 176 c 1
 32 186 l 1
 146 186 l 1
 146 176 l 1
 149 105 180 70 243 70 c 0xf4
 337 70 419 157 449 337 c 1
 392 267 l 1
 350 237 309 225 260 225 c 0
 133 225 68 305 68 413 c 0
 68 588 210 704 362 704 c 0xec
300 309 m 0
 382 309 461 377 461 496 c 0
 461 568 422 620 352 620 c 0
 263 620 189 542 189 432 c 0
 189 363 222 309 300 309 c 0
EndSplineSet
EndChar

StartChar: colon
Encoding: 58 58 247
Width: 246
Flags: MW
HStem: -14 21G<43 85.5> -14 146<62.5 85.5> 399 146<135 158> 525 20G<135 177>
VStem: 1 147<47 71> 73 147<460 484>
LayerCount: 2
Fore
SplineSet
159 545 m 0x94
 195 545 220 521 220 486 c 0
 220 434 182 399 134 399 c 0xa4
 98 399 73 423 73 458 c 0
 73 510 111 545 159 545 c 0x94
87 132 m 0x58
 123 132 148 108 148 73 c 0
 148 21 110 -14 61 -14 c 0
 25 -14 1 10 1 45 c 0
 1 97 38 132 87 132 c 0x58
EndSplineSet
EndChar

StartChar: semicolon
Encoding: 59 59 259
Width: 246
Flags: MW
HStem: -121 239<-90 142 -90 142> 399 146<135 158> 525 20G<135 177>
VStem: 73 147<460 484>
LayerCount: 2
Fore
SplineSet
159 545 m 0xb0
 195 545 220 521 220 486 c 0
 220 434 182 399 134 399 c 0xd0
 98 399 73 423 73 458 c 0
 73 510 111 545 159 545 c 0xb0
140 104 m 1
 5 -121 l 1
 -90 -121 l 1
 31 118 l 1
 142 118 l 1
 140 104 l 1
EndSplineSet
EndChar

StartChar: less
Encoding: 60 60 298
Width: 601
Flags: MW
HStem: 28 475<480 563>
VStem: 96 467<223 503>
LayerCount: 2
Fore
SplineSet
549 418 m 1
 174 262 l 1
 494 106 l 1
 480 28 l 1
 96 223 l 1
 111 308 l 1
 563 503 l 1
 549 418 l 1
EndSplineSet
EndChar

StartChar: equal
Encoding: 61 61 293
Width: 601
Flags: MW
HStem: 184 64<65 491 53 502> 384 64<100 527 89 538>
VStem: 53 485<184 448>
LayerCount: 2
Fore
SplineSet
527 384 m 1
 89 384 l 1
 100 448 l 1
 538 448 l 1
 527 384 l 1
491 184 m 1
 53 184 l 1
 65 248 l 1
 502 248 l 1
 491 184 l 1
EndSplineSet
EndChar

StartChar: greater
Encoding: 62 62 294
Width: 601
Flags: MW
HStem: 28 475<34 117>
VStem: 34 468<28 308>
LayerCount: 2
Fore
SplineSet
502 308 m 1
 487 223 l 1
 34 28 l 1
 48 112 l 1
 424 268 l 1
 103 424 l 1
 117 503 l 1
 502 308 l 1
EndSplineSet
EndChar

StartChar: question
Encoding: 63 63 255
Width: 602
Flags: MW
HStem: -14 21G<233.5 276.5> -14 141<250 276.5> 620 84<334 396>
VStem: 191 144<46.5 66> 460 119<512.5 565.5>
LayerCount: 2
Fore
SplineSet
385 704 m 0xb8
 509 704 579 642 579 552 c 0
 579 469 543 411 435 320 c 0
 372 268 349 238 335 188 c 1
 234 188 l 1
 246 249 268 282 339 351 c 0
 437 445 460 486 460 539 c 0
 460 592 424 620 368 620 c 0
 300 620 248 579 231 489 c 1
 119 489 l 1
 141 623 247 704 385 704 c 0xb8
274 127 m 0x78
 312 127 335 104 335 69 c 0
 335 24 301 -14 252 -14 c 0
 215 -14 191 9 191 43 c 0
 191 89 226 127 274 127 c 0x78
EndSplineSet
EndChar

StartChar: at
Encoding: 64 64 315
Width: 872
Flags: MW
HStem: -112 68<327 445> 69 80<381 383> 73 68<608.5 652> 405 80<416 454.5 374.5 472 374.5 532> 606 68<387 547.5>
VStem: 49 74<152.5 363 152.5 376.5> 227 111<206 282 206 299> 509.21 22.79 739 74<267.5 422>
LayerCount: 2
Fore
SplineSet
649 467 m 1xbf80
 593 236 l 2
 587 208 586 195 586 184 c 0
 586 161 593 141 624 141 c 0
 682 141 739 203 739 332 c 0
 739 512 623 606 472 606 c 0
 302 606 123 478 123 248 c 0
 123 57 244 -44 410 -44 c 0
 492 -44 584 -19 654 32 c 1
 681 -26 l 1
 587 -89 486 -112 404 -112 c 0
 227 -112 49 -1 49 245 c 0
 49 508 258 674 475 674 c 0
 681 674 813 530 813 336 c 0
 813 149 704 73 600 73 c 0
 541 73 498 97 487 153 c 1xbf80
 463 106 l 1
 432 80 400 69 366 69 c 0xdf80
 301 69 227 108 227 232 c 0
 227 366 313 485 436 485 c 0
 473 485 504 474 521 455 c 1
 532 405 l 1
 550 467 l 1
 649 467 l 1xbf80
494 250 m 1
 504 297 l 1
 522 376 493 405 451 405 c 0
 381 405 338 325 338 239 c 0
 338 173 364 149 398 149 c 0xdf80
 445 149 481 198 494 250 c 1
EndSplineSet
EndChar

StartChar: A
Encoding: 65 65 1
Width: 661
GlyphClass: 2
Flags: MW
HStem: 0 21G<-24 98 -24 -24 493 493 493 612> 228 87<259 446 259 459 214 446> 597 93<403 403> 670 20G<345 495 495 495>
VStem: -24 636<0 0>
LayerCount: 2
Fore
SplineSet
459 228 m 1xd8
 214 228 l 1
 98 0 l 1
 -24 0 l 1
 345 690 l 1
 495 690 l 1
 612 0 l 1
 493 0 l 1
 459 228 l 1xd8
446 315 m 1
 403 597 l 1xe8
 259 315 l 1
 446 315 l 1
EndSplineSet
Position2: "'cpsp' Capital Spacing in Latin lookup 0 subtable" dx=5 dy=0 dh=10 dv=0
EndChar

StartChar: B
Encoding: 66 66 12
Width: 653
GlyphClass: 2
Flags: MW
HStem: 0 88<170 280> 314 85<225 340 210 344> 603 87<261 261 261 374>
VStem: 476 118<181 251> 504 119<496.5 546.5>
LayerCount: 2
Fore
SplineSet
478 368 m 1xf0
 554 346 594 297 594 216 c 0xf0
 594 81 478 20 372 5 c 0
 337 0 315 0 280 0 c 2
 44 0 l 1
 166 690 l 1
 389 690 l 2
 423 690 445 690 478 686 c 0
 572 673 623 623 623 544 c 0xe8
 623 449 569 394 478 368 c 1xf0
261 603 m 1
 225 399 l 1
 344 399 l 2
 362 399 378 400 397 403 c 0
 476 415 504 463 504 522 c 0
 504 571 472 595 426 600 c 0xe8
 409 602 390 603 374 603 c 2
 261 603 l 1
349 89 m 0xf0
 415 95 476 140 476 222 c 0
 476 280 441 304 391 311 c 0
 372 314 356 314 340 314 c 2
 210 314 l 1
 170 88 l 1
 301 88 l 2
 317 88 335 88 349 89 c 0xf0
EndSplineSet
Position2: "'cpsp' Capital Spacing in Latin lookup 0 subtable" dx=5 dy=0 dh=10 dv=0
EndChar

StartChar: C
Encoding: 67 67 13
Width: 729
GlyphClass: 2
Flags: MW
HStem: -14 84<295.5 398 295.5 419> 620 84<359.5 487.5>
VStem: 59 120 596 111<458 468 468 522>
AnchorPoint: "Anchor-0" 194 0 basechar 0
LayerCount: 2
Fore
SplineSet
450 704 m 0
 630 704 717 604 707 468 c 1
 706 458 l 1
 596 458 l 1
 596 468 l 2
 596 576 540 620 435 620 c 0
 284 620 179 476 179 282 c 0
 179 137 245 70 346 70 c 0
 450 70 513 131 548 224 c 1
 552 234 l 1
 662 234 l 1
 659 224 l 1
 619 82 509 -14 329 -14 c 0
 157 -14 58 95 59 271 c 1
 58 521 227 704 450 704 c 0
EndSplineSet
Position2: "'cpsp' Capital Spacing in Latin lookup 0 subtable" dx=5 dy=0 dh=10 dv=0
EndChar

StartChar: E
Encoding: 69 69 22
Width: 602
GlyphClass: 2
Flags: MW
HStem: 0 88<170 521> 302 87<223 537 207 552> 603 87<261 261 261 617>
VStem: 44 589
AnchorPoint: "Anchor-0" 260 0 basechar 0
LayerCount: 2
Fore
SplineSet
261 603 m 1
 223 389 l 1
 552 389 l 1
 537 302 l 1
 207 302 l 1
 170 88 l 1
 537 88 l 1
 521 0 l 1
 44 0 l 1
 166 690 l 1
 633 690 l 1
 617 603 l 1
 261 603 l 1
EndSplineSet
Position2: "'cpsp' Capital Spacing in Latin lookup 0 subtable" dx=5 dy=0 dh=10 dv=0
EndChar

StartChar: F
Encoding: 70 70 31
Width: 583
GlyphClass: 2
Flags: MW
HStem: 0 21G<44 154 44 44> 302 87<223 527 207 542> 603 87<261 261 261 617>
VStem: 44 589
LayerCount: 2
Fore
SplineSet
261 603 m 1
 223 389 l 1
 542 389 l 1
 527 302 l 1
 207 302 l 1
 154 0 l 1
 44 0 l 1
 166 690 l 1
 633 690 l 1
 617 603 l 1
 261 603 l 1
EndSplineSet
Position2: "'cpsp' Capital Spacing in Latin lookup 0 subtable" dx=5 dy=0 dh=10 dv=0
EndChar

StartChar: G
Encoding: 71 71 32
Width: 762
GlyphClass: 2
Flags: MW
HStem: -14 84<291.5 355> 0 21G<528 620 528 528> 254 88<419 557 403 680> 620 84<369.5 497.5>
VStem: 58 121<217.5 380 217.5 396.5> 599 111<458 468 468 522.5>
AnchorPoint: "Anchor-0" 301 0 basechar 0
LayerCount: 2
Fore
SplineSet
462 704 m 0xbc
 643 704 720 604 710 468 c 1
 709 458 l 1
 599 458 l 1
 599 468 l 2
 599 577 550 620 445 620 c 0
 294 620 179 477 179 283 c 0
 179 152 240 70 343 70 c 0xbc
 445 70 532 143 557 254 c 1
 403 254 l 1
 419 342 l 1
 680 342 l 1
 620 0 l 1
 528 0 l 1x7c
 544 116 l 1
 502 50 l 1
 455 8 394 -14 316 -14 c 0
 148 -14 58 102 58 269 c 0
 58 524 240 704 462 704 c 0xbc
EndSplineSet
Position2: "'cpsp' Capital Spacing in Latin lookup 0 subtable" dx=5 dy=0 dh=10 dv=0
EndChar

StartChar: H
Encoding: 72 72 36
Width: 737
GlyphClass: 2
Flags: MW
HStem: 0 21G<44 154 44 44 508 617 508 508> 294 89<222 560 206 576> 670 20G<166 276 276 276 630 739 739 739>
VStem: 44 695<0 690>
LayerCount: 2
Fore
SplineSet
739 690 m 1
 617 0 l 1
 508 0 l 1
 560 294 l 1
 206 294 l 1
 154 0 l 1
 44 0 l 1
 166 690 l 1
 276 690 l 1
 222 383 l 1
 576 383 l 1
 630 690 l 1
 739 690 l 1
EndSplineSet
Position2: "'cpsp' Capital Spacing in Latin lookup 0 subtable" dx=5 dy=0 dh=10 dv=0
EndChar

StartChar: I
Encoding: 73 73 38
Width: 274
GlyphClass: 2
Flags: MW
HStem: 0 21G<44 154 44 44> 670 20G<166 276 276 276>
VStem: 44 232
LayerCount: 2
Fore
SplineSet
154 0 m 1
 44 0 l 1
 166 690 l 1
 276 690 l 1
 154 0 l 1
EndSplineSet
Position2: "'cpsp' Capital Spacing in Latin lookup 0 subtable" dx=5 dy=0 dh=10 dv=0
EndChar

StartChar: J
Encoding: 74 74 47
Width: 554
GlyphClass: 2
Flags: MW
HStem: -14 84<193 266.5 193 291> 670 20G<455 565 565 565>
VStem: 17.84 111.89
LayerCount: 2
Fore
SplineSet
565 690 m 1
 491 273 l 2
 486 245 482 223 473 184 c 0
 446 67 369 -14 213 -14 c 0
 75 -14 1 70 21 204 c 1
 27 242 l 1
 136 242 l 1
 132 204 l 1
 120 110 156 70 230 70 c 0
 303 70 346 110 366 191 c 0
 371 212 375 236 382 268 c 1
 455 690 l 1
 565 690 l 1
EndSplineSet
Position2: "'cpsp' Capital Spacing in Latin lookup 0 subtable" dx=5 dy=0 dh=10 dv=0
EndChar

StartChar: K
Encoding: 75 75 48
Width: 651
GlyphClass: 2
Flags: MW
HStem: 0 21G<44 154 44 44 458 592 458 458> 670 20G<166 276 276 276 594 727 727 727>
VStem: 44 683
AnchorPoint: "Anchor-0" 291 0 basechar 0
LayerCount: 2
Fore
SplineSet
332 348 m 1
 592 0 l 1
 458 0 l 1
 251 291 l 1
 197 243 l 1
 154 0 l 1
 44 0 l 1
 166 690 l 1
 276 690 l 1
 218 360 l 1
 594 690 l 1
 727 690 l 1
 332 348 l 1
EndSplineSet
Position2: "'cpsp' Capital Spacing in Latin lookup 0 subtable" dx=5 dy=0 dh=10 dv=0
EndChar

StartChar: L
Encoding: 76 76 50
Width: 588
GlyphClass: 2
Flags: MW
HStem: 0 91<170 521> 670 20G<166 276 276 276>
VStem: 44 493<0 91>
AnchorPoint: "Anchor-0" 282 0 basechar 0
LayerCount: 2
Fore
SplineSet
537 91 m 1
 521 0 l 1
 44 0 l 1
 166 690 l 1
 276 690 l 1
 170 91 l 1
 537 91 l 1
EndSplineSet
Position2: "'cpsp' Capital Spacing in Latin lookup 0 subtable" dx=5 dy=0 dh=10 dv=0
EndChar

StartChar: M
Encoding: 77 77 56
Width: 878
GlyphClass: 2
Flags: MW
HStem: 0 21G<44 154 44 44 334 468 334 334 648 758 648 648> 0 114<422 422 422 468 334 422> 577 113<752 752> 588 102<256 256> 670 20G<166 346 346 346 698 880 880 880>
VStem: 44 836<0 690>
LayerCount: 2
Fore
SplineSet
880 690 m 1x8c
 758 0 l 1
 648 0 l 1
 752 577 l 1xa4
 468 0 l 1
 334 0 l 1
 256 588 l 1x94
 154 0 l 1
 44 0 l 1
 166 690 l 1
 346 690 l 1
 422 114 l 1x4c
 698 690 l 1
 880 690 l 1x8c
EndSplineSet
Position2: "'cpsp' Capital Spacing in Latin lookup 0 subtable" dx=5 dy=0 dh=10 dv=0
EndChar

StartChar: N
Encoding: 78 78 57
Width: 734
GlyphClass: 2
Flags: MW
HStem: 0 21G<44 154 44 44 457 614 457 457> 0 114<526 526 526 614 457 526> 571 119<253 253> 670 20G<166 321 321 321 627 736 736 736>
VStem: 44 692<0 690>
AnchorPoint: "Anchor-0" 331 0 basechar 0
LayerCount: 2
Fore
SplineSet
736 690 m 1x98
 614 0 l 1
 457 0 l 1
 253 571 l 1xa8
 154 0 l 1
 44 0 l 1
 166 690 l 1
 321 690 l 1
 526 114 l 1x58
 627 690 l 1
 736 690 l 1x98
EndSplineSet
Position2: "'cpsp' Capital Spacing in Latin lookup 0 subtable" dx=5 dy=0 dh=10 dv=0
EndChar

StartChar: P
Encoding: 80 80 73
Width: 616
GlyphClass: 2
Flags: MW
HStem: 0 21G<44 154 44 44> 272 89<218 318 202 337> 601 89<260 379 260 260>
VStem: 518 118<462.5 534>
LayerCount: 2
Fore
SplineSet
483 686 m 0
 574 674 636 617 636 519 c 0
 636 375 529 291 413 276 c 0
 379 272 355 272 318 272 c 2
 202 272 l 1
 154 0 l 1
 44 0 l 1
 166 690 l 1
 389 690 l 2
 426 690 451 690 483 686 c 0
407 365 m 0
 466 376 518 419 518 506 c 0
 518 562 488 590 449 597 c 0
 432 600 407 601 379 601 c 2
 260 601 l 1
 218 361 l 1
 337 361 l 2
 365 361 389 362 407 365 c 0
EndSplineSet
Position2: "'cpsp' Capital Spacing in Latin lookup 0 subtable" dx=5 dy=0 dh=10 dv=0
EndChar

StartChar: Q
Encoding: 81 81 75
Width: 766
GlyphClass: 2
Flags: MW
HStem: -14 84<303.5 365> 5 65<303.5 515.5> 620 84<347.5 495>
VStem: 60 118<219.5 359 219.5 390> 622 118<344 470.5>
LayerCount: 2
Fore
SplineSet
740 408 m 0xb8
 740 280 690 155 593 84 c 1
 631 74 663 53 696 22 c 1
 630 -51 l 1
 561 -7 535 5 496 5 c 0x78
 472 5 450 2 422 -6 c 0
 399 -12 376 -14 354 -14 c 0
 152 -14 60 118 60 283 c 0
 60 497 191 704 445 704 c 0
 647 704 740 573 740 408 c 0xb8
178 284 m 0
 178 155 245 70 362 70 c 0
 542 70 622 256 622 406 c 0
 622 535 553 620 437 620 c 0
 258 620 178 434 178 284 c 0
EndSplineSet
Position2: "'cpsp' Capital Spacing in Latin lookup 0 subtable" dx=5 dy=0 dh=10 dv=0
EndChar

StartChar: S
Encoding: 83 83 80
Width: 581
GlyphClass: 2
Flags: MW
HStem: -14 84<226.5 309 226.5 331.5> 620 84<310 387>
VStem: 98 120<479 542.5 479 548.5> 417 120<154.5 222.5> 465 114<494 494>
AnchorPoint: "Anchor-0" 260 0 basechar 0
LayerCount: 2
Fore
SplineSet
365 704 m 0xe8
 518 704 586 614 579 494 c 1
 465 494 l 1xe8
 471 573 427 620 347 620 c 0
 273 620 218 579 218 506 c 0
 218 452 256 424 347 402 c 0
 474 371 537 314 537 214 c 0
 537 72 411 -14 252 -14 c 0
 104 -14 7 61 17 200 c 1
 131 200 l 1
 134 115 186 70 267 70 c 0
 351 70 417 115 417 194 c 0xf0
 417 251 377 284 283 308 c 0
 172 336 98 381 98 477 c 0
 98 620 222 704 365 704 c 0xe8
EndSplineSet
Position2: "'cpsp' Capital Spacing in Latin lookup 0 subtable" dx=5 dy=0 dh=10 dv=0
EndChar

StartChar: T
Encoding: 84 84 85
Width: 618
GlyphClass: 2
Flags: MW
HStem: 0 21G<223 333 223 223> 603 87<105 330 89 695 440 679 440 440>
VStem: 89 606<603 690>
AnchorPoint: "Anchor-0" 278 0 basechar 0
LayerCount: 2
Fore
SplineSet
679 603 m 1
 440 603 l 1
 333 0 l 1
 223 0 l 1
 330 603 l 1
 89 603 l 1
 105 690 l 1
 695 690 l 1
 679 603 l 1
EndSplineSet
Position2: "'cpsp' Capital Spacing in Latin lookup 0 subtable" dx=5 dy=0 dh=10 dv=0
EndChar

StartChar: U
Encoding: 85 85 90
Width: 692
GlyphClass: 2
Flags: MW
HStem: -14 84<282 375.5 282 404.5> 670 20G<163 273 273 273 595 705 705 705>
VStem: 80 110<153 197>
LayerCount: 2
Fore
SplineSet
705 690 m 1
 631 272 l 2
 626 244 622 224 616 199 c 0
 584 66 494 -14 315 -14 c 0
 157 -14 80 60 80 181 c 0
 80 213 84 241 91 280 c 2
 163 690 l 1
 273 690 l 1
 199 270 l 2
 192 230 190 214 190 190 c 0
 190 116 237 70 327 70 c 0
 424 70 482 109 509 209 c 0
 513 225 517 244 521 265 c 2
 595 690 l 1
 705 690 l 1
EndSplineSet
Position2: "'cpsp' Capital Spacing in Latin lookup 0 subtable" dx=5 dy=0 dh=10 dv=0
EndChar

StartChar: V
Encoding: 86 86 99
Width: 675
GlyphClass: 2
Flags: MW
HStem: 0 21G<224 374 224 224> 0 84<314 314 314 374> 670 20G<107 226 226 226 621 743 743 743>
VStem: 107 636<690 690>
LayerCount: 2
Fore
SplineSet
374 0 m 1xb0
 224 0 l 1
 107 690 l 1
 226 690 l 1
 314 84 l 1x70
 621 690 l 1
 743 690 l 1
 374 0 l 1xb0
EndSplineSet
Position2: "'cpsp' Capital Spacing in Latin lookup 0 subtable" dx=5 dy=0 dh=10 dv=0
EndChar

StartChar: X
Encoding: 88 88 105
Width: 646
GlyphClass: 2
Flags: MW
HStem: 0 21G<-34 96 -34 -34 467 597 467 467> 670 20G<105 229 229 229 578 707 707 707>
VStem: -34 741<0 690>
LayerCount: 2
Fore
SplineSet
404 349 m 1
 597 0 l 1
 467 0 l 1
 325 277 l 1
 96 0 l 1
 -34 0 l 1
 276 353 l 1
 105 690 l 1
 229 690 l 1
 356 425 l 1
 578 690 l 1
 707 690 l 1
 404 349 l 1
EndSplineSet
Position2: "'cpsp' Capital Spacing in Latin lookup 0 subtable" dx=5 dy=0 dh=10 dv=0
EndChar

StartChar: Z
Encoding: 90 90 111
Width: 605
GlyphClass: 2
Flags: MW
HStem: 0 88<155 534> 603 87<151 499 135 651>
VStem: 1 650
LayerCount: 2
Fore
SplineSet
636 604 m 1
 155 88 l 1
 550 88 l 1
 534 0 l 1
 1 0 l 1
 16 84 l 1
 499 603 l 1
 135 603 l 1
 151 690 l 1
 651 690 l 1
 636 604 l 1
EndSplineSet
Position2: "'cpsp' Capital Spacing in Latin lookup 0 subtable" dx=5 dy=0 dh=10 dv=0
EndChar

StartChar: bracketleft
Encoding: 91 91 264
Width: 333
Flags: MW
HStem: -80 66<104 214> 714 66<233 355 233 233>
VStem: 24 342
LayerCount: 2
Fore
SplineSet
176 780 m 1
 366 780 l 1
 355 714 l 1
 233 714 l 1
 104 -14 l 1
 226 -14 l 1
 214 -80 l 1
 24 -80 l 1
 176 780 l 1
EndSplineSet
EndChar

StartChar: backslash
Encoding: 92 92 245
Width: 314
Flags: MW
HStem: -30 750<72 263 72 191>
VStem: 72 191
LayerCount: 2
Fore
SplineSet
263 -30 m 1
 191 -30 l 1
 72 720 l 1
 144 720 l 1
 263 -30 l 1
EndSplineSet
EndChar

StartChar: bracketright
Encoding: 93 93 265
Width: 333
Flags: MW
HStem: -80 66<-8 114 -8 171 -20 114> 714 66<133 243 121 323>
VStem: -20 343
LayerCount: 2
Fore
SplineSet
171 -80 m 1
 -20 -80 l 1
 -8 -14 l 1
 114 -14 l 1
 243 714 l 1
 121 714 l 1
 133 780 l 1
 323 780 l 1
 171 -80 l 1
EndSplineSet
EndChar

StartChar: asciicircum
Encoding: 94 94 314
Width: 601
Flags: MW
HStem: 550 66<330 330>
VStem: 55 429<215 215>
LayerCount: 2
Fore
SplineSet
406 215 m 1
 330 550 l 1
 136 215 l 1
 55 215 l 1
 299 616 l 1
 380 616 l 1
 484 215 l 1
 406 215 l 1
EndSplineSet
EndChar

StartChar: underscore
Encoding: 95 95 261
Width: 500
Flags: MW
HStem: -87 66<56 444 44 456>
VStem: 44 412<-87 -21>
LayerCount: 2
Fore
SplineSet
444 -87 m 1
 44 -87 l 1
 56 -21 l 1
 456 -21 l 1
 444 -87 l 1
EndSplineSet
EndChar

StartChar: grave
Encoding: 96 96 333
Width: 300
Flags: MW
HStem: 577 114<115 133 33 181 115 115>
VStem: 33 148<577 691>
LayerCount: 2
Fore
SplineSet
181 577 m 1
 115 577 l 1
 33 691 l 1
 133 691 l 1
 181 577 l 1
EndSplineSet
EndChar

StartChar: a
Encoding: 97 97 115
Width: 527
GlyphClass: 2
Flags: MW
HStem: -14 80<120 240.5> 0 66 251.95 69.05 465 80<269 336>
VStem: 12 117<114.5 183 114.5 197.5> 330.5 106.5 384 110<397.5 416>
LayerCount: 2
Fore
SplineSet
314 545 m 0xba
 442 545 494 489 494 410 c 0
 494 385 490 357 484 321 c 2xba
 451 135 l 2
 444 95 440 59 437 0 c 1
 329 0 l 1
 332 76 l 1x7c
 296 27 l 1xbc
 262 -3 215 -14 158 -14 c 0
 82 -14 12 30 12 125 c 0
 12 270 163 336 375 321 c 1
 377 333 l 2
 382 365 384 382 384 397 c 0
 384 435 364 465 308 465 c 0
 230 465 194 429 179 363 c 1
 69 363 l 1
 92 479 187 545 314 545 c 0xba
353 199 m 2
 362 249 l 1
 236 263 129 228 129 138 c 0
 129 91 162 66 211 66 c 0
 270 66 338 120 353 199 c 2
EndSplineSet
Substitution2: "'salt' Stylistic Alternatives in Latin lookup 5 subtable" a.alt
EndChar

StartChar: b
Encoding: 98 98 126
Width: 630
GlyphClass: 2
Flags: MW
HStem: -14 80<270 357 244.5 398.5> 0 66 465 80<378 408.5> 715 20G<153 263 263 263>
VStem: 147 25.33 488 118<256 364>
LayerCount: 2
Fore
SplineSet
405 545 m 0xb4
 538 545 606 456 606 330 c 0
 606 162 505 -14 292 -14 c 0
 248 -14 195 2 172 26 c 1
 147 80 l 1xbc
 133 0 l 1
 23 0 l 1x7c
 153 735 l 1
 263 735 l 1
 212 449 l 1
 262 505 l 1
 296 530 351 545 405 545 c 0xb4
296 66 m 0
 418 66 488 192 488 320 c 0
 488 408 448 465 369 465 c 0
 287 465 206 413 181 271 c 1
 176 244 l 1xbc
 160 152 193 66 296 66 c 0
EndSplineSet
EndChar

StartChar: c
Encoding: 99 99 127
Width: 550
GlyphClass: 2
Flags: MW
HStem: -14 80<218 281.5 218 303> 464 80<267.5 352>
VStem: 24 118<155 278 155 290> 424 111<346 346>
AnchorPoint: "Anchor-0" 226 0 basechar 0
LayerCount: 2
Fore
SplineSet
334 544 m 0
 471 544 534 464 535 346 c 1
 424 346 l 1
 421 426 385 464 319 464 c 0
 216 464 142 354 142 202 c 0
 142 108 188 66 248 66 c 0
 315 66 368 104 396 176 c 1
 508 176 l 1
 457 49 371 -14 235 -14 c 0
 113 -14 24 56 24 200 c 0
 24 380 137 544 334 544 c 0
EndSplineSet
EndChar

StartChar: d
Encoding: 100 100 132
Width: 629
GlyphClass: 2
Flags: MW
HStem: -14 80<222.5 252> 0 66 465 80<273.5 361 232.5 386> 715 20G<534 643 643 643>
VStem: 24 118<167 275 167 285> 458.36 25.64
LayerCount: 2
Fore
SplineSet
643 735 m 1xbc
 513 0 l 1
 404 0 l 1
 419 83 l 1x7c
 368 26 l 1
 335 2 279 -14 225 -14 c 0
 93 -14 24 75 24 201 c 0
 24 369 126 545 339 545 c 0
 383 545 436 529 459 506 c 1
 484 452 l 1
 534 735 l 1
 643 735 l 1xbc
450 260 m 2
 455 288 l 1
 470 379 438 465 334 465 c 0
 213 465 142 339 142 211 c 0
 142 123 183 66 262 66 c 0xbc
 344 66 425 119 450 260 c 2
EndSplineSet
EndChar

StartChar: e
Encoding: 101 101 136
Width: 558
GlyphClass: 2
Flags: MW
HStem: -14 80<218 282 218 295> 235 77<154 425 154 521 141 425> 465 80<269 348.5>
VStem: 24 116<153 205.5 153 281.5> 426 111<337.5 381>
AnchorPoint: "Anchor-0" 233 0 basechar 0
LayerCount: 2
Fore
SplineSet
521 235 m 1
 141 235 l 1
 140 223 140 211 140 200 c 0
 140 106 186 66 250 66 c 0
 314 66 371 105 393 172 c 1
 505 172 l 1
 462 46 354 -14 236 -14 c 0
 113 -14 24 57 24 198 c 0
 24 365 121 545 326 545 c 0
 462 545 537 461 537 342 c 0
 537 308 531 267 521 235 c 1
313 465 m 0
 225 465 176 395 154 312 c 1
 425 312 l 1
 426 323 426 333 426 342 c 0
 426 420 384 465 313 465 c 0
EndSplineSet
EndChar

StartChar: f
Encoding: 102 102 145
Width: 292
GlyphClass: 2
Flags: MW
HStem: 0 21G<30 139 30 30> 450 77<75 109 61 122 231 327> 670 78<315 389>
VStem: 30 359
LayerCount: 2
Fore
SplineSet
252 618 m 0
 245 597 241 582 238 567 c 2
 231 527 l 1
 340 527 l 1
 327 450 l 1
 218 450 l 1
 139 0 l 1
 30 0 l 1
 109 450 l 1
 61 450 l 1
 75 527 l 1
 122 527 l 1
 128 561 l 2
 132 582 137 606 143 624 c 0
 168 709 226 754 306 754 c 0
 345 754 369 752 389 748 c 1
 374 666 l 1
 361 669 348 670 337 670 c 0
 293 670 264 652 252 618 c 0
EndSplineSet
EndChar

StartChar: g
Encoding: 103 103 146
Width: 629
GlyphClass: 2
Flags: MW
HStem: -213 83<184 273 184 296.5> -13 81<222.5 252> 465 66 465 80<273.5 361 232.5 386>
VStem: -5 109<-35 -34> 24 118<167 275 167 285> 458.36 25.64
LayerCount: 2
Fore
SplineSet
608 531 m 1xe6
 537 132 l 2
 531 99 524 58 518 29 c 0
 484 -132 384 -213 209 -213 c 0
 71 -213 -14 -149 -5 -35 c 1
 -4 -25 l 1
 105 -25 l 1
 104 -34 l 1xd8
 101 -91 143 -130 225 -130 c 0
 321 -130 385 -78 406 17 c 1
 410 40 415 59 418 78 c 2
 419 85 l 1
 368 27 l 1
 335 3 279 -13 225 -13 c 0
 93 -13 24 78 24 201 c 0
 24 369 126 545 339 545 c 0
 383 545 436 529 459 506 c 1
 484 452 l 1xd6
 498 531 l 1
 608 531 l 1xe6
262 68 m 0
 344 68 425 119 450 260 c 1
 450 258 l 1
 455 289 l 1
 455 288 l 1
 470 379 438 465 334 465 c 0
 213 465 142 339 142 211 c 0xd6
 142 123 183 68 262 68 c 0
EndSplineSet
EndChar

StartChar: h
Encoding: 104 104 150
Width: 607
GlyphClass: 2
Flags: MW
HStem: 0 21G<23 133 23 23 385 494 385 385> 464 81 720 20G<153 263 263 263>
VStem: 447 114<395 402>
LayerCount: 2
Fore
SplineSet
399 545 m 0
 508 545 561 491 561 409 c 0
 561 381 559 360 548 301 c 2
 494 0 l 1
 385 0 l 1
 436 286 l 2
 444 329 447 355 447 376 c 0
 447 428 422 465 352 464 c 0
 275 462 204 403 174 237 c 1
 133 0 l 1
 23 0 l 1
 153 740 l 1
 263 740 l 1
 211 445 l 1
 258 504 l 1
 306 536 347 545 399 545 c 0
EndSplineSet
EndChar

StartChar: i
Encoding: 105 105 152
Width: 248
GlyphClass: 2
Flags: MW
HStem: 0 21G<23 133 23 23> 511 20G<117 227 227 227> 589 127<183 208.5>
VStem: 130 131<643.5 662.5>
LayerCount: 2
Fore
SplineSet
205 716 m 0
 239 716 261 694 261 663 c 0
 261 624 231 589 186 589 c 0
 152 589 130 611 130 643 c 0
 130 682 161 716 205 716 c 0
133 0 m 1
 23 0 l 1
 117 531 l 1
 227 531 l 1
 133 0 l 1
EndSplineSet
EndChar

StartChar: j
Encoding: 106 106 161
Width: 220
GlyphClass: 2
Flags: MW
HStem: -210 85<-100 -19.5> 511 20G<102 211 211 211> 589 127<163 190>
VStem: 111 131<641 664>
LayerCount: 2
Fore
SplineSet
185 716 m 0
 220 716 242 694 242 663 c 0
 242 619 212 589 168 589 c 0
 133 589 111 611 111 642 c 0
 111 686 141 716 185 716 c 0
211 531 m 1
 113 -31 l 2
 109 -51 104 -77 99 -95 c 0
 79 -168 31 -210 -70 -210 c 0
 -87 -210 -101 -210 -115 -208 c 1
 -100 -125 l 1
 -50 -131 -20 -116 -9 -80 c 0
 -4 -66 -1 -50 4 -26 c 2
 102 531 l 1
 211 531 l 1
EndSplineSet
EndChar

StartChar: k
Encoding: 107 107 162
Width: 548
GlyphClass: 2
Flags: MW
HStem: 0 21G<23 133 23 23 376 508 376 376> 511 20G<459 594 594 594> 715 20G<153 263 263 263>
VStem: 23 571<0 531>
AnchorPoint: "Anchor-0" 239 0 basechar 0
LayerCount: 2
Fore
SplineSet
309 281 m 1
 508 0 l 1
 376 0 l 1
 226 224 l 1
 163 169 l 1
 133 0 l 1
 23 0 l 1
 153 735 l 1
 263 735 l 1
 183 280 l 1
 459 531 l 1
 594 531 l 1
 309 281 l 1
EndSplineSet
EndChar

StartChar: l
Encoding: 108 108 164
Width: 263
GlyphClass: 2
Flags: MW
HStem: -6 80<95 206> 715 20G<149 258 258 258>
VStem: 34 116<37 116>
AnchorPoint: "Anchor-0" 87 0 basechar 0
LayerCount: 2
Fore
SplineSet
258 735 m 1
 157 162 l 2
 152 136 150 122 150 110 c 0
 150 76 167 71 206 74 c 1
 193 -1 l 1
 171 -4 148 -6 123 -6 c 0
 67 -6 34 10 34 64 c 0
 34 83 37 106 47 159 c 2
 149 735 l 1
 258 735 l 1
EndSplineSet
EndChar

StartChar: m
Encoding: 109 109 170
Width: 883
GlyphClass: 2
Flags: MW
HStem: 0 21G<23 133 23 23 343 452 343 343 662 772 662 662> 464 67<116 348.5> 464 81<290.5 419.5>
VStem: 724 116<403 410.5>
LayerCount: 2
Fore
SplineSet
695 545 m 0xb0
 794 545 840 489 840 417 c 0
 840 389 836 365 828 321 c 2
 772 0 l 1
 662 0 l 1
 712 281 l 2
 719 325 724 357 724 384 c 0
 724 437 695 464 643 464 c 0
 582 464 523 391 501 276 c 1
 499 267 l 1
 452 0 l 1
 343 0 l 1
 392 281 l 2
 400 326 405 357 405 384 c 0
 405 437 375 464 322 464 c 0xb0
 259 464 201 388 180 267 c 2
 133 0 l 1
 23 0 l 1
 116 531 l 1
 226 531 l 1
 213 455 l 1xd0
 259 514 l 1
 292 536 330 545 378 545 c 0
 461 545 506 504 517 447 c 1
 574 512 l 1
 608 536 647 545 695 545 c 0xb0
EndSplineSet
EndChar

StartChar: p
Encoding: 112 112 187
Width: 630
GlyphClass: 2
Flags: MW
HStem: -14 80<270 357 244.5 398.5> 465 66 465 80<378 408.5>
VStem: 147 25.33 488 118<256 364>
LayerCount: 2
Fore
SplineSet
405 545 m 0xa8
 538 545 606 456 606 330 c 0
 606 162 505 -14 292 -14 c 0
 248 -14 195 2 172 26 c 1
 147 80 l 1
 98 -196 l 1
 -12 -196 l 1
 117 531 l 1
 227 531 l 1
 212 449 l 1xd8
 262 505 l 1
 296 530 351 545 405 545 c 0xa8
296 66 m 0
 418 66 488 192 488 320 c 0
 488 408 448 465 369 465 c 0
 287 465 206 413 181 271 c 1
 176 244 l 1xb8
 160 152 193 66 296 66 c 0
EndSplineSet
EndChar

StartChar: t
Encoding: 116 116 200
Width: 326
GlyphClass: 2
Flags: MW
HStem: -10 81.84 -10 85<127.5 258> 450 77<57 116 43 130 239 322>
VStem: 54 115<45 121>
AnchorPoint: "Anchor-0" 132 0 basechar 0
LayerCount: 2
Fore
SplineSet
225 450 m 1xb0
 176 172 l 2
 170 139 169 127 169 115 c 0xb0
 169 75 197 66 258 75 c 1x70
 244 0 l 1
 220 -6 192 -10 165 -10 c 0
 90 -10 54 16 54 74 c 0
 54 91 57 117 65 162 c 2
 116 450 l 1
 43 450 l 1
 57 527 l 1
 130 527 l 1
 152 654 l 1
 261 654 l 1
 239 527 l 1
 336 527 l 1
 322 450 l 1
 225 450 l 1xb0
EndSplineSet
EndChar

StartChar: v
Encoding: 118 118 214
Width: 517
GlyphClass: 2
Flags: MW
HStem: 0 21G<143 275 143 143> 0 88<225 225 225 275 143 225> 511 20G<34 158 158 158 449 572 572 572>
VStem: 34 538<531 531>
LayerCount: 2
Fore
SplineSet
572 531 m 1xb0
 275 0 l 1
 143 0 l 1
 34 531 l 1
 158 531 l 1
 225 88 l 1x70
 449 531 l 1
 572 531 l 1xb0
EndSplineSet
EndChar

StartChar: w
Encoding: 119 119 215
Width: 781
GlyphClass: 2
Flags: MW
HStem: 0 21G<109 237 109 109 447 574 447 447> 0 102<533 533 533 574 447 533> 428 102<417 417> 510 20G<367 503 503 503> 511 20G<34 158 158 158 718 837 837 837>
VStem: 34 803<531 531>
LayerCount: 2
Fore
SplineSet
837 531 m 1x8c
 574 0 l 1
 447 0 l 1
 417 428 l 1xa4
 237 0 l 1
 109 0 l 1
 34 531 l 1
 158 531 l 1x8c
 192 104 l 1
 367 530 l 1
 503 530 l 1
 533 102 l 1x54
 718 531 l 1
 837 531 l 1x8c
EndSplineSet
EndChar

StartChar: x
Encoding: 120 120 220
Width: 500
GlyphClass: 2
Flags: MW
HStem: 0 21G<-55 73 -55 -55 323 452 323 323> 511 20G<48 177 177 177 417 546 546 546>
VStem: -55 601<0 531>
LayerCount: 2
Fore
SplineSet
308 265 m 1
 452 0 l 1
 323 0 l 1
 230 189 l 1
 73 0 l 1
 -55 0 l 1
 181 265 l 1
 48 531 l 1
 177 531 l 1
 260 340 l 1
 417 531 l 1
 546 531 l 1
 308 265 l 1
EndSplineSet
EndChar

StartChar: y
Encoding: 121 121 221
Width: 517
GlyphClass: 2
Flags: MW
HStem: -210 82<17 48 17 76.5> 511 20G<34 158 158 158 449 572 572 572>
VStem: -26 598
LayerCount: 2
Fore
SplineSet
572 531 m 1
 275 0 l 2
 185 -161 129 -210 24 -210 c 0
 6 -210 -11 -209 -26 -206 c 1
 -13 -125 l 1
 0 -127 11 -128 23 -128 c 0
 73 -128 107 -107 141 -43 c 2
 149 -28 l 1
 34 531 l 1
 158 531 l 1
 225 85 l 1
 449 531 l 1
 572 531 l 1
EndSplineSet
EndChar

StartChar: z
Encoding: 122 122 226
Width: 491
GlyphClass: 2
Flags: MW
HStem: 0 79<126 414> 448 79<96 358 82 501 487 487>
VStem: -19 520
LayerCount: 2
Fore
SplineSet
487 448 m 1
 126 79 l 1
 428 79 l 1
 414 0 l 1
 -19 0 l 1
 -6 76 l 1
 358 448 l 1
 82 448 l 1
 96 527 l 1
 501 527 l 1
 487 448 l 1
EndSplineSet
EndChar

StartChar: braceleft
Encoding: 123 123 262
Width: 335
Flags: MW
HStem: -80 66<164.5 236 222 224> 714 66<316 376 355 365>
VStem: 83 70<9.5 26.5> 149 70<256.5 277.5> 193 69
LayerCount: 2
Fore
SplineSet
376 780 m 1xc8
 365 714 l 1
 350 714 l 2
 282 714 260 696 262 570 c 0xc8
 264 451 241 365 147 350 c 1
 194 343 219 316 219 272 c 0xd0
 219 241 213 206 184 130 c 0
 158 61 153 42 153 22 c 0
 153 -3 173 -14 222 -14 c 2
 236 -14 l 1
 224 -80 l 1
 203 -80 l 2
 126 -80 83 -54 83 12 c 0xe8
 83 41 88 60 119 140 c 0
 143 204 149 239 149 262 c 0
 149 293 130 313 78 317 c 1xd0
 90 383 l 1
 167 390 195 414 193 560 c 0
 191 734 228 780 355 780 c 2
 376 780 l 1xc8
EndSplineSet
EndChar

StartChar: bar
Encoding: 124 124 316
Width: 271
Flags: MW
HStem: -200 1000<10 259 10 259>
VStem: 10 249
LayerCount: 2
Fore
SplineSet
83 -200 m 1
 10 -200 l 1
 186 800 l 1
 259 800 l 1
 83 -200 l 1
EndSplineSet
EndChar

StartChar: braceright
Encoding: 125 125 263
Width: 335
Flags: MW
HStem: -80 66<-7 2 -19 8> 714 66<133 136 122 154>
VStem: 96 69 138 71<423 443.5> 205 70<673.5 690.5>
LayerCount: 2
Fore
SplineSet
209 438 m 0xd0
 209 408 227 388 279 383 c 1xd0
 268 317 l 1
 191 311 163 286 165 140 c 0
 167 -34 130 -80 2 -80 c 2
 -19 -80 l 1
 -7 -14 l 1
 8 -14 l 2
 76 -14 98 4 96 130 c 0xe0
 94 249 117 335 209 351 c 1
 163 359 138 385 138 428 c 0xd0
 138 459 145 494 174 570 c 0
 200 640 205 658 205 678 c 0
 205 703 185 714 136 714 c 2
 122 714 l 1
 133 780 l 1
 154 780 l 2
 232 780 275 754 275 688 c 0xe8
 275 659 270 640 239 560 c 0
 215 496 209 462 209 438 c 0xd0
EndSplineSet
EndChar

StartChar: asciitilde
Encoding: 126 126 290
Width: 601
Flags: MW
HStem: 223 70<385.5 417 385.5 423.5> 299 70<168.5 200>
VStem: 60 467<223 369>
LayerCount: 2
Fore
SplineSet
461 369 m 1
 527 369 l 1
 510 273 462 223 385 223 c 0xa0
 345 223 321 237 274 264 c 1
 238 286 213 299 187 299 c 0
 150 299 135 271 126 223 c 1
 60 223 l 1
 76 319 124 369 201 369 c 0x60
 242 369 266 355 312 328 c 0
 348 307 372 293 399 293 c 0
 435 293 451 319 461 369 c 1
EndSplineSet
EndChar

StartChar: exclamdown
Encoding: 161 161 251
Width: 265
Flags: MW
HStem: 405 140<152.5 179>
VStem: 94 144<465.5 484.5>
LayerCount: 2
Fore
SplineSet
155 405 m 0
 117 405 94 428 94 462 c 0
 94 507 128 545 177 545 c 0
 214 545 238 522 238 488 c 0
 238 443 203 405 155 405 c 0
97 344 m 1
 190 344 l 1
 102 -159 l 1
 -15 -159 l 1
 97 344 l 1
EndSplineSet
EndChar

StartChar: cent
Encoding: 162 162 283
Width: 601
Flags: MW
HStem: -12 21G<209 209> 522 20G<307 307 376 376>
VStem: 33 118<164 269 164 284.5> 434 111<346 400>
LayerCount: 2
Fore
SplineSet
362 460 m 1
 292 70 l 1
 343 81 382 117 405 176 c 1
 517 176 l 1
 470 60 394 -3 278 -13 c 1
 264 -90 l 1
 195 -90 l 1
 209 -12 l 1
 105 1 33 70 33 200 c 0
 33 369 132 523 307 542 c 1
 321 620 l 1
 390 620 l 1
 376 542 l 1
 492 531 545 454 545 346 c 1
 434 346 l 1
 432 412 407 449 362 460 c 1
151 202 m 0
 151 126 181 84 224 71 c 1
 292 459 l 1
 208 437 151 336 151 202 c 0
EndSplineSet
EndChar

StartChar: sterling
Encoding: 163 163 287
Width: 593
Flags: MW
HStem: 0 88<142 485> 310 64<67 115 67 133 56 115 251 251 251 438> 620 84<300 368.5>
VStem: 101 117<462.5 523.5 462.5 538> 142 113<228 259> 436 114<504 504>
LayerCount: 2
Fore
SplineSet
255 265 m 0xec
 255 191 227 131 142 88 c 1
 500 88 l 1
 485 0 l 1
 -8 0 l 1
 6 78 l 1
 114 101 142 188 142 250 c 0
 142 268 139 288 133 310 c 1
 56 310 l 1
 67 374 l 1xec
 115 374 l 1
 107 405 101 438 101 481 c 0
 101 595 186 704 348 704 c 0
 497 704 543 611 550 504 c 1
 436 504 l 1
 432 581 402 620 335 620 c 0
 265 620 218 562 218 485 c 0
 218 440 226 413 238 374 c 1xf4
 449 374 l 1
 438 310 l 1
 251 310 l 1
 254 294 255 279 255 265 c 0xec
EndSplineSet
EndChar

StartChar: currency
Encoding: 164 164 284
Width: 601
Flags: MW
HStem: 121 67<251.5 289> 414 67<298.5 334.5>
VStem: 116 71<269.5 305> 400 72<297 333 297 344>
LayerCount: 2
Fore
SplineSet
522 459 m 1
 452 400 l 1
 465 376 472 348 472 318 c 0
 472 276 456 229 425 192 c 1
 469 138 l 1
 419 96 l 1
 374 149 l 1
 345 132 310 121 268 121 c 0
 230 121 197 134 171 157 c 1
 104 100 l 1
 67 145 l 1
 135 203 l 1
 123 227 116 255 116 284 c 0
 116 326 131 373 162 411 c 1
 119 464 l 1
 170 507 l 1
 215 455 l 1
 243 472 278 481 319 481 c 0
 357 481 390 467 415 445 c 1
 485 504 l 1
 522 459 l 1
187 290 m 0
 187 227 225 188 278 188 c 0
 356 188 400 253 400 313 c 0
 400 375 361 414 308 414 c 0
 230 414 187 349 187 290 c 0
EndSplineSet
EndChar

StartChar: yen
Encoding: 165 165 288
Width: 601
Flags: MW
HStem: 0 21G<178 288 178 178> 169 66<61 208 49 219 329 476> 297 66<83 203 83 228 71 203 395 499> 670 20G<81 205 205 205 514 635 635 635>
VStem: 49 586<169 690>
LayerCount: 2
Fore
SplineSet
395 363 m 1
 511 363 l 1
 499 297 l 1
 346 297 l 1
 338 286 l 1
 329 235 l 1
 488 235 l 1
 476 169 l 1
 318 169 l 1
 288 0 l 1
 178 0 l 1
 208 169 l 1
 49 169 l 1
 61 235 l 1
 219 235 l 1
 229 292 l 1
 228 297 l 1
 71 297 l 1
 83 363 l 1
 203 363 l 1
 81 690 l 1
 205 690 l 1
 301 367 l 1
 514 690 l 1
 635 690 l 1
 395 363 l 1
EndSplineSet
EndChar

StartChar: brokenbar
Encoding: 166 166 317
Width: 267
Flags: MW
HStem: 670 20G<167 236 236 236>
VStem: 17 219
LayerCount: 2
Fore
SplineSet
176 350 m 1
 107 350 l 1
 167 690 l 1
 236 690 l 1
 176 350 l 1
86 -160 m 1
 17 -160 l 1
 77 180 l 1
 146 180 l 1
 86 -160 l 1
EndSplineSet
EndChar

StartChar: section
Encoding: 167 167 324
Width: 586
Flags: MW
HStem: -174 77<206.5 262 206.5 286.5> 627 77<317.5 367.5>
VStem: 36 117<268.5 314.5 268.5 316> 142 117<514.5 562.5 511.5 572> 335 117<-39 17> 428 112<535 535> 436 117<218.5 267>
LayerCount: 2
Fore
SplineSet
553 250 m 0xd2
 553 183 508 118 425 89 c 1
 443 64 452 36 452 2 c 0
 452 -106 354 -174 219 -174 c 0
 116 -174 28 -119 18 2 c 1
 130 2 l 1
 136 -67 182 -97 231 -97 c 0
 293 -97 335 -69 335 -9 c 0
 335 43 302 72 201 108 c 0
 102 144 36 189 36 283 c 0xe8
 36 349 76 415 165 447 c 1
 150 470 142 498 142 531 c 0
 142 613 213 704 352 704 c 0
 466 704 530 637 540 535 c 1
 428 535 l 1xd4
 423 593 393 627 342 627 c 0
 293 627 259 590 259 535 c 0
 259 488 293 457 373 434 c 0
 495 398 553 340 553 250 c 0xd2
352 152 m 1
 405 160 436 195 436 242 c 0
 436 292 398 320 315 349 c 0
 286 359 258 370 234 383 c 1
 178 372 153 335 153 294 c 0xe2
 153 243 195 215 264 190 c 0
 297 179 326 166 352 152 c 1
EndSplineSet
EndChar

StartChar: dieresis
Encoding: 168 168 331
Width: 300
Flags: MW
HStem: 580 105<61 75 221 235>
VStem: 14 108<623.5 641.5> 174 108<623.5 641.5>
LayerCount: 2
Fore
SplineSet
76 685 m 0
 104 685 122 667 122 641 c 0
 122 606 90 580 60 580 c 0
 32 580 14 598 14 624 c 0
 14 659 46 685 76 685 c 0
236 685 m 0
 263 685 282 667 282 641 c 0
 282 606 250 580 220 580 c 0
 192 580 174 598 174 624 c 0
 174 659 206 685 236 685 c 0
EndSplineSet
EndChar

StartChar: copyright
Encoding: 169 169 318
Width: 844
Flags: MW
HStem: -38 68<331.5 512 331.5 533> 125 76<395 454 395 481.5> 509 76<391.5 457.5> 680 68<331.5 512>
VStem: 31 74<262 447.5 262 467> 209 111<307.5 402.5 307.5 425> 739 74<262 447.5>
LayerCount: 2
Fore
SplineSet
422 748 m 0
 644 748 813 579 813 355 c 0
 813 131 644 -38 422 -38 c 0
 200 -38 31 131 31 355 c 0
 31 579 200 748 422 748 c 0
422 680 m 0
 241 680 105 540 105 355 c 0
 105 169 241 30 422 30 c 0
 602 30 739 169 739 355 c 0
 739 540 602 680 422 680 c 0
429 585 m 0
 543 585 613 517 630 417 c 1
 524 417 l 1
 516 470 488 509 427 509 c 0
 356 509 320 449 320 356 c 0
 320 259 362 201 428 201 c 0
 480 201 516 238 523 292 c 1
 629 292 l 1
 608 193 543 125 420 125 c 0
 296 125 209 214 209 354 c 0
 209 496 297 585 429 585 c 0
EndSplineSet
EndChar

StartChar: guillemotleft
Encoding: 171 171 272
Width: 573
Flags: MW
HStem: 82 332<279 305 221 376 279 401 459 485>
VStem: 113 443<248 414>
LayerCount: 2
Fore
SplineSet
202 240 m 1
 305 82 l 1
 221 82 l 1
 113 248 l 1
 279 414 l 1
 376 414 l 1
 202 240 l 1
382 240 m 1
 485 82 l 1
 401 82 l 1
 293 248 l 1
 459 414 l 1
 556 414 l 1
 382 240 l 1
EndSplineSet
EndChar

StartChar: logicalnot
Encoding: 172 172 300
Width: 601
Flags: MW
HStem: 322 66<105 404 93 484>
VStem: 93 391<322 388>
LayerCount: 2
Fore
SplineSet
452 201 m 1
 383 201 l 1
 404 322 l 1
 93 322 l 1
 105 388 l 1
 484 388 l 1
 452 201 l 1
EndSplineSet
EndChar

StartChar: registered
Encoding: 174 174 323
Width: 503
Flags: MW
HStem: 344 49<189.5 294 189.5 302.5> 523 43<230 243 222 247> 619 42<239 256 239 239> 716 48<210.5 315>
VStem: 35 51<490.5 581 490.5 592> 292 55<592 601.5> 418 51<527 617.5>
LayerCount: 2
Fore
SplineSet
276 764 m 0
 397 764 469 681 469 577 c 0
 469 455 377 344 228 344 c 0
 107 344 35 427 35 531 c 0
 35 653 127 764 276 764 c 0
237 393 m 0
 351 393 418 477 418 577 c 0
 418 658 362 716 268 716 c 0
 153 716 86 631 86 531 c 0
 86 450 142 393 237 393 c 0
290 660 m 0
 326 656 347 637 347 605 c 0
 347 579 331 558 297 550 c 1
 315 544 323 529 322 509 c 0
 321 493 323 471 330 455 c 1
 271 455 l 1
 268 471 266 483 267 503 c 0
 267 518 258 523 243 523 c 2
 222 523 l 1
 210 455 l 1
 158 455 l 1
 194 661 l 1
 263 661 l 2
 273 661 281 661 290 660 c 0
230 566 m 1
 247 566 l 2
 255 566 259 566 265 567 c 0
 281 569 292 579 292 595 c 0
 292 608 284 616 273 618 c 0
 267 619 263 619 256 619 c 2
 239 619 l 1
 230 566 l 1
EndSplineSet
EndChar

StartChar: macron
Encoding: 175 175 335
Width: 300
Flags: MW
HStem: 599 63<28 272 17 283>
VStem: 17 266<599 662>
LayerCount: 2
Fore
SplineSet
272 599 m 1
 17 599 l 1
 28 662 l 1
 283 662 l 1
 272 599 l 1
EndSplineSet
EndChar

StartChar: degree
Encoding: 176 176 321
Width: 307
Flags: MW
HStem: 503 64<196 228 196 247.5> 685 64<207 239>
VStem: 90 71<600 638.5 600 649> 274 71<614 652.5>
LayerCount: 2
Fore
SplineSet
231 749 m 0
 301 749 345 703 345 642 c 0
 345 565 291 503 204 503 c 0
 134 503 90 550 90 610 c 0
 90 688 144 749 231 749 c 0
225 685 m 0
 189 685 161 661 161 616 c 0
 161 584 182 567 210 567 c 0
 246 567 274 592 274 636 c 0
 274 669 253 685 225 685 c 0
EndSplineSet
EndChar

StartChar: plusminus
Encoding: 177 177 308
Width: 601
Flags: MW
HStem: 0 64<50 454 39 465> 286 66<101 262 89 274 342 504 101 330>
VStem: 39 477<0 352>
LayerCount: 2
Fore
SplineSet
516 352 m 1
 504 286 l 1
 330 286 l 1
 300 115 l 1
 232 115 l 1
 262 286 l 1
 89 286 l 1
 101 352 l 1
 274 352 l 1
 303 519 l 1
 372 519 l 1
 342 352 l 1
 516 352 l 1
50 64 m 1
 465 64 l 1
 454 0 l 1
 39 0 l 1
 50 64 l 1
EndSplineSet
EndChar

StartChar: acute
Encoding: 180 180 326
Width: 300
Flags: MW
HStem: 577 114<101 290 101 290>
VStem: 101 189<577 691>
LayerCount: 2
Fore
SplineSet
167 577 m 1
 101 577 l 1
 190 691 l 1
 290 691 l 1
 167 577 l 1
EndSplineSet
EndChar

StartChar: paragraph
Encoding: 182 182 322
Width: 573
Flags: MW
HStem: 624 66<402 499 402 402>
VStem: 78 502<441.5 690>
LayerCount: 2
Fore
SplineSet
580 690 m 1
 438 -110 l 1
 369 -110 l 1
 499 624 l 1
 402 624 l 1
 272 -110 l 1
 203 -110 l 1
 279 320 l 1
 262 320 l 2
 244 320 223 320 206 321 c 0
 121 326 78 403 78 480 c 0
 78 565 135 681 271 689 c 0
 289 690 310 690 328 690 c 2
 580 690 l 1
EndSplineSet
EndChar

StartChar: periodcentered
Encoding: 183 183 254
Width: 222
Flags: MW
HStem: 228 154<107 130>
VStem: 40 156<294.5 316>
LayerCount: 2
Fore
SplineSet
132 382 m 0
 170 382 196 357 196 321 c 0
 196 268 155 228 105 228 c 0
 67 228 40 253 40 290 c 0
 40 342 82 382 132 382 c 0
EndSplineSet
EndChar

StartChar: cedilla
Encoding: 184 184 329
Width: 300
Flags: MW
HStem: -210 49<80 113 80 128.5> -41 50<158 158>
VStem: 159 71<-131 -104>
LayerCount: 2
Fore
SplineSet
194 9 m 1
 158 -41 l 1
 206 -49 230 -77 230 -114 c 0
 230 -181 167 -210 90 -210 c 0
 63 -210 43 -207 28 -202 c 1
 38 -154 l 1
 53 -160 70 -161 90 -161 c 0
 136 -161 159 -144 159 -118 c 0
 159 -90 126 -74 70 -81 c 1
 132 9 l 1
 194 9 l 1
EndSplineSet
EndChar

StartChar: guillemotright
Encoding: 187 187 273
Width: 576
Flags: MW
HStem: 82 332<81 108 10 166 81 190 261 288>
VStem: 10 444<82 248>
LayerCount: 2
Fore
SplineSet
274 248 m 1
 108 82 l 1
 10 82 l 1
 184 256 l 1
 81 414 l 1
 166 414 l 1
 274 248 l 1
454 248 m 1
 288 82 l 1
 190 82 l 1
 364 256 l 1
 261 414 l 1
 346 414 l 1
 454 248 l 1
EndSplineSet
EndChar

StartChar: questiondown
Encoding: 191 191 256
Width: 542
Flags: MW
HStem: -173 84<191.5 253.5 191.5 271.5> 405 140<310.5 337>
VStem: 8 119<-34.5 18.5 -34.5 21> 252 144<344 505 465.5 484.5>
LayerCount: 2
Fore
SplineSet
313 405 m 0
 275 405 252 428 252 462 c 0
 252 507 286 545 335 545 c 0
 372 545 396 522 396 488 c 0
 396 443 361 405 313 405 c 0
202 -173 m 0
 79 -173 8 -111 8 -21 c 0
 8 63 44 120 153 211 c 0
 215 264 238 294 252 344 c 1
 353 344 l 1
 342 282 319 249 248 181 c 0
 150 87 127 45 127 -8 c 0
 127 -61 163 -89 220 -89 c 0
 287 -89 340 -48 356 42 c 1
 469 42 l 1
 446 -92 341 -173 202 -173 c 0
EndSplineSet
EndChar

StartChar: Agrave
Encoding: 192 192 6
Width: 661
GlyphClass: 2
Flags: MW
HStem: 0 21G<-24 98 -24 -24 493 493 493 612> 228 87<259 446 259 459 214 446> 597 93<403 403> 670 20G<345 495 495 495> 736 102<406 406 406 426 326 472>
VStem: -24 636<0 0>
LayerCount: 2
Fore
SplineSet
406 736 m 1xdc
 326 838 l 1
 426 838 l 1
 472 736 l 1
 406 736 l 1xdc
459 228 m 1
 214 228 l 1
 98 0 l 1
 -24 0 l 1
 345 690 l 1
 495 690 l 1
 612 0 l 1
 493 0 l 1
 459 228 l 1
446 315 m 1
 403 597 l 1xec
 259 315 l 1
 446 315 l 1
EndSplineSet
Position2: "'cpsp' Capital Spacing in Latin lookup 0 subtable" dx=5 dy=0 dh=10 dv=0
EndChar

StartChar: Aacute
Encoding: 193 193 2
Width: 661
GlyphClass: 2
Flags: MW
HStem: 0 21G<-24 98 -24 -24 493 493 493 612> 228 87<259 446 259 459 214 446> 597 93<403 403> 670 20G<345 495 495 495> 736 102<394 575 394 575>
VStem: -24 636<0 0>
LayerCount: 2
Fore
SplineSet
460 736 m 1xdc
 394 736 l 1
 475 838 l 1
 575 838 l 1
 460 736 l 1xdc
459 228 m 1
 214 228 l 1
 98 0 l 1
 -24 0 l 1
 345 690 l 1
 495 690 l 1
 612 0 l 1
 493 0 l 1
 459 228 l 1
446 315 m 1
 403 597 l 1xec
 259 315 l 1
 446 315 l 1
EndSplineSet
Position2: "'cpsp' Capital Spacing in Latin lookup 0 subtable" dx=5 dy=0 dh=10 dv=0
EndChar

StartChar: Atilde
Encoding: 195 195 10
Width: 661
GlyphClass: 2
Flags: MW
HStem: 0 21G<-24 98 -24 -24 493 493 493 612> 228 87<259 446 259 459 214 446> 597 93<403 403> 670 20G<345 495 495 495> 744 87<484.5 569> 748 87<313 398 313 398>
VStem: -24 636<0 0>
LayerCount: 2
Fore
SplineSet
386 771 m 0xd6
 376 771 369 765 366 748 c 1
 313 748 l 1
 325 813 348 835 388 835 c 0xd6
 408 835 424 831 453 820 c 0
 476 811 487 808 496 808 c 0
 507 808 513 814 517 831 c 1
 569 831 l 1
 557 766 534 744 494 744 c 0xda
 475 744 459 748 429 759 c 0
 407 768 396 771 386 771 c 0xd6
459 228 m 1
 214 228 l 1
 98 0 l 1
 -24 0 l 1
 345 690 l 1
 495 690 l 1
 612 0 l 1
 493 0 l 1
 459 228 l 1
446 315 m 1
 403 597 l 1xe6
 259 315 l 1
 446 315 l 1
EndSplineSet
Position2: "'cpsp' Capital Spacing in Latin lookup 0 subtable" dx=5 dy=0 dh=10 dv=0
EndChar

StartChar: Adieresis
Encoding: 196 196 5
Width: 661
GlyphClass: 2
Flags: MW
HStem: 0 21G<-24 98 -24 -24 493 493 493 612> 228 87<259 446 259 459 214 446> 597 93<403 403> 670 20G<345 495 495 495> 733 106<355 370 510 525>
VStem: 308 108<777 795.5> 463 108<777 795.5>
LayerCount: 2
Fore
SplineSet
355 733 m 0xde
 326 733 308 752 308 778 c 0
 308 813 340 839 370 839 c 0
 398 839 416 821 416 794 c 0
 416 760 385 733 355 733 c 0xde
510 733 m 0
 481 733 463 752 463 778 c 0
 463 813 495 839 525 839 c 0
 553 839 571 821 571 794 c 0
 571 760 540 733 510 733 c 0
459 228 m 1
 214 228 l 1
 98 0 l 1
 -24 0 l 1
 345 690 l 1
 495 690 l 1
 612 0 l 1
 493 0 l 1
 459 228 l 1
446 315 m 1
 403 597 l 1xee
 259 315 l 1
 446 315 l 1
EndSplineSet
Position2: "'cpsp' Capital Spacing in Latin lookup 0 subtable" dx=5 dy=0 dh=10 dv=0
EndChar

StartChar: Aring
Encoding: 197 197 9
Width: 661
GlyphClass: 2
Flags: MW
HStem: 0 21G<-24 98 -24 -24 493 493 493 612> 228 87<259 446 259 459 214 446> 597 93<403 403> 670 20G<345 495 495 495> 718 43<426 449 426 462.5> 845 44<439 462>
VStem: 345 58<785 811> 485 58<795.5 821>
LayerCount: 2
Fore
SplineSet
432 718 m 0xdf
 378 718 345 749 345 791 c 0
 345 852 395 889 456 889 c 0
 510 889 543 857 543 815 c 0
 543 754 493 718 432 718 c 0xdf
452 845 m 0
 426 845 403 827 403 795 c 0
 403 775 416 761 436 761 c 0
 462 761 485 780 485 811 c 0
 485 831 472 845 452 845 c 0
459 228 m 1
 214 228 l 1
 98 0 l 1
 -24 0 l 1
 345 690 l 1
 495 690 l 1xd7
 612 0 l 1
 493 0 l 1
 459 228 l 1
446 315 m 1
 403 597 l 1xe7
 259 315 l 1
 446 315 l 1
EndSplineSet
Position2: "'cpsp' Capital Spacing in Latin lookup 0 subtable" dx=5 dy=0 dh=10 dv=0
EndChar

StartChar: AE
Encoding: 198 198 11
Width: 946
GlyphClass: 2
Flags: MW
HStem: 0 88<533 865> 235 88<284 440 219 450> 302 87<563 881 555 896> 603 87<585 585 585 961>
VStem: -82 1059<0 690>
LayerCount: 2
Fore
SplineSet
585 603 m 1xb8
 563 389 l 1
 896 389 l 1
 881 302 l 1
 555 302 l 1xb8
 533 88 l 1
 881 88 l 1
 865 0 l 1
 415 0 l 1
 440 235 l 1
 219 235 l 1xd8
 47 0 l 1
 -82 0 l 1
 436 690 l 1
 977 690 l 1
 961 603 l 1
 585 603 l 1xb8
477 587 m 1
 284 323 l 1
 450 323 l 1xd8
 477 587 l 1
EndSplineSet
Position2: "'cpsp' Capital Spacing in Latin lookup 0 subtable" dx=5 dy=0 dh=10 dv=0
EndChar

StartChar: Egrave
Encoding: 200 200 28
Width: 602
GlyphClass: 2
Flags: MW
HStem: 0 88<170 521> 302 87<223 537 207 552> 603 87<261 261 261 617> 736 102<390 390 390 410 310 456>
VStem: 44 589
AnchorPoint: "Anchor-0" 260 0 basechar 0
LayerCount: 2
Fore
SplineSet
390 736 m 1
 310 838 l 1
 410 838 l 1
 456 736 l 1
 390 736 l 1
261 603 m 1
 223 389 l 1
 552 389 l 1
 537 302 l 1
 207 302 l 1
 170 88 l 1
 537 88 l 1
 521 0 l 1
 44 0 l 1
 166 690 l 1
 633 690 l 1
 617 603 l 1
 261 603 l 1
EndSplineSet
Position2: "'cpsp' Capital Spacing in Latin lookup 0 subtable" dx=5 dy=0 dh=10 dv=0
EndChar

StartChar: Eacute
Encoding: 201 201 23
Width: 602
GlyphClass: 2
Flags: MW
HStem: 0 88<170 521> 302 87<223 537 207 552> 603 87<261 261 261 617> 736 102<378 559 378 559>
VStem: 44 589
AnchorPoint: "Anchor-0" 260 0 basechar 0
LayerCount: 2
Fore
SplineSet
444 736 m 1
 378 736 l 1
 459 838 l 1
 559 838 l 1
 444 736 l 1
261 603 m 1
 223 389 l 1
 552 389 l 1
 537 302 l 1
 207 302 l 1
 170 88 l 1
 537 88 l 1
 521 0 l 1
 44 0 l 1
 166 690 l 1
 633 690 l 1
 617 603 l 1
 261 603 l 1
EndSplineSet
Position2: "'cpsp' Capital Spacing in Latin lookup 0 subtable" dx=5 dy=0 dh=10 dv=0
EndChar

StartChar: Ecircumflex
Encoding: 202 202 25
Width: 602
GlyphClass: 2
Flags: MW
HStem: 0 88<170 521> 302 87<223 537 207 552> 603 87<261 261 261 617> 736 102<311 476 311 476 448 448 448 476 394 524>
VStem: 44 589
AnchorPoint: "Anchor-0" 260 0 basechar 0
LayerCount: 2
Fore
SplineSet
386 736 m 1
 311 736 l 1
 394 838 l 1
 476 838 l 1
 524 736 l 1
 448 736 l 1
 427 795 l 1
 386 736 l 1
261 603 m 1
 223 389 l 1
 552 389 l 1
 537 302 l 1
 207 302 l 1
 170 88 l 1
 537 88 l 1
 521 0 l 1
 44 0 l 1
 166 690 l 1
 633 690 l 1
 617 603 l 1
 261 603 l 1
EndSplineSet
Position2: "'cpsp' Capital Spacing in Latin lookup 0 subtable" dx=5 dy=0 dh=10 dv=0
EndChar

StartChar: Edieresis
Encoding: 203 203 26
Width: 602
GlyphClass: 2
Flags: MW
HStem: 0 88<170 521> 302 87<223 537 207 552> 603 87<261 261 261 617> 733 106<340 355 495 510>
VStem: 293 108<777 795.5> 448 108<777 795.5>
AnchorPoint: "Anchor-0" 260 0 basechar 0
LayerCount: 2
Fore
SplineSet
340 733 m 0
 311 733 293 752 293 778 c 0
 293 813 325 839 355 839 c 0
 383 839 401 821 401 794 c 0
 401 760 370 733 340 733 c 0
495 733 m 0
 466 733 448 752 448 778 c 0
 448 813 480 839 510 839 c 0
 538 839 556 821 556 794 c 0
 556 760 525 733 495 733 c 0
261 603 m 1
 223 389 l 1
 552 389 l 1
 537 302 l 1
 207 302 l 1
 170 88 l 1
 537 88 l 1
 521 0 l 1
 44 0 l 1
 166 690 l 1
 633 690 l 1
 617 603 l 1
 261 603 l 1
EndSplineSet
Position2: "'cpsp' Capital Spacing in Latin lookup 0 subtable" dx=5 dy=0 dh=10 dv=0
EndChar

StartChar: Igrave
Encoding: 204 204 44
Width: 274
GlyphClass: 2
Flags: MW
HStem: 0 21G<44 154 44 44> 670 20G<166 276 276 276> 736 102<203 223 123 269 203 203>
VStem: 44 232
LayerCount: 2
Fore
SplineSet
269 736 m 1
 203 736 l 1
 123 838 l 1
 223 838 l 1
 269 736 l 1
154 0 m 1
 44 0 l 1
 166 690 l 1
 276 690 l 1
 154 0 l 1
EndSplineSet
Position2: "'cpsp' Capital Spacing in Latin lookup 0 subtable" dx=5 dy=0 dh=10 dv=0
EndChar

StartChar: Iacute
Encoding: 205 205 40
Width: 274
GlyphClass: 2
Flags: MW
HStem: 0 21G<44 154 44 44> 670 20G<166 276 276 276> 736 102<191 372 191 372>
VStem: 44 328
LayerCount: 2
Fore
SplineSet
257 736 m 1
 191 736 l 1
 272 838 l 1
 372 838 l 1
 257 736 l 1
154 0 m 1
 44 0 l 1
 166 690 l 1
 276 690 l 1
 154 0 l 1
EndSplineSet
Position2: "'cpsp' Capital Spacing in Latin lookup 0 subtable" dx=5 dy=0 dh=10 dv=0
EndChar

StartChar: Icircumflex
Encoding: 206 206 41
Width: 274
GlyphClass: 2
Flags: MW
HStem: 0 21G<44 154 44 44> 670 20G<166 276 276 276> 736 102<123 288 123 288 260 260 260 288 206 336>
VStem: 44 292
LayerCount: 2
Fore
SplineSet
198 736 m 1
 123 736 l 1
 206 838 l 1
 288 838 l 1
 336 736 l 1
 260 736 l 1
 239 795 l 1
 198 736 l 1
166 690 m 1
 276 690 l 1
 154 0 l 1
 44 0 l 1
 166 690 l 1
EndSplineSet
Position2: "'cpsp' Capital Spacing in Latin lookup 0 subtable" dx=5 dy=0 dh=10 dv=0
EndChar

StartChar: Idieresis
Encoding: 207 207 42
Width: 274
GlyphClass: 2
Flags: MW
HStem: 0 21G<44 154 44 44> 670 20G<166 276 276 276> 733 106<153 168 308 323>
VStem: 106 108<777 795.5> 261 108<777 795.5>
LayerCount: 2
Fore
SplineSet
168 839 m 0
 196 839 214 821 214 794 c 0
 214 760 183 733 153 733 c 0
 124 733 106 752 106 778 c 0
 106 813 138 839 168 839 c 0
323 839 m 0
 351 839 369 821 369 794 c 0
 369 760 338 733 308 733 c 0
 279 733 261 752 261 778 c 0
 261 813 293 839 323 839 c 0
154 0 m 1
 44 0 l 1
 166 690 l 1
 276 690 l 1
 154 0 l 1
EndSplineSet
Position2: "'cpsp' Capital Spacing in Latin lookup 0 subtable" dx=5 dy=0 dh=10 dv=0
EndChar

StartChar: Ntilde
Encoding: 209 209 62
Width: 734
GlyphClass: 2
Flags: MW
HStem: 0 21G<44 154 44 44 457 614 457 457> 0 114<526 526 526 614 457 526> 571 119<253 253> 670 20G<166 321 321 321 627 736 736 736> 744 87<513.5 598> 748 87<342 427 342 427>
VStem: 44 692<0 690>
AnchorPoint: "Anchor-0" 331 0 basechar 0
LayerCount: 2
Fore
SplineSet
415 771 m 0x96
 405 771 398 765 395 748 c 1
 342 748 l 1
 354 813 377 835 417 835 c 0x96
 437 835 453 831 482 820 c 0
 505 811 516 808 525 808 c 0
 536 808 542 814 546 831 c 1
 598 831 l 1
 586 766 563 744 523 744 c 0x9a
 504 744 488 748 458 759 c 0
 436 768 425 771 415 771 c 0x96
736 690 m 1
 614 0 l 1
 457 0 l 1
 253 571 l 1xa6
 154 0 l 1
 44 0 l 1
 166 690 l 1
 321 690 l 1
 526 114 l 1x56
 627 690 l 1
 736 690 l 1
EndSplineSet
Position2: "'cpsp' Capital Spacing in Latin lookup 0 subtable" dx=5 dy=0 dh=10 dv=0
EndChar

StartChar: Ocircumflex
Encoding: 212 212 65
Width: 762
GlyphClass: 2
Flags: MW
HStem: -14 84<307 455.5 307 481> 620 84<348.5 496.5> 736 102<362 527 362 527 499 499 499 527 445 575>
VStem: 61 118<222 361 222 395> 625 118<329 468.5>
LayerCount: 2
Fore
SplineSet
437 736 m 1
 362 736 l 1
 445 838 l 1
 527 838 l 1
 575 736 l 1
 499 736 l 1
 478 795 l 1
 437 736 l 1
452 704 m 0
 642 704 743 570 743 405 c 0
 743 186 610 -14 352 -14 c 0
 162 -14 61 120 61 285 c 0
 61 505 194 704 452 704 c 0
367 70 m 0
 544 70 625 254 625 404 c 0
 625 533 556 620 437 620 c 0
 260 620 179 436 179 286 c 0
 179 158 247 70 367 70 c 0
EndSplineSet
Position2: "'cpsp' Capital Spacing in Latin lookup 0 subtable" dx=5 dy=0 dh=10 dv=0
EndChar

StartChar: Otilde
Encoding: 213 213 71
Width: 762
GlyphClass: 2
Flags: MW
HStem: -14 84<307 455.5 307 481> 620 84<348.5 496.5> 744 87<520.5 605> 748 87<349 434 349 434>
VStem: 61 118<222 361 222 395> 625 118<329 468.5>
LayerCount: 2
Fore
SplineSet
422 771 m 0xdc
 412 771 405 765 402 748 c 1
 349 748 l 1
 361 813 384 835 424 835 c 0xdc
 444 835 460 831 489 820 c 0
 512 811 523 808 532 808 c 0
 543 808 549 814 553 831 c 1
 605 831 l 1
 593 766 570 744 530 744 c 0xec
 511 744 495 748 465 759 c 0
 443 768 432 771 422 771 c 0xdc
452 704 m 0
 642 704 743 570 743 405 c 0
 743 186 610 -14 352 -14 c 0
 162 -14 61 120 61 285 c 0
 61 505 194 704 452 704 c 0
367 70 m 0
 544 70 625 254 625 404 c 0
 625 533 556 620 437 620 c 0
 260 620 179 436 179 286 c 0
 179 158 247 70 367 70 c 0
EndSplineSet
Position2: "'cpsp' Capital Spacing in Latin lookup 0 subtable" dx=5 dy=0 dh=10 dv=0
EndChar

StartChar: Odieresis
Encoding: 214 214 66
Width: 762
GlyphClass: 2
Flags: MW
HStem: -14 84<307 455.5 307 481> 620 84<348.5 496.5> 733 106<391 406 546 561>
VStem: 61 118<222 361 222 395> 344 108<777 795.5> 499 108<777 795.5> 625 118<329 468.5>
LayerCount: 2
Fore
SplineSet
391 733 m 0
 362 733 344 752 344 778 c 0
 344 813 376 839 406 839 c 0
 434 839 452 821 452 794 c 0
 452 760 421 733 391 733 c 0
546 733 m 0
 517 733 499 752 499 778 c 0
 499 813 531 839 561 839 c 0
 589 839 607 821 607 794 c 0
 607 760 576 733 546 733 c 0
452 704 m 0xd2
 642 704 743 570 743 405 c 0
 743 186 610 -14 352 -14 c 0
 162 -14 61 120 61 285 c 0
 61 505 194 704 452 704 c 0xd2
367 70 m 0
 544 70 625 254 625 404 c 0
 625 533 556 620 437 620 c 0
 260 620 179 436 179 286 c 0
 179 158 247 70 367 70 c 0
EndSplineSet
Position2: "'cpsp' Capital Spacing in Latin lookup 0 subtable" dx=5 dy=0 dh=10 dv=0
EndChar

StartChar: multiply
Encoding: 215 215 302
Width: 601
Flags: MW
HStem: 126 384<126 464>
VStem: 79 432<183 453>
LayerCount: 2
Fore
SplineSet
347 314 m 1
 459 178 l 1
 401 130 l 1
 290 265 l 1
 126 126 l 1
 79 183 l 1
 243 322 l 1
 132 457 l 1
 189 506 l 1
 300 371 l 1
 464 510 l 1
 511 453 l 1
 347 314 l 1
EndSplineSet
EndChar

StartChar: Oslash
Encoding: 216 216 70
Width: 762
GlyphClass: 2
Flags: MW
HStem: -14 84<335.5 458.5 335.5 484.5> 620 84<352 473.5>
VStem: 64 118<272 361 272 395> 629 118<329 419.5>
LayerCount: 2
Fore
SplineSet
791 637 m 1
 708 567 l 1
 734 520 747 464 747 405 c 0
 747 186 614 -14 355 -14 c 0
 257 -14 183 21 134 78 c 1
 48 5 l 1
 8 53 l 1
 99 130 l 1
 76 176 64 228 64 285 c 0
 64 505 197 704 456 704 c 0
 550 704 623 671 672 618 c 1
 751 685 l 1
 791 637 l 1
182 286 m 0
 182 258 185 233 191 209 c 1
 589 547 l 1
 557 593 506 620 441 620 c 0
 263 620 182 436 182 286 c 0
629 404 m 0
 629 435 625 464 617 489 c 1
 217 149 l 1
 249 99 301 70 370 70 c 0
 547 70 629 254 629 404 c 0
EndSplineSet
Position2: "'cpsp' Capital Spacing in Latin lookup 0 subtable" dx=5 dy=0 dh=10 dv=0
EndChar

StartChar: Udieresis
Encoding: 220 220 93
Width: 692
GlyphClass: 2
Flags: MW
HStem: -14 84<282 375.5 282 404.5> 670 20G<163 273 273 273 595 705 705 705> 733 106<366 381 521 536>
VStem: 80 110<153 197> 319 108<777 795.5> 474 108<777 795.5>
LayerCount: 2
Fore
SplineSet
381 839 m 0
 409 839 427 821 427 794 c 0
 427 760 396 733 366 733 c 0
 337 733 319 752 319 778 c 0
 319 813 351 839 381 839 c 0
536 839 m 0
 564 839 582 821 582 794 c 0
 582 760 551 733 521 733 c 0
 492 733 474 752 474 778 c 0
 474 813 506 839 536 839 c 0
705 690 m 1
 631 272 l 2
 626 244 622 224 616 199 c 0
 584 66 494 -14 315 -14 c 0
 157 -14 80 60 80 181 c 0
 80 213 84 241 91 280 c 2
 163 690 l 1
 273 690 l 1
 199 270 l 2
 192 230 190 214 190 190 c 0
 190 116 237 70 327 70 c 0
 424 70 482 109 509 209 c 0
 513 225 517 244 521 265 c 2
 595 690 l 1
 705 690 l 1
EndSplineSet
Position2: "'cpsp' Capital Spacing in Latin lookup 0 subtable" dx=5 dy=0 dh=10 dv=0
EndChar

StartChar: Yacute
Encoding: 221 221 107
Width: 607
GlyphClass: 2
Flags: MW
HStem: 0 21G<217 327 217 217> 670 20G<95 212 212 212 567 692 692 692> 736 102<364 545 364 545>
VStem: 95 597<690 690>
LayerCount: 2
Fore
SplineSet
430 736 m 1
 364 736 l 1
 445 838 l 1
 545 838 l 1
 430 736 l 1
373 266 m 1
 327 0 l 1
 217 0 l 1
 265 269 l 1
 95 690 l 1
 212 690 l 1
 336 366 l 1
 567 690 l 1
 692 690 l 1
 373 266 l 1
EndSplineSet
Position2: "'cpsp' Capital Spacing in Latin lookup 0 subtable" dx=5 dy=0 dh=10 dv=0
EndChar

StartChar: Thorn
Encoding: 222 222 74
Width: 619
GlyphClass: 2
Flags: MW
HStem: 0 21G<44 154 44 44> 202 89<205 311 190 323> 513 89<260 362 244 382> 513 177<244 276 166 362 244 244>
VStem: 504 118<438.5 452>
LayerCount: 2
Fore
SplineSet
476 598 m 0xe8
 561 587 622 536 622 445 c 0
 622 432 621 418 618 403 c 0
 597 285 509 219 407 206 c 0
 373 202 348 202 311 202 c 2
 190 202 l 1
 154 0 l 1
 44 0 l 1
 166 690 l 1
 276 690 l 1xd8
 260 602 l 1
 382 602 l 2
 419 602 444 602 476 598 c 0xe8
502 402 m 0
 503 411 504 419 504 426 c 0
 504 478 472 501 431 509 c 0
 414 512 390 513 362 513 c 2
 244 513 l 1
 205 291 l 1
 323 291 l 2
 351 291 375 292 393 295 c 0xd8
 443 304 489 333 502 402 c 0
EndSplineSet
Position2: "'cpsp' Capital Spacing in Latin lookup 0 subtable" dx=5 dy=0 dh=10 dv=0
EndChar

StartChar: germandbls
Encoding: 223 223 199
Width: 602
GlyphClass: 2
Flags: MW
HStem: -4 83<337 387 337 422.5> 0 21G<23 133 23 23> 670 84<326 412.5>
VStem: 350 116<370.5 400.5 370.5 407> 452 118<146 180.5> 478 118<580 614.5>
LayerCount: 2
Fore
SplineSet
391 754 m 0x64
 528 754 596 686 596 596 c 0xa4
 596 559 584 515 551 473 c 1
 484 441 466 417 466 384 c 0xb0
 466 357 476 336 507 304 c 0
 548 263 570 221 570 166 c 0
 570 78 497 -4 348 -4 c 0
 308 -4 280 -2 242 7 c 1
 257 92 l 1
 299 81 326 79 348 79 c 0
 426 79 452 125 452 167 c 0xa8
 452 194 441 226 409 260 c 0
 368 305 350 331 350 382 c 0xb0
 350 432 378 475 454 514 c 1
 474 544 478 569 478 591 c 0
 478 638 447 670 378 670 c 0
 274 670 235 583 216 476 c 2
 133 0 l 1
 23 0 l 1
 106 468 l 1
 134 632 194 754 391 754 c 0x64
EndSplineSet
EndChar

StartChar: agrave
Encoding: 224 224 120
Width: 527
GlyphClass: 2
Flags: MW
HStem: -14 80<120 240.5> 0 66 251.95 69.05 465 80<269 336> 577 114<302 302 302 320 220 368>
VStem: 12 117<114.5 183 114.5 197.5> 330.5 106.5 384 110<397.5 416>
LayerCount: 2
Fore
SplineSet
302 577 m 1xbd
 220 691 l 1
 320 691 l 1
 368 577 l 1
 302 577 l 1xbd
314 545 m 0
 442 545 494 489 494 410 c 0
 494 385 490 357 484 321 c 2xbd
 451 135 l 2
 444 95 440 59 437 0 c 1
 329 0 l 1
 332 76 l 1x7e
 296 27 l 1xbe
 262 -3 215 -14 158 -14 c 0
 82 -14 12 30 12 125 c 0
 12 270 163 336 375 321 c 1
 377 333 l 2
 382 365 384 382 384 397 c 0
 384 435 364 465 308 465 c 0
 230 465 194 429 179 363 c 1
 69 363 l 1
 92 479 187 545 314 545 c 0
353 199 m 2
 362 249 l 1
 236 263 129 228 129 138 c 0
 129 91 162 66 211 66 c 0
 270 66 338 120 353 199 c 2
EndSplineSet
EndChar

StartChar: atilde
Encoding: 227 227 124
Width: 527
GlyphClass: 2
Flags: MW
HStem: -14 80<120 240.5> 0 66 251.95 69.05 465 80<269 336> 589 87<380.5 465> 593 87<209 294 209 294>
VStem: 12 117<114.5 183 114.5 197.5> 330.5 106.5 384 110<397.5 416>
LayerCount: 2
Fore
SplineSet
282 616 m 0xb680
 272 616 265 610 262 593 c 1
 209 593 l 1
 221 658 244 680 284 680 c 0xb680
 304 680 320 676 349 665 c 0
 372 656 383 653 392 653 c 0
 403 653 409 659 413 676 c 1
 465 676 l 1
 453 611 430 589 390 589 c 0xba80
 371 589 355 593 325 604 c 0
 303 613 292 616 282 616 c 0xb680
314 545 m 0
 442 545 494 489 494 410 c 0
 494 385 490 357 484 321 c 2xb680
 451 135 l 2
 444 95 440 59 437 0 c 1
 329 0 l 1
 332 76 l 1x77
 296 27 l 1xb7
 262 -3 215 -14 158 -14 c 0
 82 -14 12 30 12 125 c 0
 12 270 163 336 375 321 c 1
 377 333 l 2
 382 365 384 382 384 397 c 0
 384 435 364 465 308 465 c 0
 230 465 194 429 179 363 c 1
 69 363 l 1
 92 479 187 545 314 545 c 0
353 199 m 2
 362 249 l 1
 236 263 129 228 129 138 c 0
 129 91 162 66 211 66 c 0
 270 66 338 120 353 199 c 2
EndSplineSet
EndChar

StartChar: adieresis
Encoding: 228 228 119
Width: 527
GlyphClass: 2
Flags: MW
HStem: -14 80<120 240.5> 0 66 251.95 69.05 465 80<269 336> 580 105<248 262 408 422>
VStem: 12 117<114.5 183 114.5 197.5> 201 108<623.5 641.5> 330.5 106.5 361 108<623.5 641.5> 384 110<397.5 416>
LayerCount: 2
Fore
SplineSet
247 580 m 0xbe40
 219 580 201 598 201 624 c 0
 201 659 233 685 263 685 c 0
 291 685 309 667 309 641 c 0
 309 606 277 580 247 580 c 0xbe40
407 580 m 0xbe80
 379 580 361 598 361 624 c 0
 361 659 393 685 423 685 c 0
 450 685 469 667 469 641 c 0
 469 606 437 580 407 580 c 0xbe80
314 545 m 0xbe40
 442 545 494 489 494 410 c 0
 494 385 490 357 484 321 c 2xbe40
 451 135 l 2
 444 95 440 59 437 0 c 1
 329 0 l 1
 332 76 l 1x7f
 296 27 l 1xbf
 262 -3 215 -14 158 -14 c 0
 82 -14 12 30 12 125 c 0
 12 270 163 336 375 321 c 1
 377 333 l 2
 382 365 384 382 384 397 c 0
 384 435 364 465 308 465 c 0
 230 465 194 429 179 363 c 1
 69 363 l 1
 92 479 187 545 314 545 c 0xbe40
353 199 m 2
 362 249 l 1
 236 263 129 228 129 138 c 0
 129 91 162 66 211 66 c 0
 270 66 338 120 353 199 c 2
EndSplineSet
EndChar

StartChar: aring
Encoding: 229 229 123
Width: 527
GlyphClass: 2
Flags: MW
HStem: -14 80<120 240.5> 0 66 251.95 69.05 465 80<269 336> 566 43<322 346.5 322 357.5> 702 43<333.5 358>
VStem: 12 117<114.5 183 114.5 197.5> 240 59<633 660 633 670> 330.5 106.5 381 59<651 678> 384 110<397.5 416>
LayerCount: 2
Fore
SplineSet
325 566 m 0xbf40
 273 566 240 595 240 640 c 0
 240 700 290 745 356 745 c 0
 407 745 440 716 440 671 c 0
 440 611 390 566 325 566 c 0xbf40
348 702 m 0
 319 702 299 676 299 644 c 0
 299 622 312 609 332 609 c 0
 361 609 381 635 381 667 c 0
 381 689 368 702 348 702 c 0
314 545 m 0xb720
 442 545 494 489 494 410 c 0
 494 385 490 357 484 321 c 2xb720
 451 135 l 2
 444 95 440 59 437 0 c 1
 329 0 l 1
 332 76 l 1x7780
 296 27 l 1xb780
 262 -3 215 -14 158 -14 c 0
 82 -14 12 30 12 125 c 0
 12 270 163 336 375 321 c 1
 377 333 l 2
 382 365 384 382 384 397 c 0
 384 435 364 465 308 465 c 0
 230 465 194 429 179 363 c 1
 69 363 l 1
 92 479 187 545 314 545 c 0xb720
353 199 m 2
 362 249 l 1
 236 263 129 228 129 138 c 0
 129 91 162 66 211 66 c 0
 270 66 338 120 353 199 c 2
EndSplineSet
EndChar

StartChar: ae
Encoding: 230 230 125
Width: 904
GlyphClass: 2
Flags: MW
HStem: -14 80<187.5 213 563 627> 235 77<374 374 503 771> 464 80<275 339 648.5 717>
VStem: 11 119<111.5 170.5 111.5 173.5> 371.5 113.5 771 112<312 401.5>
LayerCount: 2
Fore
SplineSet
867 235 m 1
 487 235 l 1
 486 222 485 210 485 199 c 0
 485 104 531 66 595 66 c 0
 659 66 716 105 739 172 c 1
 850 172 l 1
 805 46 694 -14 578 -14 c 0
 491 -14 422 19 394 101 c 1
 349 41 l 1
 297 0 250 -14 176 -14 c 0
 79 -14 11 38 11 120 c 0
 11 227 100 312 347 312 c 2
 386 312 l 1
 393 350 395 365 395 378 c 0
 395 432 370 464 308 464 c 0
 242 464 200 428 185 362 c 1
 75 362 l 1
 98 478 195 544 321 544 c 0
 429 544 471 504 485 454 c 1
 538 512 608 544 689 544 c 0
 819 544 883 461 883 342 c 0
 883 308 877 267 867 235 c 1
669 464 m 0
 594 464 532 413 503 312 c 1
 771 312 l 1
 776 382 765 464 669 464 c 0
369 208 m 1
 374 235 l 1
 356 236 338 236 323 236 c 0
 199 236 130 208 130 133 c 0
 130 90 161 66 214 66 c 0
 288 66 354 121 369 208 c 1
EndSplineSet
EndChar

StartChar: ccedilla
Encoding: 231 231 130
Width: 550
GlyphClass: 2
Flags: MW
HStem: -210 49<153 186 153 201.5> -11 21G<191 191> 464 80<267.5 352>
VStem: 24 118<155 278 155 290> 232 71<-131 -104> 424 111<346 346>
AnchorPoint: "Anchor-0" 226 0 basechar 0
LayerCount: 2
Fore
SplineSet
248 66 m 0
 315 66 368 104 396 176 c 1
 508 176 l 1
 459 54 378 -9 251 -14 c 1
 231 -41 l 1
 279 -49 303 -77 303 -114 c 0
 303 -181 240 -210 163 -210 c 0
 136 -210 116 -207 101 -202 c 1
 111 -154 l 1
 126 -160 143 -161 163 -161 c 0
 209 -161 232 -144 232 -118 c 0
 232 -90 199 -74 143 -81 c 1
 191 -11 l 1
 92 4 24 74 24 200 c 0
 24 380 137 544 334 544 c 0
 471 544 534 464 535 346 c 1
 424 346 l 1
 421 426 385 464 319 464 c 0
 216 464 142 354 142 202 c 0
 142 108 188 66 248 66 c 0
EndSplineSet
EndChar

StartChar: edieresis
Encoding: 235 235 140
Width: 558
GlyphClass: 2
Flags: MW
HStem: -14 80<218 282 218 295> 235 77<154 425 154 521 141 425> 465 80<269 348.5> 580 105<263 277 423 437>
VStem: 24 116<153 205.5 153 281.5> 216 108<623.5 641.5> 376 108<623.5 641.5> 426 111<337.5 381>
AnchorPoint: "Anchor-0" 233 0 basechar 0
LayerCount: 2
Fore
SplineSet
262 580 m 0xfd
 234 580 216 598 216 624 c 0
 216 659 248 685 278 685 c 0
 306 685 324 667 324 641 c 0
 324 606 292 580 262 580 c 0xfd
422 580 m 0xfe
 394 580 376 598 376 624 c 0
 376 659 408 685 438 685 c 0
 465 685 484 667 484 641 c 0
 484 606 452 580 422 580 c 0xfe
521 235 m 1xfd
 141 235 l 1
 140 223 140 211 140 200 c 0
 140 106 186 66 250 66 c 0
 314 66 371 105 393 172 c 1
 505 172 l 1
 462 46 354 -14 236 -14 c 0
 113 -14 24 57 24 198 c 0
 24 365 121 545 326 545 c 0
 462 545 537 461 537 342 c 0
 537 308 531 267 521 235 c 1xfd
313 465 m 0
 225 465 176 395 154 312 c 1
 425 312 l 1
 426 323 426 333 426 342 c 0
 426 420 384 465 313 465 c 0
EndSplineSet
EndChar

StartChar: igrave
Encoding: 236 236 157
Width: 248
GlyphClass: 2
Flags: MW
HStem: 0 21G<23 133 23 23> 511 20G<117 227 227 227> 577 114<156 174 74 222 156 156>
VStem: 23 204
LayerCount: 2
Fore
SplineSet
222 577 m 1
 156 577 l 1
 74 691 l 1
 174 691 l 1
 222 577 l 1
133 0 m 1
 23 0 l 1
 117 531 l 1
 227 531 l 1
 133 0 l 1
EndSplineSet
EndChar

StartChar: iacute
Encoding: 237 237 154
Width: 248
GlyphClass: 2
Flags: MW
HStem: 0 21G<23 133 23 23> 511 20G<117 227 227 227> 577 114<142 331 142 331>
VStem: 23 308
LayerCount: 2
Fore
SplineSet
208 577 m 1
 142 577 l 1
 231 691 l 1
 331 691 l 1
 208 577 l 1
133 0 m 1
 23 0 l 1
 117 531 l 1
 227 531 l 1
 133 0 l 1
EndSplineSet
EndChar

StartChar: icircumflex
Encoding: 238 238 155
Width: 248
GlyphClass: 2
Flags: MW
HStem: 0 21G<23 133 23 23> 511 20G<117 227 227 227> 577 114<76 244 76 244 215 215 215 244 163 289> 642 49<194 194>
VStem: 23 266
LayerCount: 2
Fore
SplineSet
149 577 m 1xe8
 76 577 l 1
 163 691 l 1
 244 691 l 1
 289 577 l 1
 215 577 l 1xe8
 194 642 l 1xd8
 149 577 l 1xe8
117 531 m 1
 227 531 l 1
 133 0 l 1
 23 0 l 1
 117 531 l 1
EndSplineSet
EndChar

StartChar: idieresis
Encoding: 239 239 156
Width: 248
GlyphClass: 2
Flags: MW
HStem: 0 21G<23 133 23 23> 511 20G<117 227 227 227> 580 105<102 116 262 276>
VStem: 55 108<623.5 641.5> 215 108<623.5 641.5>
LayerCount: 2
Fore
SplineSet
117 685 m 0
 145 685 163 667 163 641 c 0
 163 606 131 580 101 580 c 0
 73 580 55 598 55 624 c 0
 55 659 87 685 117 685 c 0
277 685 m 0
 304 685 323 667 323 641 c 0
 323 606 291 580 261 580 c 0
 233 580 215 598 215 624 c 0
 215 659 247 685 277 685 c 0
133 0 m 1
 23 0 l 1
 117 531 l 1
 227 531 l 1
 133 0 l 1
EndSplineSet
EndChar

StartChar: eth
Encoding: 240 240 133
Width: 614
GlyphClass: 2
Flags: MW
HStem: -14 83<221 326 221 363> 463 82<257 340 217.5 354.5> 674 20G<314 314> 725 20G<398 398>
VStem: 24 117<161.5 262.5 161.5 281> 445 117<280.5 376>
LayerCount: 2
Fore
SplineSet
581 655 m 1
 516 634 l 1
 549 570 562 484 562 373 c 0
 562 188 478 -14 248 -14 c 0
 98 -14 24 84 24 207 c 0
 24 355 118 545 317 545 c 0
 363 545 392 538 425 516 c 1
 456 462 l 1
 454 513 447 562 422 604 c 1
 288 561 l 1
 271 615 l 1
 382 651 l 1
 364 667 342 681 314 694 c 1
 398 745 l 1
 432 729 460 709 482 683 c 1
 565 710 l 1
 581 655 l 1
256 69 m 0
 396 69 445 215 445 331 c 0
 445 421 386 463 323 463 c 0
 191 463 141 313 141 212 c 0
 141 111 186 69 256 69 c 0
EndSplineSet
EndChar

StartChar: ntilde
Encoding: 241 241 176
Width: 607
GlyphClass: 2
Flags: MW
HStem: 0 21G<23 133 23 23 385 494 385 385> 464 67 464 81 589 87<417.5 502> 593 87<246 331 246 331>
VStem: 447 114<395 402>
AnchorPoint: "Anchor-0" 256 0 basechar 0
LayerCount: 2
Fore
SplineSet
319 616 m 0xac
 309 616 302 610 299 593 c 1
 246 593 l 1
 258 658 281 680 321 680 c 0xac
 341 680 357 676 386 665 c 0
 409 656 420 653 429 653 c 0
 440 653 446 659 450 676 c 1
 502 676 l 1
 490 611 467 589 427 589 c 0xb4
 408 589 392 593 362 604 c 0
 340 613 329 616 319 616 c 0xac
399 545 m 0
 508 545 561 491 561 409 c 0
 561 381 559 360 548 301 c 2
 494 0 l 1
 385 0 l 1
 436 286 l 2
 444 329 447 355 447 376 c 0
 447 428 422 465 352 464 c 0xac
 275 462 204 403 174 237 c 1
 133 0 l 1
 23 0 l 1
 116 531 l 1
 226 531 l 1
 211 445 l 1xcc
 258 504 l 1
 306 536 347 545 399 545 c 0
EndSplineSet
EndChar

StartChar: otilde
Encoding: 245 245 185
Width: 601
GlyphClass: 2
Flags: MW
HStem: -14 80<229.5 334.5 229.5 371> 465 80<267 372> 589 87<409.5 494> 593 87<238 323 238 323>
VStem: 27 118<180 282 180 296> 456 118<250 351.5>
LayerCount: 2
Fore
SplineSet
311 616 m 0xdc
 301 616 294 610 291 593 c 1
 238 593 l 1
 250 658 273 680 313 680 c 0xdc
 333 680 349 676 378 665 c 0
 401 656 412 653 421 653 c 0
 432 653 438 659 442 676 c 1
 494 676 l 1
 482 611 459 589 419 589 c 0xec
 400 589 384 593 354 604 c 0
 332 613 321 616 311 616 c 0xdc
339 545 m 0
 505 545 574 436 574 310 c 0
 574 160 479 -14 263 -14 c 0
 96 -14 27 95 27 221 c 0
 27 371 122 545 339 545 c 0
274 66 m 0
 395 66 456 192 456 308 c 0
 456 395 417 465 327 465 c 0
 207 465 145 340 145 224 c 0
 145 136 185 66 274 66 c 0
EndSplineSet
EndChar

StartChar: odieresis
Encoding: 246 246 180
Width: 601
GlyphClass: 2
Flags: MW
HStem: -14 80<229.5 334.5 229.5 371> 465 80<267 372> 580 105<277 291 437 451>
VStem: 27 118<180 282 180 296> 230 108<623.5 641.5> 390 108<623.5 641.5> 456 118<250 351.5>
LayerCount: 2
Fore
SplineSet
276 580 m 0xfa
 248 580 230 598 230 624 c 0
 230 659 262 685 292 685 c 0
 320 685 338 667 338 641 c 0
 338 606 306 580 276 580 c 0xfa
436 580 m 0xfc
 408 580 390 598 390 624 c 0
 390 659 422 685 452 685 c 0
 479 685 498 667 498 641 c 0
 498 606 466 580 436 580 c 0xfc
339 545 m 0xfa
 505 545 574 436 574 310 c 0
 574 160 479 -14 263 -14 c 0
 96 -14 27 95 27 221 c 0
 27 371 122 545 339 545 c 0xfa
274 66 m 0
 395 66 456 192 456 308 c 0
 456 395 417 465 327 465 c 0
 207 465 145 340 145 224 c 0
 145 136 185 66 274 66 c 0
EndSplineSet
EndChar

StartChar: divide
Encoding: 247 247 291
Width: 601
Flags: MW
HStem: 88 124<259 276.5> 286 66<83 509 71 520> 422 124<318 335> 526 20G<318 352.5>
VStem: 205 126<141 158.5> 263 126<475.5 493.5>
LayerCount: 2
Fore
SplineSet
337 546 m 0xd4
 368 546 389 525 389 496 c 0
 389 455 355 422 315 422 c 0xe4
 284 422 263 443 263 473 c 0
 263 514 299 546 337 546 c 0xd4
509 286 m 1xd8
 71 286 l 1
 83 352 l 1
 520 352 l 1
 509 286 l 1xd8
279 212 m 0
 311 212 331 191 331 161 c 0
 331 121 296 88 257 88 c 0
 226 88 205 109 205 138 c 0
 205 179 239 212 279 212 c 0
EndSplineSet
EndChar

StartChar: oslash
Encoding: 248 248 184
Width: 633
GlyphClass: 2
Flags: MW
HStem: -14 80<260 343 260 379.5> 465 80<275.5 360>
VStem: 35 118<215.5 282 215.5 296> 465 118<250 315>
LayerCount: 2
Fore
SplineSet
643 504 m 1
 557 431 l 1
 575 395 583 354 583 310 c 0
 583 160 488 -14 271 -14 c 0
 196 -14 140 8 102 44 c 1
 23 -23 l 1
 -17 26 l 1
 64 95 l 1
 44 132 35 175 35 221 c 0
 35 371 130 545 347 545 c 0
 425 545 482 521 520 482 c 1
 603 553 l 1
 643 504 l 1
153 224 m 0
 153 207 155 190 158 175 c 1
 438 413 l 1
 417 445 384 465 336 465 c 0
 215 465 153 340 153 224 c 0
465 308 m 0
 465 322 464 337 461 350 c 1
 183 113 l 1
 204 84 237 66 283 66 c 0
 403 66 465 192 465 308 c 0
EndSplineSet
EndChar

StartChar: uacute
Encoding: 250 250 206
Width: 602
GlyphClass: 2
Flags: MW
HStem: -14 82 0 68 511 20G<109 219 219 219 471 580 580 580> 577 114<321 510 321 510>
VStem: 42 114<129.5 136>
LayerCount: 2
Fore
SplineSet
387 577 m 1xb8
 321 577 l 1
 410 691 l 1
 510 691 l 1
 387 577 l 1xb8
580 531 m 1
 487 0 l 1
 377 0 l 1
 392 86 l 1x78
 345 27 l 1
 297 -5 257 -14 204 -14 c 0
 96 -14 42 40 42 122 c 0
 42 150 44 171 55 231 c 2
 109 531 l 1
 219 531 l 1
 167 245 l 2
 159 203 156 176 156 155 c 0
 156 104 182 66 251 68 c 1
 328 69 399 127 428 291 c 1
 429 294 l 1
 471 531 l 1
 580 531 l 1
EndSplineSet
EndChar

StartChar: udieresis
Encoding: 252 252 208
Width: 602
GlyphClass: 2
Flags: MW
HStem: -14 82 0 68 511 20G<109 219 219 219 471 580 580 580> 580 105<281 295 441 455>
VStem: 42 114<129.5 136> 234 108<623.5 641.5> 394 108<623.5 641.5>
LayerCount: 2
Fore
SplineSet
280 580 m 0xbe
 252 580 234 598 234 624 c 0
 234 659 266 685 296 685 c 0
 324 685 342 667 342 641 c 0
 342 606 310 580 280 580 c 0xbe
440 580 m 0
 412 580 394 598 394 624 c 0
 394 659 426 685 456 685 c 0
 483 685 502 667 502 641 c 0
 502 606 470 580 440 580 c 0
580 531 m 1
 487 0 l 1
 377 0 l 1
 392 86 l 1x7e
 345 27 l 1
 297 -5 257 -14 204 -14 c 0
 96 -14 42 40 42 122 c 0
 42 150 44 171 55 231 c 2
 109 531 l 1
 219 531 l 1
 167 245 l 2
 159 203 156 176 156 155 c 0
 156 104 182 66 251 68 c 1
 328 69 399 127 428 291 c 1
 429 294 l 1
 471 531 l 1
 580 531 l 1
EndSplineSet
EndChar

StartChar: thorn
Encoding: 254 254 188
Width: 630
GlyphClass: 2
Flags: MW
HStem: -14 80<270 357 244.5 398.5> 465 80<378 409> 715 20G<154 264 264 264>
VStem: 147 25.33 489 117<255 364>
LayerCount: 2
Fore
SplineSet
405 545 m 0
 538 545 606 454 606 328 c 0
 606 159 505 -14 292 -14 c 0
 248 -14 195 2 172 26 c 1
 147 80 l 1
 98 -196 l 1
 -12 -196 l 1
 154 735 l 1
 264 735 l 1
 213 449 l 1
 262 505 l 1
 296 530 351 545 405 545 c 0
296 66 m 0
 418 66 489 190 489 320 c 0
 489 408 449 465 369 465 c 0
 287 465 207 414 181 273 c 1
 181 271 l 1
 176 244 l 1
 160 152 193 66 296 66 c 0
EndSplineSet
EndChar

StartChar: ydieresis
Encoding: 255 255 224
Width: 517
GlyphClass: 2
Flags: MW
HStem: -210 82<17 48 17 76.5> 511 20G<34 158 158 158 449 572 572 572> 580 105<230 244 390 404>
VStem: 183 108<623.5 641.5> 343 108<623.5 641.5>
LayerCount: 2
Fore
SplineSet
229 580 m 0
 201 580 183 598 183 624 c 0
 183 659 215 685 245 685 c 0
 273 685 291 667 291 641 c 0
 291 606 259 580 229 580 c 0
389 580 m 0
 361 580 343 598 343 624 c 0
 343 659 375 685 405 685 c 0
 432 685 451 667 451 641 c 0
 451 606 419 580 389 580 c 0
572 531 m 1
 275 0 l 2
 185 -161 129 -210 24 -210 c 0
 6 -210 -11 -209 -26 -206 c 1
 -13 -125 l 1
 0 -127 11 -128 23 -128 c 0
 73 -128 107 -107 141 -43 c 2
 149 -28 l 1
 34 531 l 1
 158 531 l 1
 225 85 l 1
 449 531 l 1
 572 531 l 1
EndSplineSet
EndChar

StartChar: Amacron
Encoding: 256 256 7
Width: 661
GlyphClass: 2
Flags: MW
HStem: 0 21G<-24 98 -24 -24 493 493 493 612> 228 87<259 446 259 459 214 446> 597 93<403 403> 670 20G<345 495 495 495> 758 63<319 563 308 574>
VStem: -24 636<0 0>
LayerCount: 2
Fore
SplineSet
563 758 m 1xdc
 308 758 l 1
 319 821 l 1
 574 821 l 1
 563 758 l 1xdc
459 228 m 1
 214 228 l 1
 98 0 l 1
 -24 0 l 1
 345 690 l 1
 495 690 l 1
 612 0 l 1
 493 0 l 1
 459 228 l 1
446 315 m 1
 403 597 l 1xec
 259 315 l 1
 446 315 l 1
EndSplineSet
Position2: "'cpsp' Capital Spacing in Latin lookup 0 subtable" dx=5 dy=0 dh=10 dv=0
EndChar

StartChar: Abreve
Encoding: 258 258 3
Width: 661
GlyphClass: 2
Flags: MW
HStem: 0 21G<-24 98 -24 -24 493 493 493 612> 228 87<259 446 259 459 214 446> 597 93<403 403> 670 20G<345 495 495 495> 724 62<424.5 455.5 424.5 466>
VStem: 337.95 65.05
LayerCount: 2
Fore
SplineSet
430 724 m 0xdc
 349 724 331 781 340 838 c 1
 403 838 l 1
 398 806 408 786 441 786 c 0
 470 786 491 803 499 838 c 1
 561 838 l 1
 547 763 502 724 430 724 c 0xdc
459 228 m 1
 214 228 l 1
 98 0 l 1
 -24 0 l 1
 345 690 l 1
 495 690 l 1
 612 0 l 1
 493 0 l 1
 459 228 l 1
446 315 m 1
 403 597 l 1xec
 259 315 l 1
 446 315 l 1
EndSplineSet
Position2: "'cpsp' Capital Spacing in Latin lookup 0 subtable" dx=5 dy=0 dh=10 dv=0
EndChar

StartChar: abreve
Encoding: 259 259 117
Width: 527
GlyphClass: 2
Flags: MW
HStem: -14 80<120 240.5> 0 66 251.95 69.05 465 80<269 336> 566 63<316.5 350.5 316.5 360.5> 566 126<280 299 237 360.5>
VStem: 12 117<114.5 183 114.5 197.5> 233.45 65.55 330.5 106.5 384 110<397.5 416>
LayerCount: 2
Fore
SplineSet
325 566 m 0xb740
 235 566 226 631 237 692 c 1
 299 692 l 1xb740
 295 658 297 629 336 629 c 0xbb40
 365 629 386 646 395 692 c 1
 458 692 l 1
 442 607 396 566 325 566 c 0xb740
314 545 m 0xb340
 442 545 494 489 494 410 c 0
 494 385 490 357 484 321 c 2xb340
 451 135 l 2
 444 95 440 59 437 0 c 1
 329 0 l 1
 332 76 l 1x7380
 296 27 l 1xb380
 262 -3 215 -14 158 -14 c 0
 82 -14 12 30 12 125 c 0
 12 270 163 336 375 321 c 1
 377 333 l 2
 382 365 384 382 384 397 c 0
 384 435 364 465 308 465 c 0
 230 465 194 429 179 363 c 1
 69 363 l 1
 92 479 187 545 314 545 c 0xb340
353 199 m 2
 362 249 l 1
 236 263 129 228 129 138 c 0
 129 91 162 66 211 66 c 0
 270 66 338 120 353 199 c 2
EndSplineSet
EndChar

StartChar: Aogonek
Encoding: 260 260 8
Width: 661
GlyphClass: 2
Flags: MW
HStem: -223 66<422 514.5> 0 21G<-24 98 -24 -24 571 612 571 571> 228 87<259 446 259 459 214 446> 597 93<403 403> 670 20G<345 495 495 495>
VStem: 360 109<-131 -117.5>
LayerCount: 2
Fore
SplineSet
612 0 m 1xec
 571 0 l 1
 511 -8 469 -73 469 -116 c 0
 469 -146 483 -157 505 -157 c 0
 524 -157 542 -152 561 -138 c 1
 551 -190 l 1
 525 -210 488 -223 445 -223 c 0
 399 -223 360 -203 360 -149 c 0
 360 -86 406 -26 492 9 c 1
 459 228 l 1
 214 228 l 1
 98 0 l 1
 -24 0 l 1
 345 690 l 1
 495 690 l 1
 612 0 l 1xec
446 315 m 1
 403 597 l 1xf4
 259 315 l 1
 446 315 l 1
EndSplineSet
Position2: "'cpsp' Capital Spacing in Latin lookup 0 subtable" dx=5 dy=0 dh=10 dv=0
EndChar

StartChar: aogonek
Encoding: 261 261 122
Width: 527
GlyphClass: 2
Flags: MW
HStem: -223 66<258 350.5> -14 80<120 240.5> 0 21G<407 437 407 407> 251.95 69.05 465 80<269 336>
VStem: 12 117<114.5 183 114.5 197.5> 196 109<-131 -117> 330.5 106.5 384 110<397.5 416>
LayerCount: 2
Fore
SplineSet
314 545 m 0xde80
 442 545 494 489 494 410 c 0
 494 385 490 357 484 321 c 2xde80
 451 135 l 2
 444 95 440 59 437 0 c 1xbf
 407 0 l 1xbe80
 347 -8 305 -73 305 -116 c 0
 305 -146 319 -157 341 -157 c 0
 360 -157 378 -152 397 -138 c 1
 387 -190 l 1
 361 -210 324 -223 281 -223 c 0
 235 -223 196 -203 196 -149 c 0xde80
 196 -85 242 -25 329 9 c 1
 332 76 l 1
 296 27 l 1xdf
 262 -3 215 -14 158 -14 c 0
 82 -14 12 30 12 125 c 0
 12 270 163 336 375 321 c 1
 377 333 l 2
 382 365 384 382 384 397 c 0
 384 435 364 465 308 465 c 0
 230 465 194 429 179 363 c 1
 69 363 l 1
 92 479 187 545 314 545 c 0xde80
211 66 m 0
 270 66 338 120 353 199 c 2
 362 249 l 1
 236 263 129 228 129 138 c 0
 129 91 162 66 211 66 c 0
EndSplineSet
EndChar

StartChar: Cacute
Encoding: 262 262 14
Width: 729
GlyphClass: 2
Flags: MW
HStem: -14 84<295.5 398 295.5 419> 620 84<431 435 431 431>
VStem: 59 120 596 111<458 468 468 522>
AnchorPoint: "Anchor-0" 194 0 basechar 0
LayerCount: 2
Fore
SplineSet
450 704 m 0
 630 704 717 604 707 468 c 1
 706 458 l 1
 596 458 l 1
 596 468 l 2
 596 576 540 620 435 620 c 2
 431 620 l 1
 367 563 l 1
 301 563 l 1
 322 589 l 1
 234 537 179 422 179 282 c 0
 179 137 245 70 346 70 c 0
 450 70 513 131 548 224 c 1
 552 234 l 1
 662 234 l 1
 659 224 l 1
 619 82 509 -14 329 -14 c 0
 157 -14 58 95 59 271 c 1
 58 521 227 704 450 704 c 0
EndSplineSet
Position2: "'cpsp' Capital Spacing in Latin lookup 0 subtable" dx=5 dy=0 dh=10 dv=0
EndChar

StartChar: Cdotaccent
Encoding: 266 266 17
Width: 729
GlyphClass: 2
Flags: MW
HStem: -14 84<295.5 398 295.5 419> 620 84<430.5 487.5>
VStem: 59 120 596 111<458 468 468 522>
AnchorPoint: "Anchor-0" 194 0 basechar 0
LayerCount: 2
Fore
SplineSet
450 704 m 0
 630 704 717 604 707 468 c 1
 706 458 l 1
 596 458 l 1
 596 468 l 2
 596 576 540 620 435 620 c 0
 426 620 417 619 408 618 c 1
 404 588 375 560 340 560 c 0
 324 560 311 566 302 576 c 1
 226 519 179 412 179 282 c 0
 179 137 245 70 346 70 c 0
 450 70 513 131 548 224 c 1
 552 234 l 1
 662 234 l 1
 659 224 l 1
 619 82 509 -14 329 -14 c 0
 157 -14 58 95 59 271 c 1
 58 521 227 704 450 704 c 0
EndSplineSet
Position2: "'cpsp' Capital Spacing in Latin lookup 0 subtable" dx=5 dy=0 dh=10 dv=0
EndChar

StartChar: cdotaccent
Encoding: 267 267 131
Width: 550
GlyphClass: 2
Flags: MW
HStem: -14 80<218 281.5 218 303> 464 80<267.5 352> 589 127<338 363.5>
VStem: 24 118<155 278 155 290> 285 131<643.5 662.5> 424 111<346 346>
AnchorPoint: "Anchor-0" 226 0 basechar 0
LayerCount: 2
Fore
SplineSet
360 716 m 0
 394 716 416 694 416 663 c 0
 416 624 386 589 341 589 c 0
 307 589 285 611 285 643 c 0
 285 682 316 716 360 716 c 0
334 544 m 0xd4
 471 544 534 464 535 346 c 1
 424 346 l 1
 421 426 385 464 319 464 c 0
 216 464 142 354 142 202 c 0
 142 108 188 66 248 66 c 0
 315 66 368 104 396 176 c 1
 508 176 l 1
 457 49 371 -14 235 -14 c 0
 113 -14 24 56 24 200 c 0
 24 380 137 544 334 544 c 0xd4
EndSplineSet
EndChar

StartChar: Ccaron
Encoding: 268 268 15
Width: 729
GlyphClass: 2
Flags: MW
HStem: -14 84<295.5 398 295.5 419> 620 84<429 435 429 429> 653 12<258 258>
VStem: 59 120 596 111<458 468 468 522>
AnchorPoint: "Anchor-0" 194 0 basechar 0
LayerCount: 2
Fore
SplineSet
450 704 m 0xd8
 630 704 717 604 707 468 c 1
 706 458 l 1
 596 458 l 1
 596 468 l 2
 596 576 540 620 435 620 c 2
 429 620 l 1xd8
 383 563 l 1
 300 563 l 1
 296 571 l 1
 223 513 179 408 179 282 c 0
 179 137 245 70 346 70 c 0
 450 70 513 131 548 224 c 1
 552 234 l 1
 662 234 l 1
 659 224 l 1
 619 82 509 -14 329 -14 c 0
 157 -14 58 95 59 271 c 1
 58 442 137 581 258 653 c 1
 252 665 l 1
 281 665 l 1xb8
 332 690 389 704 450 704 c 0xd8
EndSplineSet
Position2: "'cpsp' Capital Spacing in Latin lookup 0 subtable" dx=5 dy=0 dh=10 dv=0
EndChar

StartChar: dcaron
Encoding: 271 271 134
Width: 629
GlyphClass: 2
Flags: MW
HStem: -14 80<222.5 252> 0 66 465 80<273.5 361 232.5 386> 583 152<534 707 534 647> 583 153<647 798 647 798>
VStem: 24 118<167 275 167 285> 458.36 25.64
LayerCount: 2
Fore
SplineSet
798 736 m 1xac
 798 728 l 1xac
 707 583 l 1
 647 583 l 1xb4
 716 736 l 1
 798 736 l 1xac
534 735 m 1xb6
 643 735 l 1
 513 0 l 1
 404 0 l 1
 419 83 l 1x74
 368 26 l 1
 335 2 279 -14 225 -14 c 0
 93 -14 24 75 24 201 c 0
 24 369 126 545 339 545 c 0
 383 545 436 529 459 506 c 1
 484 452 l 1
 534 735 l 1xb6
450 260 m 2
 455 288 l 1
 470 379 438 465 334 465 c 0
 213 465 142 339 142 211 c 0
 142 123 183 66 262 66 c 0xb6
 344 66 425 119 450 260 c 2
EndSplineSet
EndChar

StartChar: Dcroat
Encoding: 272 272 21
Width: 719
GlyphClass: 2
Flags: MW
HStem: 0 88<170 249> 302 66<23 97 12 109 220 325> 603 87<261 351 261 261>
VStem: 581 118<319.5 457.5>
LayerCount: 2
Fore
SplineSet
451 687 m 0
 588 674 699 580 699 393 c 0
 699 209 581 26 338 3 c 0
 302 0 282 0 249 0 c 2
 44 0 l 1
 97 302 l 1
 12 302 l 1
 23 368 l 1
 109 368 l 1
 166 690 l 1
 362 690 l 2
 399 690 417 690 451 687 c 0
339 91 m 0
 508 114 581 248 581 391 c 0
 581 524 513 588 424 599 c 0
 402 602 381 603 351 603 c 2
 261 603 l 1
 220 368 l 1
 336 368 l 1
 325 302 l 1
 208 302 l 1
 170 88 l 1
 264 88 l 2
 294 88 316 88 339 91 c 0
EndSplineSet
Position2: "'cpsp' Capital Spacing in Latin lookup 0 subtable" dx=5 dy=0 dh=10 dv=0
EndChar

StartChar: dcroat
Encoding: 273 273 135
Width: 630
GlyphClass: 2
Flags: MW
HStem: -14 80<222.5 252> 0 66 465 80<273.5 361 232.5 386> 590 66<401 508 390 520 629 659> 590 145<390 643 390 643 617 643 534 659 617 617>
VStem: 24 118<167 275 167 285> 458.36 25.64
LayerCount: 2
Fore
SplineSet
659 590 m 1xac
 617 590 l 1
 513 0 l 1
 404 0 l 1
 419 83 l 1x6c
 368 26 l 1
 335 2 279 -14 225 -14 c 0
 93 -14 24 75 24 201 c 0
 24 369 126 545 339 545 c 0
 383 545 436 529 459 506 c 1
 484 452 l 1
 508 590 l 1
 390 590 l 1xae
 401 656 l 1
 520 656 l 1xb6
 534 735 l 1
 643 735 l 1xae
 629 656 l 1
 671 656 l 1xb4
 659 590 l 1xac
450 260 m 2
 455 288 l 1
 470 379 438 465 334 465 c 0
 213 465 142 339 142 211 c 0
 142 123 183 66 262 66 c 0xae
 344 66 425 119 450 260 c 2
EndSplineSet
EndChar

StartChar: Emacron
Encoding: 274 274 29
Width: 602
GlyphClass: 2
Flags: MW
HStem: 0 88<170 521> 302 87<223 537 207 552> 603 87<261 261 261 617> 758 63<304 548 293 559>
VStem: 44 589
AnchorPoint: "Anchor-0" 260 0 basechar 0
LayerCount: 2
Fore
SplineSet
548 758 m 1
 293 758 l 1
 304 821 l 1
 559 821 l 1
 548 758 l 1
261 603 m 1
 223 389 l 1
 552 389 l 1
 537 302 l 1
 207 302 l 1
 170 88 l 1
 537 88 l 1
 521 0 l 1
 44 0 l 1
 166 690 l 1
 633 690 l 1
 617 603 l 1
 261 603 l 1
EndSplineSet
Position2: "'cpsp' Capital Spacing in Latin lookup 0 subtable" dx=5 dy=0 dh=10 dv=0
EndChar

StartChar: emacron
Encoding: 275 275 143
Width: 558
GlyphClass: 2
Flags: MW
HStem: -14 80<218 282 218 295> 235 77<154 425 154 521 141 425> 465 80<269 348.5> 599 63<230 474 219 485>
VStem: 24 116<153 205.5 153 281.5> 426 111<337.5 381>
AnchorPoint: "Anchor-0" 233 0 basechar 0
LayerCount: 2
Fore
SplineSet
474 599 m 1
 219 599 l 1
 230 662 l 1
 485 662 l 1
 474 599 l 1
521 235 m 1
 141 235 l 1
 140 223 140 211 140 200 c 0
 140 106 186 66 250 66 c 0
 314 66 371 105 393 172 c 1
 505 172 l 1
 462 46 354 -14 236 -14 c 0
 113 -14 24 57 24 198 c 0
 24 365 121 545 326 545 c 0
 462 545 537 461 537 342 c 0
 537 308 531 267 521 235 c 1
313 465 m 0
 225 465 176 395 154 312 c 1
 425 312 l 1
 426 323 426 333 426 342 c 0
 426 420 384 465 313 465 c 0
EndSplineSet
EndChar

StartChar: Edotaccent
Encoding: 278 278 27
Width: 602
GlyphClass: 2
Flags: MW
HStem: 0 88<170 521> 302 87<223 537 207 552> 603 87<261 261 261 617> 733 113<416 436>
VStem: 368 117<781.5 798>
AnchorPoint: "Anchor-0" 260 0 basechar 0
LayerCount: 2
Fore
SplineSet
417 733 m 0
 387 733 368 753 368 781 c 0
 368 815 397 846 435 846 c 0
 465 846 485 827 485 798 c 0
 485 765 455 733 417 733 c 0
261 603 m 1
 223 389 l 1
 552 389 l 1
 537 302 l 1
 207 302 l 1
 170 88 l 1
 537 88 l 1
 521 0 l 1
 44 0 l 1
 166 690 l 1
 633 690 l 1
 617 603 l 1
 261 603 l 1
EndSplineSet
Position2: "'cpsp' Capital Spacing in Latin lookup 0 subtable" dx=5 dy=0 dh=10 dv=0
EndChar

StartChar: edotaccent
Encoding: 279 279 141
Width: 558
GlyphClass: 2
Flags: MW
HStem: -14 80<218 282 218 295> 235 77<154 425 154 521 141 425> 465 80<269 348.5> 589 127<344 369.5>
VStem: 24 116<153 205.5 153 281.5> 291 131<643.5 662.5> 426 111<337.5 381>
AnchorPoint: "Anchor-0" 233 0 basechar 0
LayerCount: 2
Fore
SplineSet
347 589 m 0
 313 589 291 611 291 643 c 0
 291 682 322 716 366 716 c 0
 400 716 422 694 422 663 c 0
 422 624 392 589 347 589 c 0
521 235 m 1xea
 141 235 l 1
 140 223 140 211 140 200 c 0
 140 106 186 66 250 66 c 0
 314 66 371 105 393 172 c 1
 505 172 l 1
 462 46 354 -14 236 -14 c 0
 113 -14 24 57 24 198 c 0
 24 365 121 545 326 545 c 0
 462 545 537 461 537 342 c 0
 537 308 531 267 521 235 c 1xea
313 465 m 0
 225 465 176 395 154 312 c 1
 425 312 l 1
 426 323 426 333 426 342 c 0
 426 420 384 465 313 465 c 0
EndSplineSet
EndChar

StartChar: Eogonek
Encoding: 280 280 30
Width: 602
GlyphClass: 2
Flags: MW
HStem: -223 66<360 452.5> 0 88<170 410 509 521 509 509> 302 87<223 537 207 552> 603 87<261 261 261 617>
VStem: 298 109<-131 -120>
AnchorPoint: "Anchor-0" 260 0 basechar 0
LayerCount: 2
Fore
SplineSet
261 603 m 1
 223 389 l 1
 552 389 l 1
 537 302 l 1
 207 302 l 1
 170 88 l 1
 537 88 l 1
 521 0 l 1
 509 0 l 1
 449 -8 407 -73 407 -116 c 0
 407 -146 421 -157 443 -157 c 0
 462 -157 480 -152 499 -138 c 1
 489 -190 l 1
 463 -210 426 -223 383 -223 c 0
 337 -223 298 -203 298 -149 c 0
 298 -91 337 -35 410 0 c 1
 44 0 l 1
 166 690 l 1
 633 690 l 1
 617 603 l 1
 261 603 l 1
EndSplineSet
Position2: "'cpsp' Capital Spacing in Latin lookup 0 subtable" dx=5 dy=0 dh=10 dv=0
EndChar

StartChar: eogonek
Encoding: 281 281 144
Width: 558
GlyphClass: 2
Flags: MW
HStem: -223 66<163 255.5> -11 21G 235 77<154 425 154 521 141 425> 465 80<269 348.5>
VStem: 24 116<153 205.5 153 281.5> 101 109<-131 -123> 426 111<337.5 381>
AnchorPoint: "Anchor-0" 233 0 basechar 0
LayerCount: 2
Fore
SplineSet
521 235 m 1xfa
 141 235 l 1
 140 223 140 211 140 200 c 0xfa
 140 106 186 66 250 66 c 0
 314 66 371 105 393 172 c 1
 505 172 l 1
 467 61 379 1 278 -11 c 1
 237 -34 210 -82 210 -116 c 0
 210 -146 224 -157 246 -157 c 0
 265 -157 283 -152 302 -138 c 1
 292 -190 l 1
 266 -210 229 -223 186 -223 c 0
 140 -223 101 -203 101 -149 c 0xf6
 101 -97 133 -46 193 -11 c 1
 93 4 24 74 24 198 c 0
 24 365 121 545 326 545 c 0
 462 545 537 461 537 342 c 0
 537 308 531 267 521 235 c 1xfa
313 465 m 0
 225 465 176 395 154 312 c 1
 425 312 l 1
 426 323 426 333 426 342 c 0
 426 420 384 465 313 465 c 0
EndSplineSet
EndChar

StartChar: Ecaron
Encoding: 282 282 24
Width: 602
GlyphClass: 2
Flags: MW
HStem: 0 88<170 521> 302 87<223 537 207 552> 603 87<261 261 261 617> 736 102<377 377 377 405 329 460>
VStem: 44 589
AnchorPoint: "Anchor-0" 260 0 basechar 0
LayerCount: 2
Fore
SplineSet
377 736 m 1
 329 838 l 1
 405 838 l 1
 425 778 l 1
 466 838 l 1
 543 838 l 1
 460 736 l 1
 377 736 l 1
261 603 m 1
 223 389 l 1
 552 389 l 1
 537 302 l 1
 207 302 l 1
 170 88 l 1
 537 88 l 1
 521 0 l 1
 44 0 l 1
 166 690 l 1
 633 690 l 1
 617 603 l 1
 261 603 l 1
EndSplineSet
Position2: "'cpsp' Capital Spacing in Latin lookup 0 subtable" dx=5 dy=0 dh=10 dv=0
EndChar

StartChar: Gbreve
Encoding: 286 286 33
Width: 762
GlyphClass: 2
Flags: MW
HStem: -14 84<291.5 355> 0 21G<528 620 528 528> 254 88<419 557 403 680> 620 84<369.5 497.5> 724 62<522.5 553.5 522.5 564>
VStem: 58 121<217.5 380 217.5 396.5> 435.95 65.05 599 111<458 468 468 522.5>
AnchorPoint: "Anchor-0" 301 0 basechar 0
LayerCount: 2
Fore
SplineSet
528 724 m 0xbf
 447 724 429 781 438 838 c 1
 501 838 l 1
 496 806 506 786 539 786 c 0
 568 786 589 803 597 838 c 1
 659 838 l 1
 645 763 600 724 528 724 c 0xbf
462 704 m 0xb7
 643 704 720 604 710 468 c 1
 709 458 l 1
 599 458 l 1
 599 468 l 2
 599 577 550 620 445 620 c 0
 294 620 179 477 179 283 c 0
 179 152 240 70 343 70 c 0xb7
 445 70 532 143 557 254 c 1
 403 254 l 1
 419 342 l 1
 680 342 l 1
 620 0 l 1
 528 0 l 1x77
 544 116 l 1
 502 50 l 1
 455 8 394 -14 316 -14 c 0
 148 -14 58 102 58 269 c 0
 58 524 240 704 462 704 c 0xb7
EndSplineSet
Position2: "'cpsp' Capital Spacing in Latin lookup 0 subtable" dx=5 dy=0 dh=10 dv=0
EndChar

StartChar: gbreve
Encoding: 287 287 147
Width: 629
GlyphClass: 2
Flags: MW
HStem: -213 83<184 273 184 296.5> -13 81<222.5 252> 465 66 465 80<273.5 361 232.5 386> 566 63<363.5 397.5 363.5 407.5> 566 126<327 346 284 407.5>
VStem: -5 109<-35 -34> 24 118<167 275 167 285> 280.45 65.55 458.36 25.64
LayerCount: 2
Fore
SplineSet
372 566 m 0xd580
 282 566 273 631 284 692 c 1
 346 692 l 1xd580
 342 658 344 629 383 629 c 0xd980
 412 629 433 646 442 692 c 1
 505 692 l 1
 489 607 443 566 372 566 c 0xd580
608 531 m 1xe1c0
 537 132 l 2
 531 99 524 58 518 29 c 0
 484 -132 384 -213 209 -213 c 0
 71 -213 -14 -149 -5 -35 c 1
 -4 -25 l 1
 105 -25 l 1
 104 -34 l 1xd280
 101 -91 143 -130 225 -130 c 0
 321 -130 385 -78 406 17 c 1
 410 40 415 59 418 78 c 2
 419 85 l 1
 368 27 l 1
 335 3 279 -13 225 -13 c 0
 93 -13 24 78 24 201 c 0
 24 369 126 545 339 545 c 0
 383 545 436 529 459 506 c 1
 484 452 l 1xd1c0
 498 531 l 1
 608 531 l 1xe1c0
262 68 m 0
 344 68 425 119 450 260 c 1
 450 258 l 1
 455 289 l 1
 455 288 l 1
 470 379 438 465 334 465 c 0
 213 465 142 339 142 211 c 0xd1c0
 142 123 183 68 262 68 c 0
EndSplineSet
EndChar

StartChar: Gdotaccent
Encoding: 288 288 35
Width: 762
GlyphClass: 2
Flags: MW
HStem: -14 84<291.5 355> 0 21G<528 620 528 528> 254 88<419 557 403 680> 620 84<369.5 497.5> 733 113<530 550>
VStem: 58 121<217.5 380 217.5 396.5> 482 117<781.5 798> 599 111<458 468 468 522.5>
AnchorPoint: "Anchor-0" 301 0 basechar 0
LayerCount: 2
Fore
SplineSet
531 733 m 0xbe
 501 733 482 753 482 781 c 0
 482 815 511 846 549 846 c 0
 579 846 599 827 599 798 c 0
 599 765 569 733 531 733 c 0xbe
462 704 m 0xb5
 643 704 720 604 710 468 c 1
 709 458 l 1
 599 458 l 1
 599 468 l 2
 599 577 550 620 445 620 c 0
 294 620 179 477 179 283 c 0
 179 152 240 70 343 70 c 0xb5
 445 70 532 143 557 254 c 1
 403 254 l 1
 419 342 l 1
 680 342 l 1
 620 0 l 1
 528 0 l 1x75
 544 116 l 1
 502 50 l 1
 455 8 394 -14 316 -14 c 0
 148 -14 58 102 58 269 c 0
 58 524 240 704 462 704 c 0xb5
EndSplineSet
Position2: "'cpsp' Capital Spacing in Latin lookup 0 subtable" dx=5 dy=0 dh=10 dv=0
EndChar

StartChar: gdotaccent
Encoding: 289 289 149
Width: 629
GlyphClass: 2
Flags: MW
HStem: -213 83<184 273 184 296.5> -13 81<222.5 252> 465 66 465 80<273.5 361 232.5 386> 589 127<376 401.5>
VStem: -5 109<-35 -34> 24 118<167 275 167 285> 323 131<643.5 662.5> 458.36 25.64
LayerCount: 2
Fore
SplineSet
379 589 m 0xdb
 345 589 323 611 323 643 c 0
 323 682 354 716 398 716 c 0
 432 716 454 694 454 663 c 0
 454 624 424 589 379 589 c 0xdb
608 531 m 1xea80
 537 132 l 2
 531 99 524 58 518 29 c 0
 484 -132 384 -213 209 -213 c 0
 71 -213 -14 -149 -5 -35 c 1
 -4 -25 l 1
 105 -25 l 1
 104 -34 l 1xdd
 101 -91 143 -130 225 -130 c 0
 321 -130 385 -78 406 17 c 1
 410 40 415 59 418 78 c 2
 419 85 l 1
 368 27 l 1
 335 3 279 -13 225 -13 c 0
 93 -13 24 78 24 201 c 0
 24 369 126 545 339 545 c 0
 383 545 436 529 459 506 c 1
 484 452 l 1xda80
 498 531 l 1
 608 531 l 1xea80
262 68 m 0
 344 68 425 119 450 260 c 1
 450 258 l 1
 455 289 l 1
 455 288 l 1
 470 379 438 465 334 465 c 0
 213 465 142 339 142 211 c 0xda80
 142 123 183 68 262 68 c 0
EndSplineSet
EndChar

StartChar: Hbar
Encoding: 294 294 37
Width: 737
GlyphClass: 2
Flags: MW
HStem: 0 21G<44 154 44 44 508 617 508 508> 294 89<222 560 206 576> 497 66<104 132 92 144 254 596 717 745> 497 193<92 276 92 276 242 242 242 276 166 596 705 739 705 705>
VStem: 44 713<0 563>
LayerCount: 2
Fore
SplineSet
745 497 m 1xe8
 705 497 l 1
 617 0 l 1
 508 0 l 1
 560 294 l 1
 206 294 l 1
 154 0 l 1
 44 0 l 1
 132 497 l 1
 92 497 l 1
 104 563 l 1
 144 563 l 1xe8
 166 690 l 1
 276 690 l 1xd8
 254 563 l 1
 608 563 l 1xe8
 630 690 l 1
 739 690 l 1xd8
 717 563 l 1
 757 563 l 1
 745 497 l 1xe8
596 497 m 1
 242 497 l 1
 222 383 l 1
 576 383 l 1
 596 497 l 1
EndSplineSet
Position2: "'cpsp' Capital Spacing in Latin lookup 0 subtable" dx=5 dy=0 dh=10 dv=0
EndChar

StartChar: hbar
Encoding: 295 295 151
Width: 624
GlyphClass: 2
Flags: MW
HStem: 0 21G<40 149 40 40 401 511 401 401> 464 81 590 66<98 144 86 155 264 355> 590 150<86 279 86 279 253 253 253 279 170 355>
VStem: 464 114<395 402>
LayerCount: 2
Fore
SplineSet
416 545 m 0xd8
 524 545 578 491 578 409 c 0
 578 381 576 360 565 301 c 2
 511 0 l 1
 401 0 l 1
 453 286 l 2
 461 329 464 355 464 376 c 0
 464 428 438 465 369 464 c 0
 292 462 220 403 191 237 c 2
 149 0 l 1
 40 0 l 1
 144 590 l 1
 86 590 l 1xd8
 98 656 l 1
 155 656 l 1xe8
 170 740 l 1
 279 740 l 1xd8
 264 656 l 1
 367 656 l 1xe8
 355 590 l 1
 253 590 l 1
 227 445 l 1
 275 504 l 1
 323 536 363 545 416 545 c 0xd8
EndSplineSet
EndChar

StartChar: Imacron
Encoding: 298 298 45
Width: 274
GlyphClass: 2
Flags: MW
HStem: 0 21G<44 154 44 44> 670 20G<166 276 276 276> 758 63<116 360 105 371>
VStem: 44 327
LayerCount: 2
Fore
SplineSet
360 758 m 1
 105 758 l 1
 116 821 l 1
 371 821 l 1
 360 758 l 1
154 0 m 1
 44 0 l 1
 166 690 l 1
 276 690 l 1
 154 0 l 1
EndSplineSet
Position2: "'cpsp' Capital Spacing in Latin lookup 0 subtable" dx=5 dy=0 dh=10 dv=0
EndChar

StartChar: imacron
Encoding: 299 299 159
Width: 248
GlyphClass: 2
Flags: MW
HStem: 0 21G<23 133 23 23> 511 20G<117 227 227 227> 599 63<68 312 57 323>
VStem: 23 300
LayerCount: 2
Fore
SplineSet
312 599 m 1
 57 599 l 1
 68 662 l 1
 323 662 l 1
 312 599 l 1
133 0 m 1
 23 0 l 1
 117 531 l 1
 227 531 l 1
 133 0 l 1
EndSplineSet
EndChar

StartChar: Iogonek
Encoding: 302 302 46
Width: 274
GlyphClass: 2
Flags: MW
HStem: -223 66<-28 64.5> 0 21G<121 154 121 121> 670 20G<166 276 276 276>
VStem: -90 109<-131 -117>
LayerCount: 2
Fore
SplineSet
276 690 m 1
 154 0 l 1
 121 0 l 1
 61 -8 19 -73 19 -116 c 0
 19 -146 33 -157 55 -157 c 0
 74 -157 92 -152 111 -138 c 1
 101 -190 l 1
 75 -210 38 -223 -5 -223 c 0
 -51 -223 -90 -203 -90 -149 c 0
 -90 -85 -44 -24 46 10 c 1
 166 690 l 1
 276 690 l 1
EndSplineSet
Position2: "'cpsp' Capital Spacing in Latin lookup 0 subtable" dx=5 dy=0 dh=10 dv=0
EndChar

StartChar: iogonek
Encoding: 303 303 160
Width: 248
GlyphClass: 2
Flags: MW
HStem: -223 66<-48 44.5> 0 21G<101 133 101 101> 511 20G<117 227 227 227> 589 127<183 208.5>
VStem: -110 109<-131 -117> 130 131<643.5 662.5>
LayerCount: 2
Fore
SplineSet
205 716 m 0
 239 716 261 694 261 663 c 0
 261 624 231 589 186 589 c 0
 152 589 130 611 130 643 c 0
 130 682 161 716 205 716 c 0
117 531 m 1
 227 531 l 1
 133 0 l 1
 101 0 l 1
 41 -8 -1 -73 -1 -116 c 0
 -1 -146 13 -157 35 -157 c 0
 54 -157 72 -152 91 -138 c 1
 81 -190 l 1
 55 -210 18 -223 -25 -223 c 0
 -71 -223 -110 -203 -110 -149 c 0
 -110 -85 -64 -24 25 10 c 1
 117 531 l 1
EndSplineSet
EndChar

StartChar: Idotaccent
Encoding: 304 304 43
Width: 274
GlyphClass: 2
Flags: MW
HStem: 0 21G<44 154 44 44> 670 20G<166 276 276 276> 733 113<229 249>
VStem: 181 117<781.5 798>
LayerCount: 2
Fore
SplineSet
248 846 m 0
 278 846 298 827 298 798 c 0
 298 765 268 733 230 733 c 0
 200 733 181 753 181 781 c 0
 181 815 210 846 248 846 c 0
154 0 m 1
 44 0 l 1
 166 690 l 1
 276 690 l 1
 154 0 l 1
EndSplineSet
Position2: "'cpsp' Capital Spacing in Latin lookup 0 subtable" dx=5 dy=0 dh=10 dv=0
EndChar

StartChar: dotlessi
Encoding: 305 305 153
Width: 248
GlyphClass: 2
Flags: MW
HStem: 0 21G<23 133 23 23> 511 20G<117 227 227 227>
VStem: 23 204
LayerCount: 2
Fore
SplineSet
133 0 m 1
 23 0 l 1
 117 531 l 1
 227 531 l 1
 133 0 l 1
EndSplineSet
EndChar

StartChar: IJ
Encoding: 306 306 39
Width: 828
GlyphClass: 2
Flags: MW
HStem: -14 84<467 540.5 467 565> 0 21G<44 154 44 44> 670 20G<166 276 276 276 729 839 839 839>
VStem: 291.84 111.89
LayerCount: 2
Fore
SplineSet
154 0 m 1x70
 44 0 l 1
 166 690 l 1
 276 690 l 1
 154 0 l 1x70
839 690 m 1
 765 273 l 2
 760 245 756 223 747 184 c 0
 720 67 643 -14 487 -14 c 0
 349 -14 275 70 295 204 c 1
 301 242 l 1
 410 242 l 1
 406 204 l 1
 394 110 430 70 504 70 c 0xb0
 577 70 620 110 640 191 c 0
 645 212 649 236 656 268 c 1
 729 690 l 1
 839 690 l 1
EndSplineSet
Position2: "'cpsp' Capital Spacing in Latin lookup 0 subtable" dx=5 dy=0 dh=10 dv=0
EndChar

StartChar: ij
Encoding: 307 307 158
Width: 468
GlyphClass: 2
Flags: MW
HStem: -210 85<148 228.5> 0 21G<23 133 23 23> 511 20G<117 227 227 227 350 459 459 459> 589 127<183 208.5 411 438>
VStem: 130 131<643.5 662.5> 359 131<641 664>
LayerCount: 2
Fore
SplineSet
205 716 m 0
 239 716 261 694 261 663 c 0
 261 624 231 589 186 589 c 0
 152 589 130 611 130 643 c 0
 130 682 161 716 205 716 c 0
433 716 m 0
 468 716 490 694 490 663 c 0
 490 619 460 589 416 589 c 0
 381 589 359 611 359 642 c 0
 359 686 389 716 433 716 c 0
133 0 m 1
 23 0 l 1
 117 531 l 1
 227 531 l 1
 133 0 l 1
459 531 m 1
 361 -31 l 2
 357 -51 352 -77 347 -95 c 0
 327 -168 279 -210 178 -210 c 0
 161 -210 147 -210 133 -208 c 1
 148 -125 l 1
 199 -131 228 -116 240 -80 c 0
 244 -66 248 -50 252 -26 c 2
 350 531 l 1
 459 531 l 1
EndSplineSet
EndChar

StartChar: Lacute
Encoding: 313 313 51
Width: 588
GlyphClass: 2
Flags: MW
HStem: 0 91<170 521> 670 20G<166 276 276 276> 736 102<191 372 191 372>
VStem: 44 493<0 91>
AnchorPoint: "Anchor-0" 282 0 basechar 0
LayerCount: 2
Fore
SplineSet
257 736 m 1
 191 736 l 1
 272 838 l 1
 372 838 l 1
 257 736 l 1
537 91 m 1
 521 0 l 1
 44 0 l 1
 166 690 l 1
 276 690 l 1
 170 91 l 1
 537 91 l 1
EndSplineSet
Position2: "'cpsp' Capital Spacing in Latin lookup 0 subtable" dx=5 dy=0 dh=10 dv=0
EndChar

StartChar: Lcommaaccent
Encoding: 315 315 53
Width: 588
GlyphClass: 2
Flags: MW
HStem: -200 152<174 325 174 325> 0 91<170 521> 670 20G<166 276 276 276>
VStem: 44 493<0 91>
AnchorPoint: "Anchor-0" 282 0 basechar 0
LayerCount: 2
Fore
SplineSet
537 91 m 1
 521 0 l 1
 44 0 l 1
 166 690 l 1
 276 690 l 1
 170 91 l 1
 537 91 l 1
243 -48 m 1
 325 -48 l 1
 325 -55 l 1
 234 -200 l 1
 174 -200 l 1
 243 -48 l 1
EndSplineSet
Position2: "'cpsp' Capital Spacing in Latin lookup 0 subtable" dx=5 dy=0 dh=10 dv=0
EndChar

StartChar: Ldot
Encoding: 319 319 54
Width: 588
GlyphClass: 2
Flags: MW
HStem: 0 91<170 521> 337 126<397.5 419.5> 670 20G<166 276 276 276>
VStem: 343 131<389.5 410.5>
AnchorPoint: "Anchor-0" 282 0 basechar 0
LayerCount: 2
Fore
SplineSet
537 91 m 1
 521 0 l 1
 44 0 l 1
 166 690 l 1
 276 690 l 1
 170 91 l 1
 537 91 l 1
398 337 m 0
 365 337 343 359 343 390 c 0
 343 431 376 463 419 463 c 0
 452 463 474 441 474 410 c 0
 474 369 441 337 398 337 c 0
EndSplineSet
Ligature2: "Ligature Substitution lookup 6 subtable" L periodcentered
Position2: "'cpsp' Capital Spacing in Latin lookup 0 subtable" dx=5 dy=0 dh=10 dv=0
EndChar

StartChar: Lslash
Encoding: 321 321 55
Width: 626
GlyphClass: 2
Flags: MW
HStem: 0 91<208 559> 670 20G<205 314 314 314>
VStem: 11 565<91 227>
AnchorPoint: "Anchor-0" 320 0 basechar 0
LayerCount: 2
Fore
SplineSet
576 91 m 1
 559 0 l 1
 83 0 l 1
 135 292 l 1
 11 227 l 1
 25 305 l 1
 148 370 l 1
 205 690 l 1
 314 690 l 1
 268 432 l 1
 388 495 l 1
 374 417 l 1
 255 355 l 1
 208 91 l 1
 576 91 l 1
EndSplineSet
Position2: "'cpsp' Capital Spacing in Latin lookup 0 subtable" dx=5 dy=0 dh=10 dv=0
EndChar

StartChar: lslash
Encoding: 322 322 169
Width: 298
GlyphClass: 2
Flags: MW
HStem: -6 80<120.5 232> 715 20G<174 283 283 283>
VStem: 59 116<37 116>
AnchorPoint: "Anchor-0" 112 0 basechar 0
LayerCount: 2
Fore
SplineSet
209 315 m 1
 182 162 l 2
 177 136 175 122 175 110 c 0
 175 76 192 71 232 74 c 1
 218 -1 l 1
 196 -4 173 -6 148 -6 c 0
 93 -6 59 10 59 64 c 0
 59 83 62 106 72 159 c 2
 88 249 l 1
 18 211 l 1
 32 291 l 1
 102 329 l 1
 174 735 l 1
 283 735 l 1
 223 395 l 1
 294 434 l 1
 280 354 l 1
 209 315 l 1
EndSplineSet
EndChar

StartChar: Nacute
Encoding: 323 323 58
Width: 734
GlyphClass: 2
Flags: MW
HStem: 0 21G<44 154 44 44 457 614 457 457> 0 114<526 526 526 614 457 526> 571 119<253 253> 670 20G<166 321 321 321 627 736 736 736> 736 102<422 603 422 603>
VStem: 44 692<0 690>
AnchorPoint: "Anchor-0" 331 0 basechar 0
LayerCount: 2
Fore
SplineSet
488 736 m 1x9c
 422 736 l 1
 503 838 l 1
 603 838 l 1
 488 736 l 1x9c
736 690 m 1
 614 0 l 1
 457 0 l 1
 253 571 l 1xac
 154 0 l 1
 44 0 l 1
 166 690 l 1
 321 690 l 1
 526 114 l 1x5c
 627 690 l 1
 736 690 l 1
EndSplineSet
Position2: "'cpsp' Capital Spacing in Latin lookup 0 subtable" dx=5 dy=0 dh=10 dv=0
EndChar

StartChar: nacute
Encoding: 324 324 172
Width: 607
GlyphClass: 2
Flags: MW
HStem: 0 21G<23 133 23 23 385 494 385 385> 464 67 464 81 577 114<326 515 326 515>
VStem: 447 114<395 402>
AnchorPoint: "Anchor-0" 256 0 basechar 0
LayerCount: 2
Fore
SplineSet
392 577 m 1xb8
 326 577 l 1
 415 691 l 1
 515 691 l 1
 392 577 l 1xb8
399 545 m 0
 508 545 561 491 561 409 c 0
 561 381 559 360 548 301 c 2
 494 0 l 1
 385 0 l 1
 436 286 l 2
 444 329 447 355 447 376 c 0
 447 428 422 465 352 464 c 0xb8
 275 462 204 403 174 237 c 1
 133 0 l 1
 23 0 l 1
 116 531 l 1
 226 531 l 1
 211 445 l 1xd8
 258 504 l 1
 306 536 347 545 399 545 c 0
EndSplineSet
EndChar

StartChar: Ncommaaccent
Encoding: 325 325 60
Width: 734
GlyphClass: 2
Flags: MW
HStem: -200 152<223 374 223 374> 0 21G<44 154 44 44 457 614 457 457> 0 114<526 526 526 614 457 526> 571 119<253 253> 670 20G<166 321 321 321 627 736 736 736>
VStem: 44 692<0 690>
AnchorPoint: "Anchor-0" 331 0 basechar 0
LayerCount: 2
Fore
SplineSet
736 690 m 1xcc
 614 0 l 1
 457 0 l 1
 253 571 l 1xd4
 154 0 l 1
 44 0 l 1
 166 690 l 1
 321 690 l 1
 526 114 l 1xac
 627 690 l 1
 736 690 l 1xcc
292 -48 m 1
 374 -48 l 1
 374 -55 l 1
 283 -200 l 1
 223 -200 l 1
 292 -48 l 1
EndSplineSet
Position2: "'cpsp' Capital Spacing in Latin lookup 0 subtable" dx=5 dy=0 dh=10 dv=0
EndChar

StartChar: Ncaron
Encoding: 327 327 59
Width: 734
GlyphClass: 2
Flags: MW
HStem: 0 21G<44 154 44 44 457 614 457 457> 0 114<526 526 526 614 457 526> 571 119<253 253> 670 20G<166 321 321 321 627 736 736 736> 736 102<421 421 421 449 373 504>
VStem: 44 692<0 690>
AnchorPoint: "Anchor-0" 331 0 basechar 0
LayerCount: 2
Fore
SplineSet
421 736 m 1x9c
 373 838 l 1
 449 838 l 1
 469 778 l 1
 510 838 l 1
 587 838 l 1
 504 736 l 1
 421 736 l 1x9c
736 690 m 1
 614 0 l 1
 457 0 l 1
 253 571 l 1xac
 154 0 l 1
 44 0 l 1
 166 690 l 1
 321 690 l 1
 526 114 l 1x5c
 627 690 l 1
 736 690 l 1
EndSplineSet
Position2: "'cpsp' Capital Spacing in Latin lookup 0 subtable" dx=5 dy=0 dh=10 dv=0
EndChar

StartChar: ncaron
Encoding: 328 328 173
Width: 607
GlyphClass: 2
Flags: MW
HStem: 0 21G<23 133 23 23 385 494 385 385> 464 67 464 81 577 114<325 325 325 353 279 406>
VStem: 447 114<395 402>
AnchorPoint: "Anchor-0" 256 0 basechar 0
LayerCount: 2
Fore
SplineSet
325 577 m 1xb8
 279 691 l 1
 353 691 l 1
 375 626 l 1
 419 691 l 1
 492 691 l 1
 406 577 l 1
 325 577 l 1xb8
399 545 m 0
 508 545 561 491 561 409 c 0
 561 381 559 360 548 301 c 2
 494 0 l 1
 385 0 l 1
 436 286 l 2
 444 329 447 355 447 376 c 0
 447 428 422 465 352 464 c 0xb8
 275 462 204 403 174 237 c 1
 133 0 l 1
 23 0 l 1
 116 531 l 1
 226 531 l 1
 211 445 l 1xd8
 258 504 l 1
 306 536 347 545 399 545 c 0
EndSplineSet
EndChar

StartChar: Eng
Encoding: 330 330 61
Width: 735
GlyphClass: 2
Flags: MW
HStem: 0 21G<45 155 45 45> 563 127<252 252> 670 20G<166 321 321 321 627 736 736 736>
VStem: 45 691<0 690>
LayerCount: 2
Fore
SplineSet
736 690 m 1xb0
 604 -65 l 2
 581 -194 545 -223 394 -223 c 1
 409 -138 l 1
 465 -136 485 -113 492 -71 c 2
 500 -28 l 1
 252 563 l 1xd0
 155 0 l 1
 45 0 l 1
 166 690 l 1
 321 690 l 1
 535 157 l 1
 627 690 l 1
 736 690 l 1xb0
EndSplineSet
Position2: "'cpsp' Capital Spacing in Latin lookup 0 subtable" dx=5 dy=0 dh=10 dv=0
EndChar

StartChar: eng
Encoding: 331 331 175
Width: 607
GlyphClass: 2
Flags: MW
HStem: -174 85<297 325 297 337.5> 0 21G<23 133 23 23> 464 67 464 81
VStem: 447 114<395 402>
LayerCount: 2
Fore
SplineSet
399 545 m 0xd8
 508 545 561 491 561 409 c 0
 561 381 559 360 548 301 c 2
 491 -18 l 2
 487 -38 483 -54 478 -68 c 0
 446 -161 392 -174 283 -174 c 1
 297 -89 l 1
 353 -89 372 -69 380 -26 c 2
 436 286 l 2
 444 329 447 355 447 376 c 0
 447 428 422 465 352 464 c 0xd8
 275 462 204 403 174 237 c 1
 133 0 l 1
 23 0 l 1
 116 531 l 1
 226 531 l 1
 211 445 l 1xe8
 258 504 l 1
 306 536 347 545 399 545 c 0xd8
EndSplineSet
EndChar

StartChar: omacron
Encoding: 333 333 183
Width: 601
GlyphClass: 2
Flags: MW
HStem: -14 80<229.5 334.5 229.5 371> 465 80<267 372> 599 63<243 487 232 498>
VStem: 27 118<180 282 180 296> 456 118<250 351.5>
LayerCount: 2
Fore
SplineSet
487 599 m 1
 232 599 l 1
 243 662 l 1
 498 662 l 1
 487 599 l 1
339 545 m 0
 505 545 574 436 574 310 c 0
 574 160 479 -14 263 -14 c 0
 96 -14 27 95 27 221 c 0
 27 371 122 545 339 545 c 0
274 66 m 0
 395 66 456 192 456 308 c 0
 456 395 417 465 327 465 c 0
 207 465 145 340 145 224 c 0
 145 136 185 66 274 66 c 0
EndSplineSet
EndChar

StartChar: Ohungarumlaut
Encoding: 336 336 68
Width: 762
GlyphClass: 2
Flags: MW
HStem: -14 84<307 455.5 307 481> 620 84<348.5 496.5> 736 102<344 525 344 525 478 525 425 544 478 478>
VStem: 61 118<222 361 222 395> 625 118<329 468.5>
LayerCount: 2
Fore
SplineSet
410 736 m 1
 344 736 l 1
 425 838 l 1
 525 838 l 1
 410 736 l 1
478 736 m 1
 559 838 l 1
 659 838 l 1
 544 736 l 1
 478 736 l 1
452 704 m 0
 642 704 743 570 743 405 c 0
 743 186 610 -14 352 -14 c 0
 162 -14 61 120 61 285 c 0
 61 505 194 704 452 704 c 0
367 70 m 0
 544 70 625 254 625 404 c 0
 625 533 556 620 437 620 c 0
 260 620 179 436 179 286 c 0
 179 158 247 70 367 70 c 0
EndSplineSet
Position2: "'cpsp' Capital Spacing in Latin lookup 0 subtable" dx=5 dy=0 dh=10 dv=0
EndChar

StartChar: ohungarumlaut
Encoding: 337 337 182
Width: 601
GlyphClass: 2
Flags: MW
HStem: -14 80<229.5 334.5 229.5 371> 465 80<267 372> 577 114<243 432 243 432 387 432 332 453 387 387>
VStem: 27 118<180 282 180 296> 456 118<250 351.5>
LayerCount: 2
Fore
SplineSet
309 577 m 1
 243 577 l 1
 332 691 l 1
 432 691 l 1
 309 577 l 1
387 577 m 1
 476 691 l 1
 576 691 l 1
 453 577 l 1
 387 577 l 1
339 545 m 0
 505 545 574 436 574 310 c 0
 574 160 479 -14 263 -14 c 0
 96 -14 27 95 27 221 c 0
 27 371 122 545 339 545 c 0
274 66 m 0
 395 66 456 192 456 308 c 0
 456 395 417 465 327 465 c 0
 207 465 145 340 145 224 c 0
 145 136 185 66 274 66 c 0
EndSplineSet
EndChar

StartChar: OE
Encoding: 338 338 72
Width: 1113
GlyphClass: 2
Flags: MW
HStem: -14 84<296.5 365.5> 0 88<681 1032> 302 87<734 1048 718 1063> 603 87<772 772 772 1128> 620 84<354 496 312.5 531>
VStem: 58 118<211 351.5 211 369> 622.35 31.65
LayerCount: 2
Fore
SplineSet
772 603 m 1x76
 734 389 l 1
 1063 389 l 1
 1048 302 l 1
 718 302 l 1
 681 88 l 1
 1048 88 l 1
 1032 0 l 1
 555 0 l 1x76
 578 129 l 1
 538 60 l 1
 476 6 410 -14 321 -14 c 0
 155 -14 58 87 58 275 c 0
 58 463 178 704 447 704 c 0
 545 704 595 684 638 628 c 1xae
 654 559 l 1
 677 690 l 1
 1144 690 l 1
 1128 603 l 1
 772 603 l 1x76
353 70 m 0xae
 488 70 586 180 616 345 c 1
 637 473 612 620 450 620 c 0
 258 620 176 425 176 278 c 0
 176 144 240 70 353 70 c 0xae
EndSplineSet
Position2: "'cpsp' Capital Spacing in Latin lookup 0 subtable" dx=5 dy=0 dh=10 dv=0
EndChar

StartChar: oe
Encoding: 339 339 186
Width: 978
GlyphClass: 2
Flags: MW
HStem: -14 80<223 297 637 701> 235 77<578 845 578 941 561 845> 464 80<264.5 374.5 720 777.5>
VStem: 23 118<166.5 260 166.5 271> 457 103<152 365.5> 847 110<339.5 383>
LayerCount: 2
Fore
SplineSet
941 235 m 1
 561 235 l 1
 560 222 560 210 560 200 c 0
 560 104 605 66 669 66 c 0
 733 66 790 105 813 172 c 1
 924 172 l 1
 879 46 770 -14 653 -14 c 0
 573 -14 507 19 478 102 c 1
 422 23 344 -14 250 -14 c 0
 96 -14 23 78 23 204 c 0
 23 338 111 544 345 544 c 0
 443 544 509 507 539 426 c 1
 598 509 677 544 763 544 c 0
 893 544 957 461 957 342 c 0
 957 307 951 266 941 235 c 1
263 66 m 0
 403 66 457 224 457 323 c 0
 457 408 415 464 334 464 c 0
 195 464 141 310 141 210 c 0
 141 123 183 66 263 66 c 0
743 464 m 0
 668 464 606 413 578 312 c 1
 845 312 l 1
 847 324 847 335 847 344 c 0
 847 422 812 464 743 464 c 0
EndSplineSet
EndChar

StartChar: Racute
Encoding: 340 340 77
Width: 630
GlyphClass: 2
Flags: MW
HStem: 0 21G<44 154 44 44 448 567 448 448> 288 85<220 313 205 335> 603 87<261 383 261 261> 736 102<362 543 362 543>
VStem: 438 110 526 120<477.5 540>
AnchorPoint: "Anchor-0" 264 0 basechar 0
LayerCount: 2
Fore
SplineSet
428 736 m 1xf8
 362 736 l 1
 443 838 l 1
 543 838 l 1
 428 736 l 1xf8
646 536 m 0xf4
 646 419 565 354 470 333 c 1
 529 319 548 271 548 117 c 0
 548 66 553 26 567 0 c 1
 448 0 l 1
 442 30 440 65 438 180 c 0
 437 242 419 284 364 287 c 0xf8
 347 288 330 288 313 288 c 2
 205 288 l 1
 154 0 l 1
 44 0 l 1
 166 690 l 1
 404 690 l 2
 441 690 466 690 499 686 c 0
 584 675 646 629 646 536 c 0xf4
398 375 m 0
 468 381 526 425 526 513 c 0
 526 567 495 593 446 599 c 0
 429 602 411 603 383 603 c 2
 261 603 l 1
 220 373 l 1
 335 373 l 2
 363 373 380 373 398 375 c 0
EndSplineSet
Position2: "'cpsp' Capital Spacing in Latin lookup 0 subtable" dx=5 dy=0 dh=10 dv=0
EndChar

StartChar: racute
Encoding: 341 341 191
Width: 347
GlyphClass: 2
Flags: MW
HStem: 0 21G<23 133 23 23> 510 20G<117 226 226 226> 518 20G<392 392> 524 20G<342.5 363.5> 577 114<197 386 197 386>
VStem: 23 369
AnchorPoint: "Anchor-0" 78 0 basechar 0
LayerCount: 2
Fore
SplineSet
263 577 m 1x9c
 197 577 l 1
 286 691 l 1
 386 691 l 1
 263 577 l 1x9c
356 544 m 0
 371 544 382 542 392 538 c 1
 377 452 l 1xac
 286 459 206 415 181 276 c 2
 133 0 l 1
 23 0 l 1
 117 530 l 1
 226 530 l 1
 210 440 l 1xcc
 269 514 l 1
 296 533 329 544 356 544 c 0
EndSplineSet
EndChar

StartChar: rcommaaccent
Encoding: 343 343 193
Width: 347
GlyphClass: 2
Flags: MW
HStem: -200 152<-31 121 -31 121> 0 21G<23 133 23 23> 510 20G<117 226 226 226> 518 20G<392 392> 524 20G<342.5 363.5>
VStem: -31 423
AnchorPoint: "Anchor-0" 78 0 basechar 0
LayerCount: 2
Fore
SplineSet
356 544 m 0xcc
 371 544 382 542 392 538 c 1
 377 452 l 1xd4
 286 459 206 415 181 276 c 2
 133 0 l 1
 23 0 l 1
 117 530 l 1
 226 530 l 1
 210 440 l 1xe4
 269 514 l 1
 296 533 329 544 356 544 c 0xcc
39 -48 m 1
 121 -48 l 1
 121 -55 l 1
 30 -200 l 1
 -31 -200 l 1
 39 -48 l 1
EndSplineSet
EndChar

StartChar: rcaron
Encoding: 345 345 192
Width: 347
GlyphClass: 2
Flags: MW
HStem: 0 21G<23 133 23 23> 510 20G<117 226 226 226> 518 20G<392 392> 524 20G<342.5 363.5> 577 114<196 196 196 224 150 277>
VStem: 23 369
AnchorPoint: "Anchor-0" 78 0 basechar 0
LayerCount: 2
Fore
SplineSet
196 577 m 1x9c
 150 691 l 1
 224 691 l 1
 246 626 l 1
 290 691 l 1
 363 691 l 1
 277 577 l 1
 196 577 l 1x9c
356 544 m 0
 371 544 382 542 392 538 c 1
 377 452 l 1xac
 286 459 206 415 181 276 c 2
 133 0 l 1
 23 0 l 1
 117 530 l 1
 226 530 l 1
 210 440 l 1xcc
 269 514 l 1
 296 533 329 544 356 544 c 0
EndSplineSet
EndChar

StartChar: Scedilla
Encoding: 350 350 83
Width: 581
GlyphClass: 2
Flags: MW
HStem: -210 49<183 216 183 231.5> -13 83<220 309 282 282> 620 84<310 387>
VStem: 98 120<479 542.5 479 548.5> 262 71<-131 -104 -147.5 -41> 417 120<154.5 222.5> 465 114<494 494>
AnchorPoint: "Anchor-0" 260 0 basechar 0
LayerCount: 2
Fore
SplineSet
579 494 m 1xfa
 465 494 l 1xfa
 471 573 427 620 347 620 c 0
 273 620 218 579 218 506 c 0
 218 452 256 424 347 402 c 0
 474 371 537 314 537 214 c 0
 537 81 426 -3 282 -13 c 1
 262 -41 l 1
 309 -49 333 -77 333 -114 c 0
 333 -181 270 -210 193 -210 c 0
 166 -210 146 -207 131 -202 c 1
 141 -154 l 1
 156 -160 173 -161 193 -161 c 0
 239 -161 262 -144 262 -118 c 0
 262 -90 229 -74 173 -81 c 1
 220 -13 l 1
 90 -3 8 71 17 200 c 1
 131 200 l 1
 134 115 186 70 267 70 c 0
 351 70 417 115 417 194 c 0xfc
 417 251 377 284 283 308 c 0
 172 336 98 381 98 477 c 0
 98 620 222 704 365 704 c 0
 518 704 586 614 579 494 c 1xfa
EndSplineSet
Substitution2: "'locl' Localized Forms in Latin lookup 2 subtable" Scommaaccent
Substitution2: "'locl' Localized Forms in Latin lookup 1 subtable" Scommaaccent
Substitution2: "'aalt' Access All Alternates in Latin lookup 0 subtable" Scommaaccent
Position2: "'cpsp' Capital Spacing in Latin lookup 0 subtable" dx=5 dy=0 dh=10 dv=0
EndChar

StartChar: scedilla
Encoding: 351 351 197
Width: 467
GlyphClass: 2
Flags: MW
HStem: -210 49<109 142 109 157.5> -20 78<202 236 180.5 270> -15 21G<144 144> 467 77<224.5 282>
VStem: 50 117<371 413 371 425> 188 71<-131 -104> 304 117<111.5 157.5> 338 111<378 378>
AnchorPoint: "Anchor-0" 182 0 basechar 0
LayerCount: 2
Fore
SplineSet
266 307 m 0xbe
 369 275 421 232 421 146 c 0
 421 49 338 -20 202 -20 c 1
 187 -41 l 1xd6
 235 -49 259 -77 259 -114 c 0
 259 -181 196 -210 119 -210 c 0
 92 -210 72 -207 57 -202 c 1
 67 -154 l 1
 82 -160 99 -161 119 -161 c 0
 165 -161 188 -144 188 -118 c 0
 188 -90 155 -74 99 -81 c 1
 144 -15 l 1xb6
 38 4 -7 75 -11 153 c 1
 101 153 l 1
 108 83 152 58 209 58 c 0
 263 58 304 87 304 136 c 0xd6
 304 179 275 204 195 230 c 0
 112 256 50 290 50 381 c 0
 50 469 121 544 260 544 c 0
 391 544 446 475 449 378 c 1
 338 378 l 1xbd
 334 434 308 467 256 467 c 0
 193 467 167 432 167 394 c 0
 167 348 201 327 266 307 c 0xbe
EndSplineSet
Substitution2: "'locl' Localized Forms in Latin lookup 2 subtable" scommaaccent
Substitution2: "'locl' Localized Forms in Latin lookup 1 subtable" scommaaccent
Substitution2: "'aalt' Access All Alternates in Latin lookup 0 subtable" scommaaccent
EndChar

StartChar: Scaron
Encoding: 352 352 82
Width: 581
GlyphClass: 2
Flags: MW
HStem: -14 84<226.5 309 226.5 331.5> 620 84<310 387> 736 102<328 328 328 356 280 411>
VStem: 98 120<479 542.5 479 548.5> 417 120<154.5 222.5> 465 114<494 494>
AnchorPoint: "Anchor-0" 260 0 basechar 0
LayerCount: 2
Fore
SplineSet
328 736 m 1xf8
 280 838 l 1
 356 838 l 1
 376 778 l 1
 417 838 l 1
 494 838 l 1
 411 736 l 1
 328 736 l 1xf8
579 494 m 1xf4
 465 494 l 1xf4
 471 573 427 620 347 620 c 0
 273 620 218 579 218 506 c 0
 218 452 256 424 347 402 c 0
 474 371 537 314 537 214 c 0
 537 72 411 -14 252 -14 c 0
 104 -14 7 61 17 200 c 1
 131 200 l 1
 134 115 186 70 267 70 c 0
 351 70 417 115 417 194 c 0xf8
 417 251 377 284 283 308 c 0
 172 336 98 381 98 477 c 0
 98 620 222 704 365 704 c 0
 518 704 586 614 579 494 c 1xf4
EndSplineSet
Position2: "'cpsp' Capital Spacing in Latin lookup 0 subtable" dx=5 dy=0 dh=10 dv=0
EndChar

StartChar: scaron
Encoding: 353 353 196
Width: 467
GlyphClass: 2
Flags: MW
HStem: -20 78<180.5 236 180.5 270.5> 467 77<224.5 282> 577 114<243 243 243 271 197 324>
VStem: 50 117<371 413 371 425> 304 117<111.5 157.5> 338 111<378 378>
AnchorPoint: "Anchor-0" 182 0 basechar 0
LayerCount: 2
Fore
SplineSet
243 577 m 1xf8
 197 691 l 1
 271 691 l 1
 293 626 l 1
 337 691 l 1
 410 691 l 1
 324 577 l 1
 243 577 l 1xf8
266 307 m 0
 369 275 421 232 421 146 c 0
 421 49 338 -20 203 -20 c 0
 54 -20 -6 62 -11 153 c 1
 101 153 l 1
 108 83 152 58 209 58 c 0
 263 58 304 87 304 136 c 0xf8
 304 179 275 204 195 230 c 0
 112 256 50 290 50 381 c 0
 50 469 121 544 260 544 c 0
 391 544 446 475 449 378 c 1
 338 378 l 1xf4
 334 434 308 467 256 467 c 0
 193 467 167 432 167 394 c 0
 167 348 201 327 266 307 c 0
EndSplineSet
EndChar

StartChar: Tcedilla
Encoding: 354 354 88
Width: 618
GlyphClass: 2
Flags: MW
HStem: -210 49<201 234 201 249.5> 0 21G<223 247 223 223 309 333 309 309> 603 87<105 330 89 695 440 440 440 679>
VStem: 280 71<-131 -104>
AnchorPoint: "Anchor-0" 278 0 basechar 0
LayerCount: 2
Fore
SplineSet
309 0 m 1
 279 -41 l 1
 327 -49 351 -77 351 -114 c 0
 351 -181 288 -210 211 -210 c 0
 184 -210 164 -207 149 -202 c 1
 159 -154 l 1
 174 -160 191 -161 211 -161 c 0
 257 -161 280 -144 280 -118 c 0
 280 -90 247 -74 191 -81 c 1
 247 0 l 1
 223 0 l 1
 330 603 l 1
 89 603 l 1
 105 690 l 1
 695 690 l 1
 679 603 l 1
 440 603 l 1
 333 0 l 1
 309 0 l 1
EndSplineSet
Substitution2: "'locl' Localized Forms in Latin lookup 2 subtable" uni021A
Substitution2: "'locl' Localized Forms in Latin lookup 1 subtable" uni021A
Substitution2: "'aalt' Access All Alternates in Latin lookup 0 subtable" uni021A
Position2: "'cpsp' Capital Spacing in Latin lookup 0 subtable" dx=5 dy=0 dh=10 dv=0
EndChar

StartChar: tcedilla
Encoding: 355 355 203
Width: 326
GlyphClass: 2
Flags: MW
HStem: -210 49<59 92 59 107.5> -10 81.84 -1 21G<104 104> 450 77<57 116 43 130 239 322>
VStem: 54 115<54.5 121> 138 71<-131 -104>
AnchorPoint: "Anchor-0" 132 0 basechar 0
LayerCount: 2
Fore
SplineSet
225 450 m 1xd4
 176 172 l 2
 170 139 169 127 169 115 c 0
 169 75 197 66 258 75 c 1
 244 0 l 1
 220 -6 192 -10 165 -10 c 2
 159 -10 l 1xd8
 137 -41 l 1
 185 -49 209 -77 209 -114 c 0
 209 -181 146 -210 69 -210 c 0
 42 -210 22 -207 7 -202 c 1
 17 -154 l 1
 32 -160 49 -161 69 -161 c 0
 115 -161 138 -144 138 -118 c 0
 138 -90 105 -74 49 -81 c 1xd4
 104 -1 l 1
 70 10 54 35 54 74 c 0
 54 91 57 117 65 162 c 2
 116 450 l 1
 43 450 l 1
 57 527 l 1
 130 527 l 1
 152 654 l 1xb8
 261 654 l 1
 239 527 l 1
 336 527 l 1
 322 450 l 1
 225 450 l 1xd4
EndSplineSet
Substitution2: "'locl' Localized Forms in Latin lookup 2 subtable" uni021B
Substitution2: "'locl' Localized Forms in Latin lookup 1 subtable" uni021B
Substitution2: "'aalt' Access All Alternates in Latin lookup 0 subtable" uni021B
EndChar

StartChar: Tcaron
Encoding: 356 356 87
Width: 618
GlyphClass: 2
Flags: MW
HStem: 0 21G<223 333 223 223> 603 87<105 330 89 695 440 679 440 440> 736 102<368 368 368 396 320 451>
VStem: 89 606<603 690>
AnchorPoint: "Anchor-0" 278 0 basechar 0
LayerCount: 2
Fore
SplineSet
368 736 m 1
 320 838 l 1
 396 838 l 1
 416 778 l 1
 457 838 l 1
 534 838 l 1
 451 736 l 1
 368 736 l 1
679 603 m 1
 440 603 l 1
 333 0 l 1
 223 0 l 1
 330 603 l 1
 89 603 l 1
 105 690 l 1
 695 690 l 1
 679 603 l 1
EndSplineSet
Position2: "'cpsp' Capital Spacing in Latin lookup 0 subtable" dx=5 dy=0 dh=10 dv=0
EndChar

StartChar: tcaron
Encoding: 357 357 202
Width: 326
GlyphClass: 2
Flags: MW
HStem: -10 81.84 -10 85<127.5 258> 450 77<57 116 43 130 239 322> 586 68<152 344 152 284> 586 153<284 436 284 436>
VStem: 54 115<45 121>
AnchorPoint: "Anchor-0" 132 0 basechar 0
LayerCount: 2
Fore
SplineSet
436 739 m 1xac
 436 731 l 1
 344 586 l 1
 284 586 l 1
 353 739 l 1
 436 739 l 1xac
239 527 m 1
 336 527 l 1
 322 450 l 1
 225 450 l 1
 176 172 l 2
 170 139 169 127 169 115 c 0xac
 169 75 197 66 258 75 c 1x6c
 244 0 l 1
 220 -6 192 -10 165 -10 c 0
 90 -10 54 16 54 74 c 0
 54 91 57 117 65 162 c 2
 116 450 l 1
 43 450 l 1
 57 527 l 1
 130 527 l 1
 152 654 l 1
 261 654 l 1xb4
 239 527 l 1
EndSplineSet
EndChar

StartChar: Tbar
Encoding: 358 358 86
Width: 641
GlyphClass: 2
Flags: MW
HStem: 0 21G<223 333 223 223> 302 66<186 276 174 288 398 496> 603 87<105 330 89 695 440 679 440 440>
VStem: 89 606<603 690>
AnchorPoint: "Anchor-0" 278 0 basechar 0
LayerCount: 2
Fore
SplineSet
440 603 m 1
 398 368 l 1
 508 368 l 1
 496 302 l 1
 386 302 l 1
 333 0 l 1
 223 0 l 1
 276 302 l 1
 174 302 l 1
 186 368 l 1
 288 368 l 1
 330 603 l 1
 89 603 l 1
 105 690 l 1
 695 690 l 1
 679 603 l 1
 440 603 l 1
EndSplineSet
Position2: "'cpsp' Capital Spacing in Latin lookup 0 subtable" dx=5 dy=0 dh=10 dv=0
EndChar

StartChar: tbar
Encoding: 359 359 201
Width: 326
GlyphClass: 2
Flags: MW
HStem: -10 81.84 -10 85<127.5 258> 283 63<31 86 20 98 207 275> 450 77<57 116 43 130 239 322>
VStem: 54 115<45 121>
AnchorPoint: "Anchor-0" 132 0 basechar 0
LayerCount: 2
Fore
SplineSet
225 450 m 1xb8
 207 346 l 1
 286 346 l 1
 275 283 l 1
 196 283 l 1
 176 172 l 2
 170 139 169 127 169 115 c 0xb8
 169 75 197 66 258 75 c 1x78
 244 0 l 1
 220 -6 192 -10 165 -10 c 0
 90 -10 54 16 54 74 c 0
 54 91 57 117 65 162 c 2
 86 283 l 1
 20 283 l 1
 31 346 l 1
 98 346 l 1
 116 450 l 1
 43 450 l 1
 57 527 l 1
 130 527 l 1
 152 654 l 1
 261 654 l 1
 239 527 l 1
 336 527 l 1
 322 450 l 1
 225 450 l 1xb8
EndSplineSet
EndChar

StartChar: Uring
Encoding: 366 366 98
Width: 692
GlyphClass: 2
Flags: MW
HStem: -14 84<282 375.5 282 404.5> 670 20G<163 273 273 273 595 705 705 705> 718 43<436 459 436 472.5> 845 44<449 472>
VStem: 80 110<153 197> 355 58<785 811 785 821.5> 495 58<795.5 821>
LayerCount: 2
Fore
SplineSet
466 889 m 0
 520 889 553 857 553 815 c 0
 553 754 503 718 442 718 c 0xfe
 388 718 355 749 355 791 c 0
 355 852 405 889 466 889 c 0
462 845 m 0
 436 845 413 827 413 795 c 0
 413 775 426 761 446 761 c 0xfe
 472 761 495 780 495 811 c 0
 495 831 482 845 462 845 c 0
705 690 m 1
 631 272 l 2
 626 244 622 224 616 199 c 0
 584 66 494 -14 315 -14 c 0
 157 -14 80 60 80 181 c 0
 80 213 84 241 91 280 c 2
 163 690 l 1
 273 690 l 1
 199 270 l 2
 192 230 190 214 190 190 c 0
 190 116 237 70 327 70 c 0
 424 70 482 109 509 209 c 0
 513 225 517 244 521 265 c 2
 595 690 l 1
 705 690 l 1
EndSplineSet
Position2: "'cpsp' Capital Spacing in Latin lookup 0 subtable" dx=5 dy=0 dh=10 dv=0
EndChar

StartChar: uring
Encoding: 367 367 213
Width: 602
GlyphClass: 2
Flags: MW
HStem: -14 82 0 68 511 20G<109 219 219 219 471 580 580 580> 566 43<355 379.5 355 390.5> 702 43<366.5 391>
VStem: 42 114<129.5 136> 273 59<633 660 633 670> 414 59<651 678>
LayerCount: 2
Fore
SplineSet
358 566 m 0xbf
 306 566 273 595 273 640 c 0
 273 700 323 745 389 745 c 0
 440 745 473 716 473 671 c 0
 473 611 423 566 358 566 c 0xbf
381 702 m 0
 352 702 332 676 332 644 c 0
 332 622 345 609 365 609 c 0
 394 609 414 635 414 667 c 0
 414 689 401 702 381 702 c 0
580 531 m 1
 487 0 l 1
 377 0 l 1
 392 86 l 1x7f
 345 27 l 1
 297 -5 257 -14 204 -14 c 0
 96 -14 42 40 42 122 c 0
 42 150 44 171 55 231 c 2
 109 531 l 1
 219 531 l 1
 167 245 l 2
 159 203 156 176 156 155 c 0
 156 104 182 66 251 68 c 1
 328 69 399 127 428 291 c 1
 429 294 l 1
 471 531 l 1
 580 531 l 1
EndSplineSet
EndChar

StartChar: Uhungarumlaut
Encoding: 368 368 95
Width: 692
GlyphClass: 2
Flags: MW
HStem: -14 84<282 375.5 282 404.5> 670 20G<163 273 273 273 595 705 705 705> 736 102<319 500 319 500 453 453 453 500 400 519>
VStem: 80 110<153 197>
LayerCount: 2
Fore
SplineSet
385 736 m 1
 319 736 l 1
 400 838 l 1
 500 838 l 1
 385 736 l 1
519 736 m 1
 453 736 l 1
 534 838 l 1
 634 838 l 1
 519 736 l 1
705 690 m 1
 631 272 l 2
 626 244 622 224 616 199 c 0
 584 66 494 -14 315 -14 c 0
 157 -14 80 60 80 181 c 0
 80 213 84 241 91 280 c 2
 163 690 l 1
 273 690 l 1
 199 270 l 2
 192 230 190 214 190 190 c 0
 190 116 237 70 327 70 c 0
 424 70 482 109 509 209 c 0
 513 225 517 244 521 265 c 2
 595 690 l 1
 705 690 l 1
EndSplineSet
Position2: "'cpsp' Capital Spacing in Latin lookup 0 subtable" dx=5 dy=0 dh=10 dv=0
EndChar

StartChar: uhungarumlaut
Encoding: 369 369 210
Width: 602
GlyphClass: 2
Flags: MW
HStem: -14 82 0 68 511 20G<109 219 219 219 471 580 580 580> 577 114<247 436 247 436 391 436 336 457 391 391>
VStem: 42 114<129.5 136>
LayerCount: 2
Fore
SplineSet
313 577 m 1xb8
 247 577 l 1
 336 691 l 1
 436 691 l 1
 313 577 l 1xb8
391 577 m 1
 480 691 l 1
 580 691 l 1
 457 577 l 1
 391 577 l 1
471 531 m 1
 580 531 l 1
 487 0 l 1
 377 0 l 1
 392 86 l 1x78
 345 27 l 1
 297 -5 257 -14 204 -14 c 0
 96 -14 42 40 42 122 c 0
 42 150 44 171 55 231 c 2
 109 531 l 1
 219 531 l 1
 167 245 l 2
 159 203 156 176 156 155 c 0
 156 104 182 66 251 68 c 1
 328 69 399 127 428 291 c 1
 429 294 l 1
 471 531 l 1
EndSplineSet
EndChar

StartChar: Uogonek
Encoding: 370 370 97
Width: 692
GlyphClass: 2
Flags: MW
HStem: -223 66<271 363.5> -14 84 670 20G<163 273 273 273 595 705 705 705>
VStem: 80 110<153 197> 209 109<-131 -123.5>
LayerCount: 2
Fore
SplineSet
705 690 m 1
 631 272 l 2
 626 244 622 224 616 199 c 0
 589 87 520 12 392 -8 c 1
 347 -29 318 -80 318 -116 c 0
 318 -146 332 -157 354 -157 c 0
 373 -157 391 -152 410 -138 c 1
 400 -190 l 1
 374 -210 337 -223 294 -223 c 0
 248 -223 209 -203 209 -149 c 0xf8
 209 -98 239 -49 296 -14 c 1
 151 -8 80 65 80 181 c 0
 80 213 84 241 91 280 c 2
 163 690 l 1
 273 690 l 1
 199 270 l 2
 192 230 190 214 190 190 c 0
 190 116 237 70 327 70 c 0
 424 70 482 109 509 209 c 0
 513 225 517 244 521 265 c 2
 595 690 l 1
 705 690 l 1
EndSplineSet
Position2: "'cpsp' Capital Spacing in Latin lookup 0 subtable" dx=5 dy=0 dh=10 dv=0
EndChar

StartChar: uogonek
Encoding: 371 371 212
Width: 602
GlyphClass: 2
Flags: MW
HStem: -223 66<314 406.5> -14 82 0 21G<463 487 463 463> 511 20G<109 219 219 219 471 580 580 580>
VStem: 42 114<129.5 136> 252 109<-131 -118>
LayerCount: 2
Fore
SplineSet
580 531 m 1xdc
 487 0 l 1
 463 0 l 1xbc
 403 -8 361 -73 361 -116 c 0
 361 -146 375 -157 397 -157 c 0
 416 -157 434 -152 453 -138 c 1
 443 -190 l 1
 417 -210 380 -223 337 -223 c 0
 291 -223 252 -203 252 -149 c 0
 252 -87 296 -28 378 6 c 1
 392 86 l 1
 345 27 l 1
 297 -5 257 -14 204 -14 c 0
 96 -14 42 40 42 122 c 0
 42 150 44 171 55 231 c 2
 109 531 l 1
 219 531 l 1
 167 245 l 2
 159 203 156 176 156 155 c 0
 156 104 182 66 251 68 c 1
 328 69 399 127 428 291 c 1
 429 294 l 1
 471 531 l 1
 580 531 l 1xdc
EndSplineSet
EndChar

StartChar: wcircumflex
Encoding: 373 373 217
Width: 781
GlyphClass: 2
Flags: MW
HStem: 0 21G<109 237 109 109 447 574 447 447> 0 102<533 533 533 574 447 533> 428 102<417 417> 510 20G<367 503 503 503> 511 20G<34 158 158 158 718 837 837 837> 577 114<340 508 340 508 479 479 479 508 427 553> 642 49<458 458>
VStem: 34 803<531 531>
LayerCount: 2
Fore
SplineSet
413 577 m 1x8d
 340 577 l 1
 427 691 l 1
 508 691 l 1
 553 577 l 1
 479 577 l 1x4d
 458 642 l 1x8b
 413 577 l 1x8d
837 531 m 1
 574 0 l 1
 447 0 l 1
 417 428 l 1xa5
 237 0 l 1
 109 0 l 1
 34 531 l 1
 158 531 l 1x8d
 192 104 l 1
 367 530 l 1
 503 530 l 1x55
 533 102 l 1
 718 531 l 1
 837 531 l 1
EndSplineSet
EndChar

StartChar: Ycircumflex
Encoding: 374 374 108
Width: 607
GlyphClass: 2
Flags: MW
HStem: 0 21G<217 327 217 217> 670 20G<95 212 212 212 567 692 692 692> 736 102<296 461 296 461 433 433 433 461 379 509>
VStem: 95 597<690 690>
LayerCount: 2
Fore
SplineSet
371 736 m 1
 296 736 l 1
 379 838 l 1
 461 838 l 1
 509 736 l 1
 433 736 l 1
 412 795 l 1
 371 736 l 1
373 266 m 1
 327 0 l 1
 217 0 l 1
 265 269 l 1
 95 690 l 1
 212 690 l 1
 336 366 l 1
 567 690 l 1
 692 690 l 1
 373 266 l 1
EndSplineSet
Position2: "'cpsp' Capital Spacing in Latin lookup 0 subtable" dx=5 dy=0 dh=10 dv=0
EndChar

StartChar: ycircumflex
Encoding: 375 375 223
Width: 517
GlyphClass: 2
Flags: MW
HStem: -210 82<17 48 17 76.5> 511 20G<34 158 158 158 449 572 572 572> 577 114<204 372 204 372 343 343 343 372 291 417> 642 49<322 322>
VStem: -26 598
LayerCount: 2
Fore
SplineSet
277 577 m 1xe8
 204 577 l 1
 291 691 l 1
 372 691 l 1
 417 577 l 1
 343 577 l 1xe8
 322 642 l 1xd8
 277 577 l 1xe8
572 531 m 1
 275 0 l 2
 185 -161 129 -210 24 -210 c 0
 6 -210 -11 -209 -26 -206 c 1
 -13 -125 l 1
 0 -127 11 -128 23 -128 c 0
 73 -128 107 -107 141 -43 c 2
 149 -28 l 1
 34 531 l 1
 158 531 l 1
 225 85 l 1
 449 531 l 1
 572 531 l 1
EndSplineSet
EndChar

StartChar: Ydieresis
Encoding: 376 376 109
Width: 607
GlyphClass: 2
Flags: MW
HStem: 0 21G<217 327 217 217> 670 20G<95 212 212 212 567 692 692 692> 733 106<325 340 480 495>
VStem: 278 108<777 795.5> 433 108<777 795.5>
LayerCount: 2
Fore
SplineSet
325 733 m 0
 296 733 278 752 278 778 c 0
 278 813 310 839 340 839 c 0
 368 839 386 821 386 794 c 0
 386 760 355 733 325 733 c 0
480 733 m 0
 451 733 433 752 433 778 c 0
 433 813 465 839 495 839 c 0
 523 839 541 821 541 794 c 0
 541 760 510 733 480 733 c 0
373 266 m 1
 327 0 l 1
 217 0 l 1
 265 269 l 1
 95 690 l 1
 212 690 l 1
 336 366 l 1
 567 690 l 1
 692 690 l 1
 373 266 l 1
EndSplineSet
Position2: "'cpsp' Capital Spacing in Latin lookup 0 subtable" dx=5 dy=0 dh=10 dv=0
EndChar

StartChar: zacute
Encoding: 378 378 227
Width: 491
GlyphClass: 2
Flags: MW
HStem: 0 79<126 414> 448 79<96 358 82 501 487 487> 577 114<262 451 262 451>
VStem: -19 520
LayerCount: 2
Fore
SplineSet
328 577 m 1
 262 577 l 1
 351 691 l 1
 451 691 l 1
 328 577 l 1
487 448 m 1
 126 79 l 1
 428 79 l 1
 414 0 l 1
 -19 0 l 1
 -6 76 l 1
 358 448 l 1
 82 448 l 1
 96 527 l 1
 501 527 l 1
 487 448 l 1
EndSplineSet
EndChar

StartChar: Zdotaccent
Encoding: 379 379 114
Width: 605
GlyphClass: 2
Flags: MW
HStem: 0 88<155 534> 603 87<151 499 135 651> 733 113<397 417>
VStem: 349 117<781.5 798>
LayerCount: 2
Fore
SplineSet
398 733 m 0
 368 733 349 753 349 781 c 0
 349 815 378 846 416 846 c 0
 446 846 466 827 466 798 c 0
 466 765 436 733 398 733 c 0
636 604 m 1
 155 88 l 1
 550 88 l 1
 534 0 l 1
 1 0 l 1
 16 84 l 1
 499 603 l 1
 135 603 l 1
 151 690 l 1
 651 690 l 1
 636 604 l 1
EndSplineSet
Position2: "'cpsp' Capital Spacing in Latin lookup 0 subtable" dx=5 dy=0 dh=10 dv=0
EndChar

StartChar: zdotaccent
Encoding: 380 380 229
Width: 491
GlyphClass: 2
Flags: MW
HStem: 0 79<126 414> 448 79<96 358 82 501 487 487> 589 127<302 327.5>
VStem: 249 131<643.5 662.5>
LayerCount: 2
Fore
SplineSet
305 589 m 0
 271 589 249 611 249 643 c 0
 249 682 280 716 324 716 c 0
 358 716 380 694 380 663 c 0
 380 624 350 589 305 589 c 0
487 448 m 1
 126 79 l 1
 428 79 l 1
 414 0 l 1
 -19 0 l 1
 -6 76 l 1
 358 448 l 1
 82 448 l 1
 96 527 l 1
 501 527 l 1
 487 448 l 1
EndSplineSet
EndChar

StartChar: Zcaron
Encoding: 381 381 113
Width: 605
GlyphClass: 2
Flags: MW
HStem: 0 88<155 534> 603 87<151 499 135 651> 736 102<358 358 358 386 310 441>
VStem: 1 650
LayerCount: 2
Fore
SplineSet
358 736 m 1
 310 838 l 1
 386 838 l 1
 406 778 l 1
 447 838 l 1
 524 838 l 1
 441 736 l 1
 358 736 l 1
636 604 m 1
 155 88 l 1
 550 88 l 1
 534 0 l 1
 1 0 l 1
 16 84 l 1
 499 603 l 1
 135 603 l 1
 151 690 l 1
 651 690 l 1
 636 604 l 1
EndSplineSet
Position2: "'cpsp' Capital Spacing in Latin lookup 0 subtable" dx=5 dy=0 dh=10 dv=0
EndChar

StartChar: zcaron
Encoding: 382 382 228
Width: 491
GlyphClass: 2
Flags: MW
HStem: 0 79<126 414> 448 79<96 358 82 501 487 487> 577 114<261 261 261 289 215 342>
VStem: -19 520
LayerCount: 2
Fore
SplineSet
261 577 m 1
 215 691 l 1
 289 691 l 1
 311 626 l 1
 355 691 l 1
 428 691 l 1
 342 577 l 1
 261 577 l 1
487 448 m 1
 126 79 l 1
 428 79 l 1
 414 0 l 1
 -19 0 l 1
 -6 76 l 1
 358 448 l 1
 82 448 l 1
 96 527 l 1
 501 527 l 1
 487 448 l 1
EndSplineSet
EndChar

StartChar: Scommaaccent
Encoding: 536 536 84
Width: 581
GlyphClass: 2
Flags: MW
HStem: -200 152<152 303 152 303> -14 84<226.5 309 226.5 331.5> 620 84<310 387>
VStem: 98 120<479 542.5 479 548.5> 417 120<154.5 222.5> 465 114<494 494>
AnchorPoint: "Anchor-0" 260 0 basechar 0
LayerCount: 2
Fore
SplineSet
365 704 m 0xf4
 518 704 586 614 579 494 c 1
 465 494 l 1xf4
 471 573 427 620 347 620 c 0
 273 620 218 579 218 506 c 0
 218 452 256 424 347 402 c 0
 474 371 537 314 537 214 c 0
 537 72 411 -14 252 -14 c 0
 104 -14 7 61 17 200 c 1
 131 200 l 1
 134 115 186 70 267 70 c 0
 351 70 417 115 417 194 c 0xf8
 417 251 377 284 283 308 c 0
 172 336 98 381 98 477 c 0
 98 620 222 704 365 704 c 0xf4
303 -55 m 1xf8
 212 -200 l 1
 152 -200 l 1
 221 -48 l 1
 303 -48 l 1
 303 -55 l 1xf8
EndSplineSet
Position2: "'cpsp' Capital Spacing in Latin lookup 0 subtable" dx=5 dy=0 dh=10 dv=0
EndChar

StartChar: scommaaccent
Encoding: 537 537 198
Width: 467
GlyphClass: 2
Flags: MW
HStem: -200 152<74 225 74 225> -20 78<180.5 236 180.5 270.5> 467 77<224.5 282>
VStem: 50 117<371 413 371 425> 304 117<111.5 157.5> 338 111<378 378>
AnchorPoint: "Anchor-0" 182 0 basechar 0
LayerCount: 2
Fore
SplineSet
260 544 m 0x74
 391 544 446 475 449 378 c 1
 338 378 l 1x74
 334 434 308 467 256 467 c 0
 193 467 167 432 167 394 c 0
 167 348 201 327 266 307 c 0
 369 275 421 232 421 146 c 0
 421 49 338 -20 203 -20 c 0
 54 -20 -6 62 -11 153 c 1
 101 153 l 1
 108 83 152 58 209 58 c 0
 263 58 304 87 304 136 c 0x78
 304 179 275 204 195 230 c 0
 112 256 50 290 50 381 c 0
 50 469 121 544 260 544 c 0x74
225 -55 m 1xf8
 134 -200 l 1
 74 -200 l 1
 143 -48 l 1
 225 -48 l 1
 225 -55 l 1xf8
EndSplineSet
EndChar

StartChar: uni021A
Encoding: 538 538 89
Width: 618
GlyphClass: 2
Flags: MW
HStem: -200 152<170 321 170 321> 0 21G<223 333 223 223> 603 87<105 330 89 695 440 679 440 440>
VStem: 89 606<603 690>
AnchorPoint: "Anchor-0" 278 0 basechar 0
LayerCount: 2
Fore
SplineSet
679 603 m 1
 440 603 l 1
 333 0 l 1
 223 0 l 1
 330 603 l 1
 89 603 l 1
 105 690 l 1
 695 690 l 1
 679 603 l 1
239 -48 m 1
 321 -48 l 1
 321 -55 l 1
 230 -200 l 1
 170 -200 l 1
 239 -48 l 1
EndSplineSet
Position2: "'cpsp' Capital Spacing in Latin lookup 0 subtable" dx=5 dy=0 dh=10 dv=0
EndChar

StartChar: uni021B
Encoding: 539 539 204
Width: 326
GlyphClass: 2
Flags: MW
HStem: -200 152<24 175 24 175> -10 81.84 -10 85<127.5 258> 450 77<57 116 43 130 239 322>
VStem: 54 115<45 121>
AnchorPoint: "Anchor-0" 132 0 basechar 0
LayerCount: 2
Fore
SplineSet
225 450 m 1x58
 176 172 l 2
 170 139 169 127 169 115 c 0xd8
 169 75 197 66 258 75 c 1x38
 244 0 l 1
 220 -6 192 -10 165 -10 c 0
 90 -10 54 16 54 74 c 0
 54 91 57 117 65 162 c 2
 116 450 l 1
 43 450 l 1
 57 527 l 1
 130 527 l 1
 152 654 l 1
 261 654 l 1
 239 527 l 1
 336 527 l 1
 322 450 l 1
 225 450 l 1x58
93 -48 m 1
 175 -48 l 1
 175 -55 l 1
 84 -200 l 1
 24 -200 l 1
 93 -48 l 1
EndSplineSet
EndChar

StartChar: circumflex
Encoding: 710 710 330
Width: 300
Flags: MW
HStem: 577 114<34 202 34 202 173 202 121 247 173 173> 642 49<152 152>
VStem: 34 213<577 577>
LayerCount: 2
Fore
SplineSet
173 577 m 1xa0
 152 642 l 1x60
 107 577 l 1
 34 577 l 1
 121 691 l 1
 202 691 l 1
 247 577 l 1
 173 577 l 1xa0
EndSplineSet
EndChar

StartChar: caron
Encoding: 711 711 328
Width: 300
Flags: MW
HStem: 577 114<100 128 54 181 100 100>
VStem: 54 213<691 691>
LayerCount: 2
Fore
SplineSet
267 691 m 1
 181 577 l 1
 100 577 l 1
 54 691 l 1
 128 691 l 1
 150 626 l 1
 194 691 l 1
 267 691 l 1
EndSplineSet
EndChar

StartChar: breve
Encoding: 728 728 327
Width: 300
Flags: MW
HStem: 566 63<130.5 164.5 130.5 174.5> 566 126<94 113 51 174.5>
VStem: 47.45 65.55
LayerCount: 2
Fore
SplineSet
209 692 m 1x60
 272 692 l 1
 256 607 210 566 139 566 c 0
 49 566 40 631 51 692 c 1
 113 692 l 1x60
 109 658 111 629 150 629 c 0xa0
 179 629 200 646 209 692 c 1x60
EndSplineSet
EndChar

StartChar: dotaccent
Encoding: 729 729 332
Width: 300
Flags: MW
HStem: 589 127<140 165.5>
VStem: 87 131<643.5 662.5>
LayerCount: 2
Fore
SplineSet
162 716 m 0
 196 716 218 694 218 663 c 0
 218 624 188 589 143 589 c 0
 109 589 87 611 87 643 c 0
 87 682 118 716 162 716 c 0
EndSplineSet
EndChar

StartChar: ring
Encoding: 730 730 337
Width: 300
Flags: MW
HStem: 566 43<132 156.5 132 167.5> 702 43<143.5 168>
VStem: 50 59<633 660 633 670> 191 59<651 678>
LayerCount: 2
Fore
SplineSet
166 745 m 0
 217 745 250 716 250 671 c 0
 250 611 200 566 135 566 c 0
 83 566 50 595 50 640 c 0
 50 700 100 745 166 745 c 0
158 702 m 0
 129 702 109 676 109 644 c 0
 109 622 122 609 142 609 c 0
 171 609 191 635 191 667 c 0
 191 689 178 702 158 702 c 0
EndSplineSet
EndChar

StartChar: ogonek
Encoding: 731 731 336
Width: 300
Flags: MW
HStem: -223 66<98 190.5> 0 21G<247 247>
VStem: 36 109<-131 -117>
LayerCount: 2
Fore
SplineSet
171 10 m 1
 247 0 l 1
 187 -8 145 -73 145 -116 c 0
 145 -146 159 -157 181 -157 c 0
 200 -157 218 -152 237 -138 c 1
 227 -190 l 1
 201 -210 164 -223 121 -223 c 0
 75 -223 36 -203 36 -149 c 0
 36 -85 83 -24 171 10 c 1
EndSplineSet
EndChar

StartChar: tilde
Encoding: 732 732 338
Width: 300
Flags: MW
HStem: 589 87<193.5 278> 593 87<22 107 22 107>
VStem: 22 256<593 676>
LayerCount: 2
Fore
SplineSet
97 680 m 0x60
 117 680 133 676 162 665 c 0
 185 656 196 653 205 653 c 0
 216 653 222 659 226 676 c 1
 278 676 l 1
 266 611 243 589 203 589 c 0xa0
 184 589 168 593 138 604 c 0
 116 613 105 616 95 616 c 0
 85 616 78 610 75 593 c 1
 22 593 l 1
 34 658 57 680 97 680 c 0x60
EndSplineSet
EndChar

StartChar: hungarumlaut
Encoding: 733 733 334
Width: 300
Flags: MW
HStem: 577 114<27 216 27 216 171 171 171 216 116 237>
VStem: 27 333<577 691>
LayerCount: 2
Fore
SplineSet
93 577 m 1
 27 577 l 1
 116 691 l 1
 216 691 l 1
 93 577 l 1
237 577 m 1
 171 577 l 1
 260 691 l 1
 360 691 l 1
 237 577 l 1
EndSplineSet
EndChar

StartChar: uni0326
Encoding: 806 806 339
Width: 0
GlyphClass: 4
Flags: MW
HStem: -200 152<64 215 64 215>
VStem: 64 151<-200 -55>
AnchorPoint: "Anchor-0" 172 0 mark 0
LayerCount: 2
Fore
SplineSet
215 -55 m 1
 124 -200 l 1
 64 -200 l 1
 133 -48 l 1
 215 -48 l 1
 215 -55 l 1
EndSplineSet
EndChar

StartChar: wgrave
Encoding: 7809 7809 219
Width: 781
GlyphClass: 2
Flags: MW
HStem: 0 21G<109 237 109 109 447 574 447 447> 0 102<533 533 533 574 447 533> 428 102<417 417> 510 20G<367 503 503 503> 511 20G<34 158 158 158 718 837 837 837> 577 114<420 420 420 438 338 486>
VStem: 34 803<531 531>
LayerCount: 2
Fore
SplineSet
420 577 m 1x8e
 338 691 l 1
 438 691 l 1
 486 577 l 1
 420 577 l 1x8e
837 531 m 1
 574 0 l 1
 447 0 l 1
 417 428 l 1xa6
 237 0 l 1
 109 0 l 1
 34 531 l 1
 158 531 l 1x8e
 192 104 l 1
 367 530 l 1
 503 530 l 1
 533 102 l 1x56
 718 531 l 1
 837 531 l 1
EndSplineSet
EndChar

StartChar: Wacute
Encoding: 7810 7810 101
Width: 969
GlyphClass: 2
Flags: MW
HStem: 0 21G<159 305 159 159 587 732 587 587> 0 98<678 678 678 732 587 678> 670 20G<101 219 219 219 920 1041 1041 1041> 736 102<544 725 544 725>
VStem: 101 940<690 690>
LayerCount: 2
Fore
SplineSet
610 736 m 1xb8
 544 736 l 1
 625 838 l 1
 725 838 l 1
 610 736 l 1xb8
1041 690 m 1
 732 0 l 1
 587 0 l 1
 551 579 l 1
 305 0 l 1
 159 0 l 1
 101 690 l 1
 219 690 l 1
 251 102 l 1
 490 680 l 1
 646 680 l 1
 678 98 l 1x78
 920 690 l 1
 1041 690 l 1
EndSplineSet
Position2: "'cpsp' Capital Spacing in Latin lookup 0 subtable" dx=5 dy=0 dh=10 dv=0
EndChar

StartChar: Wdieresis
Encoding: 7812 7812 103
Width: 969
GlyphClass: 2
Flags: MW
HStem: 0 21G<159 305 159 159 587 732 587 587> 0 98<678 678 678 732 587 678> 670 20G<101 219 219 219 920 1041 1041 1041> 733 106<505 520 660 675>
VStem: 458 108<777 795.5> 613 108<777 795.5>
LayerCount: 2
Fore
SplineSet
505 733 m 0xbc
 476 733 458 752 458 778 c 0
 458 813 490 839 520 839 c 0
 548 839 566 821 566 794 c 0
 566 760 535 733 505 733 c 0xbc
660 733 m 0
 631 733 613 752 613 778 c 0
 613 813 645 839 675 839 c 0
 703 839 721 821 721 794 c 0
 721 760 690 733 660 733 c 0
1041 690 m 1
 732 0 l 1
 587 0 l 1
 551 579 l 1
 305 0 l 1
 159 0 l 1
 101 690 l 1
 219 690 l 1
 251 102 l 1
 490 680 l 1
 646 680 l 1
 678 98 l 1x7c
 920 690 l 1
 1041 690 l 1
EndSplineSet
Position2: "'cpsp' Capital Spacing in Latin lookup 0 subtable" dx=5 dy=0 dh=10 dv=0
EndChar

StartChar: wdieresis
Encoding: 7813 7813 218
Width: 781
GlyphClass: 2
Flags: MW
HStem: 0 21G<109 237 109 109 447 574 447 447> 0 102<533 533 533 574 447 533> 428 102<417 417> 510 20G<367 503 503 503> 511 20G<34 158 158 158 718 837 837 837> 580 105<366 380 526 540>
VStem: 319 108<623.5 641.5> 479 108<623.5 641.5>
LayerCount: 2
Fore
SplineSet
365 580 m 0x8f
 337 580 319 598 319 624 c 0
 319 659 351 685 381 685 c 0
 409 685 427 667 427 641 c 0
 427 606 395 580 365 580 c 0x8f
525 580 m 0
 497 580 479 598 479 624 c 0
 479 659 511 685 541 685 c 0
 568 685 587 667 587 641 c 0
 587 606 555 580 525 580 c 0
837 531 m 1
 574 0 l 1
 447 0 l 1
 417 428 l 1xa7
 237 0 l 1
 109 0 l 1
 34 531 l 1
 158 531 l 1x8f
 192 104 l 1
 367 530 l 1
 503 530 l 1
 533 102 l 1x57
 718 531 l 1
 837 531 l 1
EndSplineSet
EndChar

StartChar: Ygrave
Encoding: 7922 7922 110
Width: 607
GlyphClass: 2
Flags: MW
HStem: 0 21G<217 327 217 217> 670 20G<95 212 212 212 567 692 692 692> 736 102<376 376 376 396 296 442>
VStem: 95 597<690 690>
LayerCount: 2
Fore
SplineSet
376 736 m 1
 296 838 l 1
 396 838 l 1
 442 736 l 1
 376 736 l 1
373 266 m 1
 327 0 l 1
 217 0 l 1
 265 269 l 1
 95 690 l 1
 212 690 l 1
 336 366 l 1
 567 690 l 1
 692 690 l 1
 373 266 l 1
EndSplineSet
Position2: "'cpsp' Capital Spacing in Latin lookup 0 subtable" dx=5 dy=0 dh=10 dv=0
EndChar

StartChar: ygrave
Encoding: 7923 7923 225
Width: 517
GlyphClass: 2
Flags: MW
HStem: -210 82<17 48 17 76.5> 511 20G<34 158 158 158 449 572 572 572> 577 114<284 284 284 302 202 350>
VStem: -26 598
LayerCount: 2
Fore
SplineSet
284 577 m 1
 202 691 l 1
 302 691 l 1
 350 577 l 1
 284 577 l 1
572 531 m 1
 275 0 l 2
 185 -161 129 -210 24 -210 c 0
 6 -210 -11 -209 -26 -206 c 1
 -13 -125 l 1
 0 -127 11 -128 23 -128 c 0
 73 -128 107 -107 141 -43 c 2
 149 -28 l 1
 34 531 l 1
 158 531 l 1
 225 85 l 1
 449 531 l 1
 572 531 l 1
EndSplineSet
EndChar

StartChar: endash
Encoding: 8211 8211 270
Width: 500
Flags: MW
HStem: 259 66<81 419 69 431>
VStem: 69 362<259 325>
LayerCount: 2
Fore
SplineSet
419 259 m 1
 69 259 l 1
 81 325 l 1
 431 325 l 1
 419 259 l 1
EndSplineSet
EndChar

StartChar: emdash
Encoding: 8212 8212 269
Width: 1000
Flags: MW
HStem: 259 66<81 919 69 931>
VStem: 69 862<259 325>
LayerCount: 2
Fore
SplineSet
919 259 m 1
 69 259 l 1
 81 325 l 1
 931 325 l 1
 919 259 l 1
EndSplineSet
EndChar

StartChar: quoteleft
Encoding: 8216 8216 279
Width: 238
Flags: MW
HStem: 451 239<80 312 80 312>
VStem: 80 232
LayerCount: 2
Fore
SplineSet
82 463 m 1
 217 690 l 1
 312 690 l 1
 192 451 l 1
 80 451 l 1
 82 463 l 1
EndSplineSet
EndChar

StartChar: quoteright
Encoding: 8217 8217 280
Width: 238
Flags: MW
HStem: 451 239<36 268 36 268> 670 20G<156 268 268 268>
VStem: 36 232
LayerCount: 2
Fore
SplineSet
266 679 m 1x60
 131 451 l 1
 36 451 l 1xa0
 156 690 l 1
 268 690 l 1
 266 679 l 1x60
EndSplineSet
EndChar

StartChar: quotesinglbase
Encoding: 8218 8218 281
Width: 246
Flags: MW
HStem: -121 239<-91 143 -91 143>
VStem: -91 234
LayerCount: 2
Fore
SplineSet
141 107 m 1
 5 -121 l 1
 -91 -121 l 1
 30 118 l 1
 143 118 l 1
 141 107 l 1
EndSplineSet
EndChar

StartChar: quotedblleft
Encoding: 8220 8220 277
Width: 428
Flags: MW
HStem: 451 239<80 313 80 313 270 270 270 313 217 382>
VStem: 80 423<451 690>
LayerCount: 2
Fore
SplineSet
82 463 m 1
 217 690 l 1
 313 690 l 1
 192 451 l 1
 80 451 l 1
 82 463 l 1
272 463 m 1
 407 690 l 1
 503 690 l 1
 382 451 l 1
 270 451 l 1
 272 463 l 1
EndSplineSet
EndChar

StartChar: quotedblright
Encoding: 8221 8221 278
Width: 428
Flags: MW
HStem: 451 239<36 268 36 268 226 226 226 268 156 321>
VStem: 36 422<451 690>
LayerCount: 2
Fore
SplineSet
266 679 m 1
 131 451 l 1
 36 451 l 1
 156 690 l 1
 268 690 l 1
 266 679 l 1
456 679 m 1
 321 451 l 1
 226 451 l 1
 346 690 l 1
 458 690 l 1
 456 679 l 1
EndSplineSet
EndChar

StartChar: quotedblbase
Encoding: 8222 8222 276
Width: 436
Flags: MW
HStem: -121 239<-91 143 -91 143 100 100 100 143 30 195>
VStem: -91 424<-121 118>
LayerCount: 2
Fore
SplineSet
141 107 m 1
 5 -121 l 1
 -91 -121 l 1
 30 118 l 1
 143 118 l 1
 141 107 l 1
331 107 m 1
 195 -121 l 1
 100 -121 l 1
 220 118 l 1
 333 118 l 1
 331 107 l 1
EndSplineSet
EndChar

StartChar: dagger
Encoding: 8224 8224 319
Width: 570
Flags: MW
HStem: 368 90 670 20G<292 409 409 409>
VStem: 66 470<365 461>
LayerCount: 2
Fore
SplineSet
519 365 m 1
 341 371 l 1
 259 -160 l 1
 142 -160 l 1
 248 372 l 1
 66 365 l 1
 83 461 l 1
 262 455 l 1
 292 690 l 1
 409 690 l 1
 357 455 l 1
 536 461 l 1
 519 365 l 1
EndSplineSet
EndChar

StartChar: daggerdbl
Encoding: 8225 8225 320
Width: 540
Flags: MW
HStem: 72 89.5 368.5 89.5 670 20G<289 406 406 406>
VStem: 12 522<69 461>
LayerCount: 2
Fore
SplineSet
338 372 m 1
 300 158 l 1
 482 165 l 1
 465 69 l 1
 286 75 l 1
 256 -160 l 1
 139 -160 l 1
 191 75 l 1
 12 69 l 1
 29 165 l 1
 207 158 l 1
 245 372 l 1
 64 365 l 1
 81 461 l 1
 259 455 l 1
 289 690 l 1
 406 690 l 1
 354 455 l 1
 534 461 l 1
 517 365 l 1
 338 372 l 1
EndSplineSet
EndChar

StartChar: bullet
Encoding: 8226 8226 246
Width: 371
Flags: MW
HStem: 195 221<168 203>
VStem: 73 226<290 320>
LayerCount: 2
Fore
SplineSet
205 416 m 0
 261 416 299 380 299 327 c 0
 299 253 240 195 166 195 c 0
 111 195 73 230 73 283 c 0
 73 357 131 416 205 416 c 0
EndSplineSet
EndChar

StartChar: ellipsis
Encoding: 8230 8230 249
Width: 696
Flags: MW
HStem: -14 146<59.5 82.5 284.5 307.5 509.5 532.5>
VStem: -3 147<47 71> 222 147<47 71> 447 147<47 71>
LayerCount: 2
Fore
SplineSet
84 132 m 0
 120 132 144 108 144 73 c 0
 144 21 107 -14 58 -14 c 0
 22 -14 -3 10 -3 45 c 0
 -3 97 35 132 84 132 c 0
309 132 m 0
 345 132 369 108 369 73 c 0
 369 21 332 -14 283 -14 c 0
 247 -14 222 10 222 45 c 0
 222 97 260 132 309 132 c 0
534 132 m 0
 570 132 594 108 594 73 c 0
 594 21 557 -14 508 -14 c 0
 472 -14 447 10 447 45 c 0
 447 97 485 132 534 132 c 0
EndSplineSet
EndChar

StartChar: perthousand
Encoding: 8240 8240 306
Width: 1092
Flags: MW
HStem: -14 66<517.5 558 517.5 586.5 854.5 894.5> 0 21G<56 161 56 56> 243 66<539 579 875.5 915.5> 381 66<205 245 205 273.5> 638 66<226 266> 670 20G<623 728 728 728>
VStem: 81 91<491.5 548.5 491.5 561.5> 299 91<537 593.5> 394 90<96.5 153.5 96.5 166.5> 612 91<142 198.5> 730 91<96.5 153.5 96.5 166.5> 949 91<142 198.5>
LayerCount: 2
Fore
SplineSet
214 381 m 0xbab0
 133 381 81 434 81 514 c 0
 81 609 138 704 257 704 c 0
 338 704 390 652 390 571 c 0x1b
 390 476 333 381 214 381 c 0xbab0
623 690 m 1x46
 728 690 l 1
 161 0 l 1
 56 0 l 1
 623 690 l 1x46
249 638 m 0x3b40
 203 638 172 586 172 511 c 0
 172 472 188 447 222 447 c 0
 268 447 299 500 299 574 c 0
 299 613 283 638 249 638 c 0x3b40
569 309 m 0
 651 309 703 257 703 176 c 0
 703 81 646 -14 527 -14 c 0
 446 -14 394 39 394 119 c 0xa0c0
 394 214 451 309 569 309 c 0
906 309 m 0xa030
 988 309 1040 257 1040 176 c 0
 1040 81 982 -14 864 -14 c 0
 782 -14 730 39 730 119 c 0
 730 214 788 309 906 309 c 0xa030
535 52 m 0xa0c0
 581 52 612 105 612 179 c 0
 612 218 596 243 562 243 c 0
 516 243 484 191 484 116 c 0
 484 77 500 52 535 52 c 0xa0c0
872 52 m 0xa030
 917 52 949 105 949 179 c 0
 949 218 933 243 898 243 c 0
 853 243 821 191 821 116 c 0
 821 77 837 52 872 52 c 0xa030
EndSplineSet
EndChar

StartChar: guilsinglleft
Encoding: 8249 8249 274
Width: 393
Flags: MW
HStem: 82 332<279 305 221 376>
VStem: 113 263<248 414>
LayerCount: 2
Fore
SplineSet
202 240 m 1
 305 82 l 1
 221 82 l 1
 113 248 l 1
 279 414 l 1
 376 414 l 1
 202 240 l 1
EndSplineSet
EndChar

StartChar: guilsinglright
Encoding: 8250 8250 275
Width: 396
Flags: MW
HStem: 82 332<81 108 10 166>
VStem: 10 264<82 248>
LayerCount: 2
Fore
SplineSet
274 248 m 1
 108 82 l 1
 10 82 l 1
 184 256 l 1
 81 414 l 1
 166 414 l 1
 274 248 l 1
EndSplineSet
EndChar

StartChar: fraction
Encoding: 8260 8260 243
Width: 238
Flags: MW
HStem: 0 21G<-205 -102 -205 -205> 670 20G<363 466 466 466>
VStem: -205 671
LayerCount: 2
Fore
SplineSet
-102 0 m 1
 -205 0 l 1
 363 690 l 1
 466 690 l 1
 -102 0 l 1
EndSplineSet
EndChar

StartChar: Euro
Encoding: 8364 8364 286
Width: 601
Flags: MW
HStem: -14 84<299.5 348> 251 66<15 73 -7 75 191 429> 370 66<54 80 32 95 210 466> 620 84<362.5 446>
VStem: 73 118<251 251> 80 113.5
LayerCount: 2
Fore
SplineSet
431 704 m 0xf8
 512 704 565 680 595 641 c 1
 538 573 l 1
 509 605 470 620 422 620 c 0
 303 620 239 537 210 436 c 1
 489 436 l 1
 466 370 l 1
 196 370 l 1
 194 352 192 335 191 317 c 1
 449 317 l 1
 429 251 l 1
 191 251 l 1
 198 112 255 70 344 70 c 0
 403 70 451 82 500 110 c 1
 484 24 l 1
 431 -4 380 -14 316 -14 c 0
 179 -14 80 48 73 251 c 1
 -7 251 l 1
 15 317 l 1xf8
 75 317 l 1
 76 334 78 352 80 370 c 1
 32 370 l 1
 54 436 l 1
 95 436 l 1xf4
 133 575 230 704 431 704 c 0xf8
EndSplineSet
EndChar

StartChar: trademark
Encoding: 8482 8482 325
Width: 539
Flags: MW
HStem: 456 203<76 341 76 341 226 341 262 279 262 410 421 463> 460 48<354 354 354 373 318 354> 618 42<39 105 31 238 158 231 158 158>
VStem: 303 44.5
LayerCount: 2
Fore
SplineSet
158 618 m 1x30
 129 456 l 1
 76 456 l 1
 105 618 l 1
 31 618 l 1
 39 660 l 1
 238 660 l 1
 231 618 l 1
 158 618 l 1x30
499 659 m 1x90
 463 456 l 1
 410 456 l 1
 437 598 l 1x90
 373 460 l 1
 318 460 l 1
 303 597 l 1
 279 456 l 1
 226 456 l 1
 262 659 l 1
 341 659 l 1
 354 508 l 1x70
 421 659 l 1
 499 659 l 1x90
EndSplineSet
EndChar

StartChar: partialdiff
Encoding: 8706 8706 304
Width: 601
Flags: MW
HStem: -14 83<226.5 304 226.5 369> 415 83<255.5 336> 676 82<301.5 365>
VStem: 37 118<150 254.5 150 273> 445 116<480.5 547.5>
LayerCount: 2
Fore
SplineSet
342 758 m 0
 502 758 561 648 561 489 c 0
 561 261 491 -14 247 -14 c 0
 123 -14 37 54 37 191 c 0
 37 355 123 498 305 498 c 0
 381 498 424 471 442 428 c 1
 444 450 445 470 445 491 c 0
 445 604 413 676 317 676 c 0
 255 676 215 660 165 625 c 1
 135 693 l 1
 203 739 261 758 342 758 c 0
258 69 m 0
 350 69 406 178 430 332 c 1
 412 392 369 415 303 415 c 0
 208 415 155 318 155 191 c 0
 155 109 195 69 258 69 c 0
EndSplineSet
EndChar

StartChar: product
Encoding: 8719 8719 309
Width: 601
Flags: MW
HStem: 603 87<92 137 76 628 247 443 247 247 553 612 553 553>
VStem: 10 618
LayerCount: 2
Fore
SplineSet
612 603 m 1
 553 603 l 1
 426 -110 l 1
 316 -110 l 1
 443 603 l 1
 247 603 l 1
 120 -110 l 1
 10 -110 l 1
 137 603 l 1
 76 603 l 1
 92 690 l 1
 628 690 l 1
 612 603 l 1
EndSplineSet
EndChar

StartChar: summation
Encoding: 8721 8721 311
Width: 601
Flags: MW
HStem: -110 87<95 461> 603 87<236 581 236 236>
VStem: -46 643
LayerCount: 2
Fore
SplineSet
581 603 m 1
 236 603 l 1
 420 299 l 1
 95 -23 l 1
 477 -23 l 1
 461 -110 l 1
 -46 -110 l 1
 -31 -27 l 1
 295 301 l 1
 112 607 l 1
 127 690 l 1
 597 690 l 1
 581 603 l 1
EndSplineSet
EndChar

StartChar: minus
Encoding: 8722 8722 301
Width: 601
Flags: MW
HStem: 286 66<87 503 75 514>
VStem: 75 439<286 352>
LayerCount: 2
Fore
SplineSet
503 286 m 1
 75 286 l 1
 87 352 l 1
 514 352 l 1
 503 286 l 1
EndSplineSet
EndChar

StartChar: radical
Encoding: 8730 8730 310
Width: 601
Flags: MW
HStem: 246 64<54 113 42 179>
VStem: 42 597<246 780>
LayerCount: 2
Fore
SplineSet
639 780 m 1
 256 -160 l 1
 168 -160 l 1
 113 246 l 1
 42 246 l 1
 54 310 l 1
 179 310 l 1
 226 -76 l 1
 566 780 l 1
 639 780 l 1
EndSplineSet
EndChar

StartChar: infinity
Encoding: 8734 8734 296
Width: 1003
Flags: MW
HStem: -14 80<221.5 289.5 221.5 291.5 653 747.5> 464 80<257 352 715 782.5>
VStem: 27 118<175.5 274 175.5 293.5> 437 132<265 265> 859 118<256 354.5>
LayerCount: 2
Fore
SplineSet
764 544 m 0
 905 544 977 449 977 306 c 0
 977 167 890 -14 683 -14 c 0
 584 -14 510 31 478 134 c 1
 411 31 342 -14 241 -14 c 0
 100 -14 27 82 27 224 c 0
 27 363 114 544 321 544 c 0
 420 544 496 499 528 396 c 1
 595 499 662 544 764 544 c 0
258 66 m 0
 321 66 395 121 437 265 c 1
 436 410 391 464 313 464 c 0
 201 464 145 321 145 227 c 0
 145 124 185 66 258 66 c 0
692 66 m 0
 803 66 859 209 859 303 c 0
 859 406 819 464 746 464 c 0
 684 464 610 409 569 265 c 1
 568 121 614 66 692 66 c 0
EndSplineSet
EndChar

StartChar: integral
Encoding: 8747 8747 297
Width: 601
Flags: MW
HStem: -160 66<165 215 165 235> 688 66<387.5 437.5>
VStem: 249 74<480.5 562.5 480.5 581> 280 74<31.5 114>
LayerCount: 2
Fore
SplineSet
431 754 m 0xd0
 464 754 486 750 509 732 c 1
 483 669 l 1
 465 684 450 688 425 688 c 0
 350 688 323 613 323 512 c 0xe0
 323 449 328 393 338 304 c 1
 349 220 354 160 354 85 c 0
 354 -59 299 -160 171 -160 c 0
 138 -160 116 -156 93 -138 c 1
 120 -75 l 1
 138 -90 153 -94 177 -94 c 0
 253 -94 280 -19 280 82 c 0xd0
 280 146 275 201 265 290 c 1
 254 375 249 434 249 509 c 0xe0
 249 653 304 754 431 754 c 0xd0
EndSplineSet
EndChar

StartChar: approxequal
Encoding: 8776 8776 289
Width: 578
Flags: MW
HStem: 135 72<368.5 392> 211 72<156.5 180.5> 305 72<398 422> 381 72<186.5 210.5>
VStem: 44 492<206 384>
LayerCount: 2
Fore
SplineSet
213 453 m 0
 253 453 276 440 324 412 c 0
 362 389 384 377 412 377 c 0
 444 377 467 392 495 425 c 1
 536 384 l 1
 491 329 449 305 395 305 c 0xa8
 356 305 333 317 285 346 c 0
 247 368 224 381 197 381 c 0
 166 381 141 366 114 332 c 1
 73 376 l 1
 118 431 160 453 213 453 c 0
183 283 m 0x68
 223 283 246 270 294 242 c 0
 332 219 355 207 382 207 c 0
 414 207 438 222 465 255 c 1
 505 214 l 1
 461 159 419 135 365 135 c 0xa8
 326 135 303 147 255 176 c 0
 217 198 194 211 167 211 c 0
 136 211 111 196 84 162 c 1
 44 206 l 1
 88 261 130 283 183 283 c 0x68
EndSplineSet
EndChar

StartChar: notequal
Encoding: 8800 8800 303
Width: 601
Flags: MW
HStem: 184 64<65 153 53 200 276 491 65 229> 384 64<100 301 89 348 424 527 100 377> 384 157<89 492 416 492 416 527 377 492>
VStem: 53 485<184 448>
LayerCount: 2
Fore
SplineSet
377 384 m 1xd0
 276 248 l 1
 502 248 l 1
 491 184 l 1
 229 184 l 1
 161 91 l 1
 85 91 l 1
 153 184 l 1
 53 184 l 1
 65 248 l 1
 200 248 l 1
 301 384 l 1
 89 384 l 1
 100 448 l 1
 348 448 l 1xd0
 416 541 l 1
 492 541 l 1xb0
 424 448 l 1
 538 448 l 1
 527 384 l 1
 377 384 l 1xd0
EndSplineSet
EndChar

StartChar: lessequal
Encoding: 8804 8804 299
Width: 601
Flags: MW
HStem: 0 66<49 462 37 474>
VStem: 37 515
LayerCount: 2
Fore
SplineSet
538 435 m 1
 163 309 l 1
 494 184 l 1
 481 107 l 1
 84 269 l 1
 99 354 l 1
 552 515 l 1
 538 435 l 1
49 66 m 1
 474 66 l 1
 462 0 l 1
 37 0 l 1
 49 66 l 1
EndSplineSet
EndChar

StartChar: greaterequal
Encoding: 8805 8805 295
Width: 601
Flags: MW
HStem: 0 66<45 455 33 467>
VStem: 33 485<0 354>
LayerCount: 2
Fore
SplineSet
518 354 m 1
 503 269 l 1
 52 107 l 1
 66 188 l 1
 439 314 l 1
 110 439 l 1
 123 515 l 1
 518 354 l 1
45 66 m 1
 467 66 l 1
 455 0 l 1
 33 0 l 1
 45 66 l 1
EndSplineSet
EndChar

StartChar: lozenge
Encoding: 9674 9674 312
Width: 523
Flags: MW
HStem: 0 21G<157 244 157 157> 0 72<213 213 213 244 157 213> 618 72<310 310> 670 20G<279 366 366 366>
VStem: 53 417<345 345>
LayerCount: 2
Fore
SplineSet
470 345 m 1x98
 244 0 l 1
 157 0 l 1
 53 345 l 1
 279 690 l 1
 366 690 l 1
 470 345 l 1x98
387 345 m 1
 310 618 l 1
 136 345 l 1
 213 72 l 1x68
 387 345 l 1
EndSplineSet
EndChar

StartChar: fi
Encoding: 64257 64257 231
Width: 548
GlyphClass: 3
Flags: MW
HStem: 0 21G<30 139 30 30 324 433 324 324> 450 77<75 108 62 122 232 403> 669.11 78.89 669.11 84.89
VStem: 30 495
LayerCount: 2
Fore
SplineSet
525 527 m 1xe8
 433 0 l 1
 324 0 l 1
 403 450 l 1
 218 450 l 1
 139 0 l 1
 30 0 l 1
 108 450 l 1
 62 450 l 1
 75 527 l 1
 122 527 l 1
 124 539 l 2
 127 558 133 583 138 601 c 0
 165 699 246 754 387 754 c 0xd8
 414 754 435 752 455 748 c 1
 440 666 l 1
 316 679 265 654 246 595 c 0
 242 581 237 559 235 545 c 2
 232 527 l 1
 525 527 l 1xe8
EndSplineSet
Ligature2: "'liga' Standard Ligatures in Latin lookup 4 subtable" f i
EndChar

StartChar: fl
Encoding: 64258 64258 232
Width: 564
GlyphClass: 3
Flags: MW
HStem: -6 21G<396.5 436.5> -6 80<396.5 508> 0 21G<29 138 29 29> 450 77<75 108 61 122 232 326> 674 80<339.5 388.5> 714 20G<557 560 560 560>
VStem: 335 116<37 116>
LayerCount: 2
Fore
SplineSet
451 110 m 0x56
 451 83 468 71 508 74 c 1x56
 495 -1 l 1
 473 -4 449 -6 424 -6 c 0
 369 -6 335 10 335 64 c 0x96
 335 83 339 106 349 159 c 2
 438 667 l 1
 418 673 399 674 378 674 c 0
 301 674 260 642 246 595 c 0
 242 581 237 559 235 545 c 2
 232 527 l 1
 340 527 l 1
 326 450 l 1
 218 450 l 1
 138 0 l 1
 29 0 l 1
 108 450 l 1
 61 450 l 1
 75 527 l 1
 122 527 l 1
 124 539 l 2
 127 558 132 583 137 601 c 0
 164 699 245 754 397 754 c 0x3a
 459 754 515 747 557 734 c 1
 560 734 l 1
 458 162 l 2
 454 136 451 122 451 110 c 0x56
EndSplineSet
Ligature2: "'liga' Standard Ligatures in Latin lookup 4 subtable" f l
EndChar

StartChar: .notdef
Encoding: 65536 -1 0
Width: 565
Flags: MW
HStem: 0 50<145 485 145 565> 650 50<145 485 145 145>
LayerCount: 2
Fore
SplineSet
65 0 m 1
 65 700 l 1
 565 700 l 1
 565 0 l 1
 65 0 l 1
315 395 m 1
 485 650 l 1
 145 650 l 1
 315 395 l 1
345 350 m 1
 515 95 l 1
 515 605 l 1
 345 350 l 1
145 50 m 1
 485 50 l 1
 315 305 l 1
 145 50 l 1
115 605 m 1
 115 95 l 1
 285 350 l 1
 115 605 l 1
EndSplineSet
EndChar

StartChar: a.alt
Encoding: 65537 -1 230
Width: 628
GlyphClass: 2
Flags: MW
HStem: -14 80<221.5 252> 0 66 465 66 465 80<273.5 361 232.5 386>
VStem: 24 118<167 275 167 285> 458.36 24.64
LayerCount: 2
Fore
SplineSet
606 531 m 1xac
 513 0 l 1
 404 0 l 1
 419 83 l 1x58
 368 26 l 1
 335 2 279 -14 225 -14 c 0
 93 -14 24 75 24 201 c 0
 24 369 126 545 339 545 c 0
 383 545 436 529 459 506 c 1
 483 454 l 1x9c
 496 531 l 1
 606 531 l 1xac
450 260 m 2
 455 288 l 1
 470 379 438 465 334 465 c 0
 213 465 142 339 142 211 c 0
 142 123 181 66 262 66 c 0x9c
 344 66 425 119 450 260 c 2
EndSplineSet
EndChar
